M48
; DRILL file {KiCad 5.1.12-1.fc35} date Sat 27 Nov 2021 14:33:59 GMT
; FORMAT={-:-/ absolute / inch / decimal}
; #@! TF.CreationDate,2021-11-27T14:33:59+00:00
; #@! TF.GenerationSoftware,Kicad,Pcbnew,5.1.12-1.fc35
; #@! TF.FileFunction,Plated,1,2,PTH
FMAT,2
INCH
T1C0.0157
T2C0.0394
T3C0.0469
T4C0.0787
%
G90
G05
T1
X7.7677Y-2.6575
X7.8425Y-2.9409
X7.9882Y-2.9055
X7.9882Y-2.9685
X7.9961Y-3.0276
X8.1089Y-3.0486
X8.252Y-2.6969
T2
X7.6516Y-2.8031
X7.6516Y-2.9016
X7.6516Y-3.0
X8.2224Y-2.8031
X8.2224Y-3.0
T3
X8.4173Y-2.7016
X8.4173Y-2.8016
X8.4173Y-2.9016
X8.4173Y-3.0016
X8.4173Y-3.1016
T4
G00X7.937Y-2.6811
M15
G01X7.9567Y-2.6811
M16
G05
G00X7.937Y-3.122
M15
G01X7.9567Y-3.122
M16
G05
T0
M30
