%TF.GenerationSoftware,KiCad,Pcbnew,5.1.12-1.fc35*%
%TF.CreationDate,2021-11-27T14:34:01+00:00*%
%TF.ProjectId,kiCAD_TriSchmittPanelMount_v003.1,6b694341-445f-4547-9269-5363686d6974,rev?*%
%TF.SameCoordinates,Original*%
%TF.FileFunction,Soldermask,Top*%
%TF.FilePolarity,Negative*%
%FSLAX46Y46*%
G04 Gerber Fmt 4.6, Leading zero omitted, Abs format (unit mm)*
G04 Created by KiCad (PCBNEW 5.1.12-1.fc35) date 2021-11-27 14:34:01*
%MOMM*%
%LPD*%
G01*
G04 APERTURE LIST*
%ADD10O,2.190000X1.740000*%
%ADD11R,0.300000X1.600000*%
%ADD12C,2.000000*%
%ADD13R,3.000000X2.500000*%
%ADD14R,2.000000X2.000000*%
G04 APERTURE END LIST*
%TO.C,R7*%
G36*
G01*
X200675000Y-76625000D02*
X200675000Y-77175000D01*
G75*
G02*
X200475000Y-77375000I-200000J0D01*
G01*
X200075000Y-77375000D01*
G75*
G02*
X199875000Y-77175000I0J200000D01*
G01*
X199875000Y-76625000D01*
G75*
G02*
X200075000Y-76425000I200000J0D01*
G01*
X200475000Y-76425000D01*
G75*
G02*
X200675000Y-76625000I0J-200000D01*
G01*
G37*
G36*
G01*
X202325000Y-76625000D02*
X202325000Y-77175000D01*
G75*
G02*
X202125000Y-77375000I-200000J0D01*
G01*
X201725000Y-77375000D01*
G75*
G02*
X201525000Y-77175000I0J200000D01*
G01*
X201525000Y-76625000D01*
G75*
G02*
X201725000Y-76425000I200000J0D01*
G01*
X202125000Y-76425000D01*
G75*
G02*
X202325000Y-76625000I0J-200000D01*
G01*
G37*
%TD*%
%TO.C,D4*%
G36*
G01*
X197650000Y-79537500D02*
X197650000Y-79062500D01*
G75*
G02*
X197887500Y-78825000I237500J0D01*
G01*
X198462500Y-78825000D01*
G75*
G02*
X198700000Y-79062500I0J-237500D01*
G01*
X198700000Y-79537500D01*
G75*
G02*
X198462500Y-79775000I-237500J0D01*
G01*
X197887500Y-79775000D01*
G75*
G02*
X197650000Y-79537500I0J237500D01*
G01*
G37*
G36*
G01*
X195900000Y-79537500D02*
X195900000Y-79062500D01*
G75*
G02*
X196137500Y-78825000I237500J0D01*
G01*
X196712500Y-78825000D01*
G75*
G02*
X196950000Y-79062500I0J-237500D01*
G01*
X196950000Y-79537500D01*
G75*
G02*
X196712500Y-79775000I-237500J0D01*
G01*
X196137500Y-79775000D01*
G75*
G02*
X195900000Y-79537500I0J237500D01*
G01*
G37*
%TD*%
%TO.C,J1*%
G36*
G01*
X212954999Y-67750000D02*
X214645001Y-67750000D01*
G75*
G02*
X214895000Y-67999999I0J-249999D01*
G01*
X214895000Y-69240001D01*
G75*
G02*
X214645001Y-69490000I-249999J0D01*
G01*
X212954999Y-69490000D01*
G75*
G02*
X212705000Y-69240001I0J249999D01*
G01*
X212705000Y-67999999D01*
G75*
G02*
X212954999Y-67750000I249999J0D01*
G01*
G37*
D10*
X213800000Y-71160000D03*
X213800000Y-73700000D03*
X213800000Y-76240000D03*
X213800000Y-78780000D03*
%TD*%
D11*
%TO.C,U1*%
X206525000Y-76000000D03*
X205875000Y-76000000D03*
X205225000Y-76000000D03*
X204575000Y-76000000D03*
X204575000Y-72600000D03*
X205225000Y-72600000D03*
X205875000Y-72600000D03*
X206525000Y-72600000D03*
%TD*%
%TO.C,R6*%
G36*
G01*
X205975000Y-69087500D02*
X205975000Y-68612500D01*
G75*
G02*
X206212500Y-68375000I237500J0D01*
G01*
X206712500Y-68375000D01*
G75*
G02*
X206950000Y-68612500I0J-237500D01*
G01*
X206950000Y-69087500D01*
G75*
G02*
X206712500Y-69325000I-237500J0D01*
G01*
X206212500Y-69325000D01*
G75*
G02*
X205975000Y-69087500I0J237500D01*
G01*
G37*
G36*
G01*
X204150000Y-69087500D02*
X204150000Y-68612500D01*
G75*
G02*
X204387500Y-68375000I237500J0D01*
G01*
X204887500Y-68375000D01*
G75*
G02*
X205125000Y-68612500I0J-237500D01*
G01*
X205125000Y-69087500D01*
G75*
G02*
X204887500Y-69325000I-237500J0D01*
G01*
X204387500Y-69325000D01*
G75*
G02*
X204150000Y-69087500I0J237500D01*
G01*
G37*
%TD*%
%TO.C,R5*%
G36*
G01*
X209175000Y-67575000D02*
X209175000Y-67025000D01*
G75*
G02*
X209375000Y-66825000I200000J0D01*
G01*
X209775000Y-66825000D01*
G75*
G02*
X209975000Y-67025000I0J-200000D01*
G01*
X209975000Y-67575000D01*
G75*
G02*
X209775000Y-67775000I-200000J0D01*
G01*
X209375000Y-67775000D01*
G75*
G02*
X209175000Y-67575000I0J200000D01*
G01*
G37*
G36*
G01*
X207525000Y-67575000D02*
X207525000Y-67025000D01*
G75*
G02*
X207725000Y-66825000I200000J0D01*
G01*
X208125000Y-66825000D01*
G75*
G02*
X208325000Y-67025000I0J-200000D01*
G01*
X208325000Y-67575000D01*
G75*
G02*
X208125000Y-67775000I-200000J0D01*
G01*
X207725000Y-67775000D01*
G75*
G02*
X207525000Y-67575000I0J200000D01*
G01*
G37*
%TD*%
%TO.C,R4*%
G36*
G01*
X196833834Y-71325000D02*
X196833834Y-71875000D01*
G75*
G02*
X196633834Y-72075000I-200000J0D01*
G01*
X196233834Y-72075000D01*
G75*
G02*
X196033834Y-71875000I0J200000D01*
G01*
X196033834Y-71325000D01*
G75*
G02*
X196233834Y-71125000I200000J0D01*
G01*
X196633834Y-71125000D01*
G75*
G02*
X196833834Y-71325000I0J-200000D01*
G01*
G37*
G36*
G01*
X198483834Y-71325000D02*
X198483834Y-71875000D01*
G75*
G02*
X198283834Y-72075000I-200000J0D01*
G01*
X197883834Y-72075000D01*
G75*
G02*
X197683834Y-71875000I0J200000D01*
G01*
X197683834Y-71325000D01*
G75*
G02*
X197883834Y-71125000I200000J0D01*
G01*
X198283834Y-71125000D01*
G75*
G02*
X198483834Y-71325000I0J-200000D01*
G01*
G37*
%TD*%
%TO.C,R3*%
G36*
G01*
X197683834Y-68775000D02*
X197683834Y-68225000D01*
G75*
G02*
X197883834Y-68025000I200000J0D01*
G01*
X198283834Y-68025000D01*
G75*
G02*
X198483834Y-68225000I0J-200000D01*
G01*
X198483834Y-68775000D01*
G75*
G02*
X198283834Y-68975000I-200000J0D01*
G01*
X197883834Y-68975000D01*
G75*
G02*
X197683834Y-68775000I0J200000D01*
G01*
G37*
G36*
G01*
X196033834Y-68775000D02*
X196033834Y-68225000D01*
G75*
G02*
X196233834Y-68025000I200000J0D01*
G01*
X196633834Y-68025000D01*
G75*
G02*
X196833834Y-68225000I0J-200000D01*
G01*
X196833834Y-68775000D01*
G75*
G02*
X196633834Y-68975000I-200000J0D01*
G01*
X196233834Y-68975000D01*
G75*
G02*
X196033834Y-68775000I0J200000D01*
G01*
G37*
%TD*%
%TO.C,R2*%
G36*
G01*
X198483834Y-75998334D02*
X198483834Y-76548334D01*
G75*
G02*
X198283834Y-76748334I-200000J0D01*
G01*
X197883834Y-76748334D01*
G75*
G02*
X197683834Y-76548334I0J200000D01*
G01*
X197683834Y-75998334D01*
G75*
G02*
X197883834Y-75798334I200000J0D01*
G01*
X198283834Y-75798334D01*
G75*
G02*
X198483834Y-75998334I0J-200000D01*
G01*
G37*
G36*
G01*
X196833834Y-75998334D02*
X196833834Y-76548334D01*
G75*
G02*
X196633834Y-76748334I-200000J0D01*
G01*
X196233834Y-76748334D01*
G75*
G02*
X196033834Y-76548334I0J200000D01*
G01*
X196033834Y-75998334D01*
G75*
G02*
X196233834Y-75798334I200000J0D01*
G01*
X196633834Y-75798334D01*
G75*
G02*
X196833834Y-75998334I0J-200000D01*
G01*
G37*
%TD*%
%TO.C,R1*%
G36*
G01*
X196033834Y-75011668D02*
X196033834Y-74461668D01*
G75*
G02*
X196233834Y-74261668I200000J0D01*
G01*
X196633834Y-74261668D01*
G75*
G02*
X196833834Y-74461668I0J-200000D01*
G01*
X196833834Y-75011668D01*
G75*
G02*
X196633834Y-75211668I-200000J0D01*
G01*
X196233834Y-75211668D01*
G75*
G02*
X196033834Y-75011668I0J200000D01*
G01*
G37*
G36*
G01*
X197683834Y-75011668D02*
X197683834Y-74461668D01*
G75*
G02*
X197883834Y-74261668I200000J0D01*
G01*
X198283834Y-74261668D01*
G75*
G02*
X198483834Y-74461668I0J-200000D01*
G01*
X198483834Y-75011668D01*
G75*
G02*
X198283834Y-75211668I-200000J0D01*
G01*
X197883834Y-75211668D01*
G75*
G02*
X197683834Y-75011668I0J200000D01*
G01*
G37*
%TD*%
%TO.C,D3*%
G36*
G01*
X205900000Y-67537500D02*
X205900000Y-67062500D01*
G75*
G02*
X206137500Y-66825000I237500J0D01*
G01*
X206712500Y-66825000D01*
G75*
G02*
X206950000Y-67062500I0J-237500D01*
G01*
X206950000Y-67537500D01*
G75*
G02*
X206712500Y-67775000I-237500J0D01*
G01*
X206137500Y-67775000D01*
G75*
G02*
X205900000Y-67537500I0J237500D01*
G01*
G37*
G36*
G01*
X204150000Y-67537500D02*
X204150000Y-67062500D01*
G75*
G02*
X204387500Y-66825000I237500J0D01*
G01*
X204962500Y-66825000D01*
G75*
G02*
X205200000Y-67062500I0J-237500D01*
G01*
X205200000Y-67537500D01*
G75*
G02*
X204962500Y-67775000I-237500J0D01*
G01*
X204387500Y-67775000D01*
G75*
G02*
X204150000Y-67537500I0J237500D01*
G01*
G37*
%TD*%
%TO.C,D2*%
G36*
G01*
X196888834Y-69793750D02*
X196888834Y-70306250D01*
G75*
G02*
X196670084Y-70525000I-218750J0D01*
G01*
X196232584Y-70525000D01*
G75*
G02*
X196013834Y-70306250I0J218750D01*
G01*
X196013834Y-69793750D01*
G75*
G02*
X196232584Y-69575000I218750J0D01*
G01*
X196670084Y-69575000D01*
G75*
G02*
X196888834Y-69793750I0J-218750D01*
G01*
G37*
G36*
G01*
X198463834Y-69793750D02*
X198463834Y-70306250D01*
G75*
G02*
X198245084Y-70525000I-218750J0D01*
G01*
X197807584Y-70525000D01*
G75*
G02*
X197588834Y-70306250I0J218750D01*
G01*
X197588834Y-69793750D01*
G75*
G02*
X197807584Y-69575000I218750J0D01*
G01*
X198245084Y-69575000D01*
G75*
G02*
X198463834Y-69793750I0J-218750D01*
G01*
G37*
%TD*%
%TO.C,D1*%
G36*
G01*
X198663834Y-77587500D02*
X198663834Y-78012500D01*
G75*
G02*
X198451334Y-78225000I-212500J0D01*
G01*
X197651334Y-78225000D01*
G75*
G02*
X197438834Y-78012500I0J212500D01*
G01*
X197438834Y-77587500D01*
G75*
G02*
X197651334Y-77375000I212500J0D01*
G01*
X198451334Y-77375000D01*
G75*
G02*
X198663834Y-77587500I0J-212500D01*
G01*
G37*
G36*
G01*
X197038834Y-77587500D02*
X197038834Y-78012500D01*
G75*
G02*
X196826334Y-78225000I-212500J0D01*
G01*
X196026334Y-78225000D01*
G75*
G02*
X195813834Y-78012500I0J212500D01*
G01*
X195813834Y-77587500D01*
G75*
G02*
X196026334Y-77375000I212500J0D01*
G01*
X196826334Y-77375000D01*
G75*
G02*
X197038834Y-77587500I0J-212500D01*
G01*
G37*
%TD*%
%TO.C,C3*%
G36*
G01*
X205875000Y-70637500D02*
X205875000Y-70162500D01*
G75*
G02*
X206112500Y-69925000I237500J0D01*
G01*
X206712500Y-69925000D01*
G75*
G02*
X206950000Y-70162500I0J-237500D01*
G01*
X206950000Y-70637500D01*
G75*
G02*
X206712500Y-70875000I-237500J0D01*
G01*
X206112500Y-70875000D01*
G75*
G02*
X205875000Y-70637500I0J237500D01*
G01*
G37*
G36*
G01*
X204150000Y-70637500D02*
X204150000Y-70162500D01*
G75*
G02*
X204387500Y-69925000I237500J0D01*
G01*
X204987500Y-69925000D01*
G75*
G02*
X205225000Y-70162500I0J-237500D01*
G01*
X205225000Y-70637500D01*
G75*
G02*
X204987500Y-70875000I-237500J0D01*
G01*
X204387500Y-70875000D01*
G75*
G02*
X204150000Y-70637500I0J237500D01*
G01*
G37*
%TD*%
%TO.C,C2*%
G36*
G01*
X200175000Y-71362500D02*
X200175000Y-71837500D01*
G75*
G02*
X199937500Y-72075000I-237500J0D01*
G01*
X199337500Y-72075000D01*
G75*
G02*
X199100000Y-71837500I0J237500D01*
G01*
X199100000Y-71362500D01*
G75*
G02*
X199337500Y-71125000I237500J0D01*
G01*
X199937500Y-71125000D01*
G75*
G02*
X200175000Y-71362500I0J-237500D01*
G01*
G37*
G36*
G01*
X201900000Y-71362500D02*
X201900000Y-71837500D01*
G75*
G02*
X201662500Y-72075000I-237500J0D01*
G01*
X201062500Y-72075000D01*
G75*
G02*
X200825000Y-71837500I0J237500D01*
G01*
X200825000Y-71362500D01*
G75*
G02*
X201062500Y-71125000I237500J0D01*
G01*
X201662500Y-71125000D01*
G75*
G02*
X201900000Y-71362500I0J-237500D01*
G01*
G37*
%TD*%
%TO.C,C1*%
G36*
G01*
X195858834Y-73437500D02*
X195858834Y-72962500D01*
G75*
G02*
X196096334Y-72725000I237500J0D01*
G01*
X196696334Y-72725000D01*
G75*
G02*
X196933834Y-72962500I0J-237500D01*
G01*
X196933834Y-73437500D01*
G75*
G02*
X196696334Y-73675000I-237500J0D01*
G01*
X196096334Y-73675000D01*
G75*
G02*
X195858834Y-73437500I0J237500D01*
G01*
G37*
G36*
G01*
X197583834Y-73437500D02*
X197583834Y-72962500D01*
G75*
G02*
X197821334Y-72725000I237500J0D01*
G01*
X198421334Y-72725000D01*
G75*
G02*
X198658834Y-72962500I0J-237500D01*
G01*
X198658834Y-73437500D01*
G75*
G02*
X198421334Y-73675000I-237500J0D01*
G01*
X197821334Y-73675000D01*
G75*
G02*
X197583834Y-73437500I0J237500D01*
G01*
G37*
%TD*%
D12*
%TO.C,SW1*%
X208850000Y-71200000D03*
X208850000Y-76200000D03*
D13*
X201850000Y-68100000D03*
X201850000Y-79300000D03*
D12*
X194350000Y-71200000D03*
X194350000Y-73700000D03*
D14*
X194350000Y-76200000D03*
%TD*%
M02*
