%TF.GenerationSoftware,KiCad,Pcbnew,5.1.12-1.fc35*%
%TF.CreationDate,2021-11-27T14:34:01+00:00*%
%TF.ProjectId,kiCAD_TriSchmittPanelMount_v003.1,6b694341-445f-4547-9269-5363686d6974,rev?*%
%TF.SameCoordinates,Original*%
%TF.FileFunction,Legend,Bot*%
%TF.FilePolarity,Positive*%
%FSLAX46Y46*%
G04 Gerber Fmt 4.6, Leading zero omitted, Abs format (unit mm)*
G04 Created by KiCad (PCBNEW 5.1.12-1.fc35) date 2021-11-27 14:34:01*
%MOMM*%
%LPD*%
G01*
G04 APERTURE LIST*
%ADD10C,0.100000*%
%ADD11C,0.120000*%
G04 APERTURE END LIST*
D10*
X193038095Y-76366666D02*
X192561904Y-76366666D01*
X193133333Y-76652380D02*
X192800000Y-75652380D01*
X192466666Y-76652380D01*
X192799999Y-71128571D02*
X192657142Y-71176190D01*
X192609523Y-71223809D01*
X192561904Y-71319047D01*
X192561904Y-71461904D01*
X192609523Y-71557142D01*
X192657142Y-71604761D01*
X192752380Y-71652380D01*
X193133332Y-71652380D01*
X193133332Y-70652380D01*
X192799999Y-70652380D01*
X192704761Y-70700000D01*
X192657142Y-70747619D01*
X192609523Y-70842857D01*
X192609523Y-70938095D01*
X192657142Y-71033333D01*
X192704761Y-71080952D01*
X192799999Y-71128571D01*
X193133332Y-71128571D01*
X192561904Y-74157142D02*
X192609523Y-74204761D01*
X192752380Y-74252380D01*
X192847618Y-74252380D01*
X192990475Y-74204761D01*
X193085713Y-74109523D01*
X193133332Y-74014285D01*
X193180951Y-73823809D01*
X193180951Y-73680952D01*
X193133332Y-73490476D01*
X193085713Y-73395238D01*
X192990475Y-73300000D01*
X192847618Y-73252380D01*
X192752380Y-73252380D01*
X192609523Y-73300000D01*
X192561904Y-73347619D01*
X215933333Y-78252380D02*
X215600000Y-79252380D01*
X215266666Y-78252380D01*
X216457143Y-75752380D02*
X216361905Y-75752380D01*
X216266667Y-75800000D01*
X216219048Y-75847619D01*
X216171429Y-75942857D01*
X216123810Y-76133333D01*
X216123810Y-76371428D01*
X216171429Y-76561904D01*
X216219048Y-76657142D01*
X216266667Y-76704761D01*
X216361905Y-76752380D01*
X216457143Y-76752380D01*
X216552381Y-76704761D01*
X216600000Y-76657142D01*
X216647619Y-76561904D01*
X216695238Y-76371428D01*
X216695238Y-76133333D01*
X216647619Y-75942857D01*
X216600000Y-75847619D01*
X216552381Y-75800000D01*
X216457143Y-75752380D01*
X215790476Y-76085714D02*
X215552381Y-76752380D01*
X215314286Y-76085714D01*
X215600000Y-71128571D02*
X215457143Y-71176190D01*
X215409524Y-71223809D01*
X215361905Y-71319047D01*
X215361905Y-71461904D01*
X215409524Y-71557142D01*
X215457143Y-71604761D01*
X215552381Y-71652380D01*
X215933333Y-71652380D01*
X215933333Y-70652380D01*
X215600000Y-70652380D01*
X215504762Y-70700000D01*
X215457143Y-70747619D01*
X215409524Y-70842857D01*
X215409524Y-70938095D01*
X215457143Y-71033333D01*
X215504762Y-71080952D01*
X215600000Y-71128571D01*
X215933333Y-71128571D01*
X215838095Y-68766666D02*
X215361904Y-68766666D01*
X215933333Y-69052380D02*
X215600000Y-68052380D01*
X215266666Y-69052380D01*
X216980952Y-74104761D02*
X216838095Y-74152380D01*
X216600000Y-74152380D01*
X216504762Y-74104761D01*
X216457143Y-74057142D01*
X216409524Y-73961904D01*
X216409524Y-73866666D01*
X216457143Y-73771428D01*
X216504762Y-73723809D01*
X216600000Y-73676190D01*
X216790476Y-73628571D01*
X216885714Y-73580952D01*
X216933333Y-73533333D01*
X216980952Y-73438095D01*
X216980952Y-73342857D01*
X216933333Y-73247619D01*
X216885714Y-73200000D01*
X216790476Y-73152380D01*
X216552381Y-73152380D01*
X216409524Y-73200000D01*
X216076190Y-73485714D02*
X215885714Y-74152380D01*
X215695238Y-73676190D01*
X215504762Y-74152380D01*
X215314286Y-73485714D01*
X217371428Y-82142857D02*
X217371428Y-80942857D01*
X216914285Y-80942857D01*
X216800000Y-81000000D01*
X216742857Y-81057142D01*
X216685714Y-81171428D01*
X216685714Y-81342857D01*
X216742857Y-81457142D01*
X216800000Y-81514285D01*
X216914285Y-81571428D01*
X217371428Y-81571428D01*
X216171428Y-81514285D02*
X215771428Y-81514285D01*
X215600000Y-82142857D02*
X216171428Y-82142857D01*
X216171428Y-80942857D01*
X215600000Y-80942857D01*
X214400000Y-82028571D02*
X214457142Y-82085714D01*
X214628571Y-82142857D01*
X214742857Y-82142857D01*
X214914285Y-82085714D01*
X215028571Y-81971428D01*
X215085714Y-81857142D01*
X215142857Y-81628571D01*
X215142857Y-81457142D01*
X215085714Y-81228571D01*
X215028571Y-81114285D01*
X214914285Y-81000000D01*
X214742857Y-80942857D01*
X214628571Y-80942857D01*
X214457142Y-81000000D01*
X214400000Y-81057142D01*
X213257142Y-82142857D02*
X213942857Y-82142857D01*
X213600000Y-82142857D02*
X213600000Y-80942857D01*
X213714285Y-81114285D01*
X213828571Y-81228571D01*
X213942857Y-81285714D01*
X212114285Y-82142857D02*
X212800000Y-82142857D01*
X212457142Y-82142857D02*
X212457142Y-80942857D01*
X212571428Y-81114285D01*
X212685714Y-81228571D01*
X212800000Y-81285714D01*
X210742857Y-80885714D02*
X211771428Y-82428571D01*
X209714285Y-82142857D02*
X210400000Y-82142857D01*
X210057142Y-82142857D02*
X210057142Y-80942857D01*
X210171428Y-81114285D01*
X210285714Y-81228571D01*
X210400000Y-81285714D01*
X209257142Y-81057142D02*
X209200000Y-81000000D01*
X209085714Y-80942857D01*
X208800000Y-80942857D01*
X208685714Y-81000000D01*
X208628571Y-81057142D01*
X208571428Y-81171428D01*
X208571428Y-81285714D01*
X208628571Y-81457142D01*
X209314285Y-82142857D01*
X208571428Y-82142857D01*
D11*
%TO.C,SW1*%
X201350000Y-73700000D02*
X202350000Y-73700000D01*
X201850000Y-74200000D02*
X201850000Y-73200000D01*
X208550000Y-70000000D02*
X208550000Y-67400000D01*
X208550000Y-75000000D02*
X208550000Y-72400000D01*
X208550000Y-80000000D02*
X208550000Y-77400000D01*
X194650000Y-77800000D02*
X194350000Y-77500000D01*
X194050000Y-77800000D02*
X194650000Y-77800000D01*
X194350000Y-77500000D02*
X194050000Y-77800000D01*
X195150000Y-80000000D02*
X195150000Y-77500000D01*
X199950000Y-80000000D02*
X195150000Y-80000000D01*
X195150000Y-67400000D02*
X195150000Y-70200000D01*
X200050000Y-67400000D02*
X195150000Y-67400000D01*
X208550000Y-67400000D02*
X203650000Y-67400000D01*
X203650000Y-80000000D02*
X208550000Y-80000000D01*
X204850000Y-73700000D02*
G75*
G03*
X204850000Y-73700000I-3000000J0D01*
G01*
%TD*%
M02*
