%TF.GenerationSoftware,KiCad,Pcbnew,5.1.12-1.fc35*%
%TF.CreationDate,2021-11-27T14:34:01+00:00*%
%TF.ProjectId,kiCAD_TriSchmittPanelMount_v003.1,6b694341-445f-4547-9269-5363686d6974,rev?*%
%TF.SameCoordinates,Original*%
%TF.FileFunction,Legend,Top*%
%TF.FilePolarity,Positive*%
%FSLAX46Y46*%
G04 Gerber Fmt 4.6, Leading zero omitted, Abs format (unit mm)*
G04 Created by KiCad (PCBNEW 5.1.12-1.fc35) date 2021-11-27 14:34:01*
%MOMM*%
%LPD*%
G01*
G04 APERTURE LIST*
%ADD10C,0.100000*%
%ADD11C,0.120000*%
%ADD12C,0.150000*%
G04 APERTURE END LIST*
D10*
X192800000Y-71128571D02*
X192942857Y-71176190D01*
X192990476Y-71223809D01*
X193038095Y-71319047D01*
X193038095Y-71461904D01*
X192990476Y-71557142D01*
X192942857Y-71604761D01*
X192847619Y-71652380D01*
X192466667Y-71652380D01*
X192466667Y-70652380D01*
X192800000Y-70652380D01*
X192895238Y-70700000D01*
X192942857Y-70747619D01*
X192990476Y-70842857D01*
X192990476Y-70938095D01*
X192942857Y-71033333D01*
X192895238Y-71080952D01*
X192800000Y-71128571D01*
X192466667Y-71128571D01*
X193038095Y-74157142D02*
X192990476Y-74204761D01*
X192847619Y-74252380D01*
X192752381Y-74252380D01*
X192609524Y-74204761D01*
X192514286Y-74109523D01*
X192466667Y-74014285D01*
X192419048Y-73823809D01*
X192419048Y-73680952D01*
X192466667Y-73490476D01*
X192514286Y-73395238D01*
X192609524Y-73300000D01*
X192752381Y-73252380D01*
X192847619Y-73252380D01*
X192990476Y-73300000D01*
X193038095Y-73347619D01*
X192561904Y-76366666D02*
X193038095Y-76366666D01*
X192466666Y-76652380D02*
X192800000Y-75652380D01*
X193133333Y-76652380D01*
X193128571Y-80850000D02*
X193042857Y-80807142D01*
X192914285Y-80807142D01*
X192785714Y-80850000D01*
X192700000Y-80935714D01*
X192657142Y-81021428D01*
X192614285Y-81192857D01*
X192614285Y-81321428D01*
X192657142Y-81492857D01*
X192700000Y-81578571D01*
X192785714Y-81664285D01*
X192914285Y-81707142D01*
X193000000Y-81707142D01*
X193128571Y-81664285D01*
X193171428Y-81621428D01*
X193171428Y-81321428D01*
X193000000Y-81321428D01*
X193557142Y-81707142D02*
X193557142Y-81107142D01*
X193557142Y-81278571D02*
X193600000Y-81192857D01*
X193642857Y-81150000D01*
X193728571Y-81107142D01*
X193814285Y-81107142D01*
X194500000Y-81707142D02*
X194500000Y-81235714D01*
X194457142Y-81150000D01*
X194371428Y-81107142D01*
X194200000Y-81107142D01*
X194114285Y-81150000D01*
X194500000Y-81664285D02*
X194414285Y-81707142D01*
X194200000Y-81707142D01*
X194114285Y-81664285D01*
X194071428Y-81578571D01*
X194071428Y-81492857D01*
X194114285Y-81407142D01*
X194200000Y-81364285D01*
X194414285Y-81364285D01*
X194500000Y-81321428D01*
X194928571Y-81707142D02*
X194928571Y-80807142D01*
X195314285Y-81707142D02*
X195314285Y-81235714D01*
X195271428Y-81150000D01*
X195185714Y-81107142D01*
X195057142Y-81107142D01*
X194971428Y-81150000D01*
X194928571Y-81192857D01*
X196128571Y-81707142D02*
X196128571Y-81235714D01*
X196085714Y-81150000D01*
X196000000Y-81107142D01*
X195828571Y-81107142D01*
X195742857Y-81150000D01*
X196128571Y-81664285D02*
X196042857Y-81707142D01*
X195828571Y-81707142D01*
X195742857Y-81664285D01*
X195700000Y-81578571D01*
X195700000Y-81492857D01*
X195742857Y-81407142D01*
X195828571Y-81364285D01*
X196042857Y-81364285D01*
X196128571Y-81321428D01*
X196557142Y-81707142D02*
X196557142Y-81107142D01*
X196557142Y-81192857D02*
X196600000Y-81150000D01*
X196685714Y-81107142D01*
X196814285Y-81107142D01*
X196900000Y-81150000D01*
X196942857Y-81235714D01*
X196942857Y-81707142D01*
X196942857Y-81235714D02*
X196985714Y-81150000D01*
X197071428Y-81107142D01*
X197200000Y-81107142D01*
X197285714Y-81150000D01*
X197328571Y-81235714D01*
X197328571Y-81707142D01*
X197757142Y-81364285D02*
X198442857Y-81364285D01*
X199385714Y-81707142D02*
X199085714Y-81278571D01*
X198871428Y-81707142D02*
X198871428Y-80807142D01*
X199214285Y-80807142D01*
X199300000Y-80850000D01*
X199342857Y-80892857D01*
X199385714Y-80978571D01*
X199385714Y-81107142D01*
X199342857Y-81192857D01*
X199300000Y-81235714D01*
X199214285Y-81278571D01*
X198871428Y-81278571D01*
X209818809Y-76828571D02*
X209818809Y-76733333D01*
X209866429Y-76638095D01*
X209914048Y-76590476D01*
X210009286Y-76542857D01*
X210199762Y-76495238D01*
X210437857Y-76495238D01*
X210628333Y-76542857D01*
X210723571Y-76590476D01*
X210771190Y-76638095D01*
X210818809Y-76733333D01*
X210818809Y-76828571D01*
X210771190Y-76923809D01*
X210723571Y-76971428D01*
X210628333Y-77019047D01*
X210437857Y-77066666D01*
X210199762Y-77066666D01*
X210009286Y-77019047D01*
X209914048Y-76971428D01*
X209866429Y-76923809D01*
X209818809Y-76828571D01*
X210152143Y-76161904D02*
X210818809Y-75923809D01*
X210152143Y-75685714D01*
X209966666Y-78352380D02*
X210300000Y-79352380D01*
X210633333Y-78352380D01*
X210771190Y-74609523D02*
X210818809Y-74466666D01*
X210818809Y-74228571D01*
X210771190Y-74133333D01*
X210723571Y-74085714D01*
X210628333Y-74038095D01*
X210533095Y-74038095D01*
X210437857Y-74085714D01*
X210390238Y-74133333D01*
X210342619Y-74228571D01*
X210295000Y-74419047D01*
X210247381Y-74514285D01*
X210199762Y-74561904D01*
X210104524Y-74609523D01*
X210009286Y-74609523D01*
X209914048Y-74561904D01*
X209866429Y-74514285D01*
X209818809Y-74419047D01*
X209818809Y-74180952D01*
X209866429Y-74038095D01*
X210152143Y-73704761D02*
X210818809Y-73514285D01*
X210342619Y-73323809D01*
X210818809Y-73133333D01*
X210152143Y-72942857D01*
X210442857Y-71228571D02*
X210585714Y-71276190D01*
X210633333Y-71323809D01*
X210680952Y-71419047D01*
X210680952Y-71561904D01*
X210633333Y-71657142D01*
X210585714Y-71704761D01*
X210490476Y-71752380D01*
X210109524Y-71752380D01*
X210109524Y-70752380D01*
X210442857Y-70752380D01*
X210538095Y-70800000D01*
X210585714Y-70847619D01*
X210633333Y-70942857D01*
X210633333Y-71038095D01*
X210585714Y-71133333D01*
X210538095Y-71180952D01*
X210442857Y-71228571D01*
X210109524Y-71228571D01*
X210061904Y-68866666D02*
X210538095Y-68866666D01*
X209966666Y-69152380D02*
X210300000Y-68152380D01*
X210633333Y-69152380D01*
X204035714Y-78385714D02*
X204335714Y-78385714D01*
X204464285Y-78857142D02*
X204035714Y-78857142D01*
X204035714Y-77957142D01*
X204464285Y-77957142D01*
X204850000Y-78257142D02*
X204850000Y-78857142D01*
X204850000Y-78342857D02*
X204892857Y-78300000D01*
X204978571Y-78257142D01*
X205107142Y-78257142D01*
X205192857Y-78300000D01*
X205235714Y-78385714D01*
X205235714Y-78857142D01*
X206050000Y-78814285D02*
X205964285Y-78857142D01*
X205792857Y-78857142D01*
X205707142Y-78814285D01*
X205664285Y-78771428D01*
X205621428Y-78685714D01*
X205621428Y-78428571D01*
X205664285Y-78342857D01*
X205707142Y-78300000D01*
X205792857Y-78257142D01*
X205964285Y-78257142D01*
X206050000Y-78300000D01*
X206564285Y-78857142D02*
X206478571Y-78814285D01*
X206435714Y-78771428D01*
X206392857Y-78685714D01*
X206392857Y-78428571D01*
X206435714Y-78342857D01*
X206478571Y-78300000D01*
X206564285Y-78257142D01*
X206692857Y-78257142D01*
X206778571Y-78300000D01*
X206821428Y-78342857D01*
X206864285Y-78428571D01*
X206864285Y-78685714D01*
X206821428Y-78771428D01*
X206778571Y-78814285D01*
X206692857Y-78857142D01*
X206564285Y-78857142D01*
X207635714Y-78857142D02*
X207635714Y-77957142D01*
X207635714Y-78814285D02*
X207550000Y-78857142D01*
X207378571Y-78857142D01*
X207292857Y-78814285D01*
X207250000Y-78771428D01*
X207207142Y-78685714D01*
X207207142Y-78428571D01*
X207250000Y-78342857D01*
X207292857Y-78300000D01*
X207378571Y-78257142D01*
X207550000Y-78257142D01*
X207635714Y-78300000D01*
X208407142Y-78814285D02*
X208321428Y-78857142D01*
X208150000Y-78857142D01*
X208064285Y-78814285D01*
X208021428Y-78728571D01*
X208021428Y-78385714D01*
X208064285Y-78300000D01*
X208150000Y-78257142D01*
X208321428Y-78257142D01*
X208407142Y-78300000D01*
X208450000Y-78385714D01*
X208450000Y-78471428D01*
X208021428Y-78557142D01*
X208835714Y-78857142D02*
X208835714Y-78257142D01*
X208835714Y-78428571D02*
X208878571Y-78342857D01*
X208921428Y-78300000D01*
X209007142Y-78257142D01*
X209092857Y-78257142D01*
X204121428Y-80264285D02*
X204250000Y-80307142D01*
X204464285Y-80307142D01*
X204550000Y-80264285D01*
X204592857Y-80221428D01*
X204635714Y-80135714D01*
X204635714Y-80050000D01*
X204592857Y-79964285D01*
X204550000Y-79921428D01*
X204464285Y-79878571D01*
X204292857Y-79835714D01*
X204207142Y-79792857D01*
X204164285Y-79750000D01*
X204121428Y-79664285D01*
X204121428Y-79578571D01*
X204164285Y-79492857D01*
X204207142Y-79450000D01*
X204292857Y-79407142D01*
X204507142Y-79407142D01*
X204635714Y-79450000D01*
X205407142Y-80264285D02*
X205321428Y-80307142D01*
X205150000Y-80307142D01*
X205064285Y-80264285D01*
X205021428Y-80221428D01*
X204978571Y-80135714D01*
X204978571Y-79878571D01*
X205021428Y-79792857D01*
X205064285Y-79750000D01*
X205150000Y-79707142D01*
X205321428Y-79707142D01*
X205407142Y-79750000D01*
X205792857Y-80307142D02*
X205792857Y-79407142D01*
X206178571Y-80307142D02*
X206178571Y-79835714D01*
X206135714Y-79750000D01*
X206050000Y-79707142D01*
X205921428Y-79707142D01*
X205835714Y-79750000D01*
X205792857Y-79792857D01*
X206607142Y-80307142D02*
X206607142Y-79707142D01*
X206607142Y-79792857D02*
X206650000Y-79750000D01*
X206735714Y-79707142D01*
X206864285Y-79707142D01*
X206950000Y-79750000D01*
X206992857Y-79835714D01*
X206992857Y-80307142D01*
X206992857Y-79835714D02*
X207035714Y-79750000D01*
X207121428Y-79707142D01*
X207250000Y-79707142D01*
X207335714Y-79750000D01*
X207378571Y-79835714D01*
X207378571Y-80307142D01*
X207807142Y-80307142D02*
X207807142Y-79707142D01*
X207807142Y-79407142D02*
X207764285Y-79450000D01*
X207807142Y-79492857D01*
X207850000Y-79450000D01*
X207807142Y-79407142D01*
X207807142Y-79492857D01*
X208107142Y-79707142D02*
X208450000Y-79707142D01*
X208235714Y-79407142D02*
X208235714Y-80178571D01*
X208278571Y-80264285D01*
X208364285Y-80307142D01*
X208450000Y-80307142D01*
X208621428Y-79707142D02*
X208964285Y-79707142D01*
X208750000Y-79407142D02*
X208750000Y-80178571D01*
X208792857Y-80264285D01*
X208878571Y-80307142D01*
X208964285Y-80307142D01*
X200950000Y-80857142D02*
X201464285Y-80857142D01*
X201207142Y-81757142D02*
X201207142Y-80857142D01*
X201764285Y-81757142D02*
X201764285Y-81157142D01*
X201764285Y-81328571D02*
X201807142Y-81242857D01*
X201850000Y-81200000D01*
X201935714Y-81157142D01*
X202021428Y-81157142D01*
X202321428Y-81757142D02*
X202321428Y-81157142D01*
X202321428Y-80857142D02*
X202278571Y-80900000D01*
X202321428Y-80942857D01*
X202364285Y-80900000D01*
X202321428Y-80857142D01*
X202321428Y-80942857D01*
X203135714Y-81157142D02*
X203135714Y-81885714D01*
X203092857Y-81971428D01*
X203050000Y-82014285D01*
X202964285Y-82057142D01*
X202835714Y-82057142D01*
X202750000Y-82014285D01*
X203135714Y-81714285D02*
X203050000Y-81757142D01*
X202878571Y-81757142D01*
X202792857Y-81714285D01*
X202750000Y-81671428D01*
X202707142Y-81585714D01*
X202707142Y-81328571D01*
X202750000Y-81242857D01*
X202792857Y-81200000D01*
X202878571Y-81157142D01*
X203050000Y-81157142D01*
X203135714Y-81200000D01*
X203950000Y-81157142D02*
X203950000Y-81885714D01*
X203907142Y-81971428D01*
X203864285Y-82014285D01*
X203778571Y-82057142D01*
X203650000Y-82057142D01*
X203564285Y-82014285D01*
X203950000Y-81714285D02*
X203864285Y-81757142D01*
X203692857Y-81757142D01*
X203607142Y-81714285D01*
X203564285Y-81671428D01*
X203521428Y-81585714D01*
X203521428Y-81328571D01*
X203564285Y-81242857D01*
X203607142Y-81200000D01*
X203692857Y-81157142D01*
X203864285Y-81157142D01*
X203950000Y-81200000D01*
X204721428Y-81714285D02*
X204635714Y-81757142D01*
X204464285Y-81757142D01*
X204378571Y-81714285D01*
X204335714Y-81628571D01*
X204335714Y-81285714D01*
X204378571Y-81200000D01*
X204464285Y-81157142D01*
X204635714Y-81157142D01*
X204721428Y-81200000D01*
X204764285Y-81285714D01*
X204764285Y-81371428D01*
X204335714Y-81457142D01*
X205150000Y-81757142D02*
X205150000Y-81157142D01*
X205150000Y-81328571D02*
X205192857Y-81242857D01*
X205235714Y-81200000D01*
X205321428Y-81157142D01*
X205407142Y-81157142D01*
X206307142Y-81157142D02*
X206521428Y-81757142D01*
X206735714Y-81157142D01*
X206992857Y-80857142D02*
X207550000Y-80857142D01*
X207250000Y-81200000D01*
X207378571Y-81200000D01*
X207464285Y-81242857D01*
X207507142Y-81285714D01*
X207550000Y-81371428D01*
X207550000Y-81585714D01*
X207507142Y-81671428D01*
X207464285Y-81714285D01*
X207378571Y-81757142D01*
X207121428Y-81757142D01*
X207035714Y-81714285D01*
X206992857Y-81671428D01*
X207935714Y-81671428D02*
X207978571Y-81714285D01*
X207935714Y-81757142D01*
X207892857Y-81714285D01*
X207935714Y-81671428D01*
X207935714Y-81757142D01*
X208835714Y-81757142D02*
X208321428Y-81757142D01*
X208578571Y-81757142D02*
X208578571Y-80857142D01*
X208492857Y-80985714D01*
X208407142Y-81071428D01*
X208321428Y-81114285D01*
X209478571Y-82100000D02*
X209435714Y-82057142D01*
X209350000Y-81928571D01*
X209307142Y-81842857D01*
X209264285Y-81714285D01*
X209221428Y-81500000D01*
X209221428Y-81328571D01*
X209264285Y-81114285D01*
X209307142Y-80985714D01*
X209350000Y-80900000D01*
X209435714Y-80771428D01*
X209478571Y-80728571D01*
X209821428Y-81757142D02*
X209821428Y-80857142D01*
X210164285Y-80857142D01*
X210250000Y-80900000D01*
X210292857Y-80942857D01*
X210335714Y-81028571D01*
X210335714Y-81157142D01*
X210292857Y-81242857D01*
X210250000Y-81285714D01*
X210164285Y-81328571D01*
X209821428Y-81328571D01*
X210721428Y-81757142D02*
X210721428Y-80857142D01*
X211021428Y-81500000D01*
X211321428Y-80857142D01*
X211321428Y-81757142D01*
X211664285Y-82100000D02*
X211707142Y-82057142D01*
X211792857Y-81928571D01*
X211835714Y-81842857D01*
X211878571Y-81714285D01*
X211921428Y-81500000D01*
X211921428Y-81328571D01*
X211878571Y-81114285D01*
X211835714Y-80985714D01*
X211792857Y-80900000D01*
X211707142Y-80771428D01*
X211664285Y-80728571D01*
D11*
%TO.C,R7*%
X201337258Y-77422500D02*
X200862742Y-77422500D01*
X201337258Y-76377500D02*
X200862742Y-76377500D01*
%TO.C,D4*%
X198100000Y-78565000D02*
X195640000Y-78565000D01*
X195640000Y-78565000D02*
X195640000Y-80035000D01*
X195640000Y-80035000D02*
X198100000Y-80035000D01*
%TO.C,J1*%
X216830000Y-67240000D02*
X210810000Y-67240000D01*
X210810000Y-67240000D02*
X210810000Y-80160000D01*
X210810000Y-80160000D02*
X216830000Y-80160000D01*
X216830000Y-80160000D02*
X216830000Y-67240000D01*
X215800000Y-66950000D02*
X211800000Y-66950000D01*
X210810000Y-68620000D02*
X211810000Y-68620000D01*
X211810000Y-68620000D02*
X211810000Y-78780000D01*
X211810000Y-78780000D02*
X210810000Y-78780000D01*
X211810000Y-68620000D02*
X212340000Y-68870000D01*
X212340000Y-68870000D02*
X212340000Y-78530000D01*
X212340000Y-78530000D02*
X211810000Y-78780000D01*
X210810000Y-68870000D02*
X211810000Y-68870000D01*
X210810000Y-78530000D02*
X211810000Y-78530000D01*
X216830000Y-67820000D02*
X216230000Y-67820000D01*
X216230000Y-67820000D02*
X216230000Y-69420000D01*
X216230000Y-69420000D02*
X216830000Y-69420000D01*
X216830000Y-70360000D02*
X216230000Y-70360000D01*
X216230000Y-70360000D02*
X216230000Y-71960000D01*
X216230000Y-71960000D02*
X216830000Y-71960000D01*
X216830000Y-72900000D02*
X216230000Y-72900000D01*
X216230000Y-72900000D02*
X216230000Y-74500000D01*
X216230000Y-74500000D02*
X216830000Y-74500000D01*
X216830000Y-75440000D02*
X216230000Y-75440000D01*
X216230000Y-75440000D02*
X216230000Y-77040000D01*
X216230000Y-77040000D02*
X216830000Y-77040000D01*
X216830000Y-77980000D02*
X216230000Y-77980000D01*
X216230000Y-77980000D02*
X216230000Y-79580000D01*
X216230000Y-79580000D02*
X216830000Y-79580000D01*
%TO.C,U1*%
X204050000Y-75800000D02*
X204050000Y-72800000D01*
X207050000Y-75800000D02*
X207050000Y-71800000D01*
%TO.C,R6*%
X205295276Y-69372500D02*
X205804724Y-69372500D01*
X205295276Y-68327500D02*
X205804724Y-68327500D01*
%TO.C,R5*%
X208512742Y-67822500D02*
X208987258Y-67822500D01*
X208512742Y-66777500D02*
X208987258Y-66777500D01*
%TO.C,R4*%
X197496092Y-71077500D02*
X197021576Y-71077500D01*
X197496092Y-72122500D02*
X197021576Y-72122500D01*
%TO.C,R3*%
X197021576Y-69022500D02*
X197496092Y-69022500D01*
X197021576Y-67977500D02*
X197496092Y-67977500D01*
%TO.C,R2*%
X197496092Y-76795834D02*
X197021576Y-76795834D01*
X197496092Y-75750834D02*
X197021576Y-75750834D01*
%TO.C,R1*%
X197021576Y-74214168D02*
X197496092Y-74214168D01*
X197021576Y-75259168D02*
X197496092Y-75259168D01*
%TO.C,D3*%
X203890000Y-68035000D02*
X206350000Y-68035000D01*
X203890000Y-66565000D02*
X203890000Y-68035000D01*
X206350000Y-66565000D02*
X203890000Y-66565000D01*
%TO.C,D2*%
X198723834Y-69315000D02*
X196438834Y-69315000D01*
X198723834Y-70785000D02*
X198723834Y-69315000D01*
X196438834Y-70785000D02*
X198723834Y-70785000D01*
%TO.C,D1*%
X196438834Y-78485000D02*
X198923834Y-78485000D01*
X198923834Y-78485000D02*
X198923834Y-77115000D01*
X198923834Y-77115000D02*
X196438834Y-77115000D01*
%TO.C,C3*%
X205403733Y-70910000D02*
X205696267Y-70910000D01*
X205403733Y-69890000D02*
X205696267Y-69890000D01*
%TO.C,C2*%
X200646267Y-71090000D02*
X200353733Y-71090000D01*
X200646267Y-72110000D02*
X200353733Y-72110000D01*
%TO.C,C1*%
X197112567Y-72690000D02*
X197405101Y-72690000D01*
X197112567Y-73710000D02*
X197405101Y-73710000D01*
%TO.C,R7*%
D12*
X200152380Y-78496666D02*
X199676190Y-78830000D01*
X200152380Y-79068095D02*
X199152380Y-79068095D01*
X199152380Y-78687142D01*
X199200000Y-78591904D01*
X199247619Y-78544285D01*
X199342857Y-78496666D01*
X199485714Y-78496666D01*
X199580952Y-78544285D01*
X199628571Y-78591904D01*
X199676190Y-78687142D01*
X199676190Y-79068095D01*
X199152380Y-78163333D02*
X199152380Y-77496666D01*
X200152380Y-77925238D01*
%TO.C,D4*%
X193961904Y-79852380D02*
X193961904Y-78852380D01*
X194200000Y-78852380D01*
X194342857Y-78900000D01*
X194438095Y-78995238D01*
X194485714Y-79090476D01*
X194533333Y-79280952D01*
X194533333Y-79423809D01*
X194485714Y-79614285D01*
X194438095Y-79709523D01*
X194342857Y-79804761D01*
X194200000Y-79852380D01*
X193961904Y-79852380D01*
X195390476Y-79185714D02*
X195390476Y-79852380D01*
X195152380Y-78804761D02*
X194914285Y-79519047D01*
X195533333Y-79519047D01*
%TO.C,U1*%
X207338095Y-73452380D02*
X207338095Y-74261904D01*
X207385714Y-74357142D01*
X207433333Y-74404761D01*
X207528571Y-74452380D01*
X207719047Y-74452380D01*
X207814285Y-74404761D01*
X207861904Y-74357142D01*
X207909523Y-74261904D01*
X207909523Y-73452380D01*
X208909523Y-74452380D02*
X208338095Y-74452380D01*
X208623809Y-74452380D02*
X208623809Y-73452380D01*
X208528571Y-73595238D01*
X208433333Y-73690476D01*
X208338095Y-73738095D01*
%TO.C,R6*%
X208033333Y-69352380D02*
X207700000Y-68876190D01*
X207461904Y-69352380D02*
X207461904Y-68352380D01*
X207842857Y-68352380D01*
X207938095Y-68400000D01*
X207985714Y-68447619D01*
X208033333Y-68542857D01*
X208033333Y-68685714D01*
X207985714Y-68780952D01*
X207938095Y-68828571D01*
X207842857Y-68876190D01*
X207461904Y-68876190D01*
X208890476Y-68352380D02*
X208700000Y-68352380D01*
X208604761Y-68400000D01*
X208557142Y-68447619D01*
X208461904Y-68590476D01*
X208414285Y-68780952D01*
X208414285Y-69161904D01*
X208461904Y-69257142D01*
X208509523Y-69304761D01*
X208604761Y-69352380D01*
X208795238Y-69352380D01*
X208890476Y-69304761D01*
X208938095Y-69257142D01*
X208985714Y-69161904D01*
X208985714Y-68923809D01*
X208938095Y-68828571D01*
X208890476Y-68780952D01*
X208795238Y-68733333D01*
X208604761Y-68733333D01*
X208509523Y-68780952D01*
X208461904Y-68828571D01*
X208414285Y-68923809D01*
%TO.C,R5*%
X208583333Y-66322380D02*
X208250000Y-65846190D01*
X208011904Y-66322380D02*
X208011904Y-65322380D01*
X208392857Y-65322380D01*
X208488095Y-65370000D01*
X208535714Y-65417619D01*
X208583333Y-65512857D01*
X208583333Y-65655714D01*
X208535714Y-65750952D01*
X208488095Y-65798571D01*
X208392857Y-65846190D01*
X208011904Y-65846190D01*
X209488095Y-65322380D02*
X209011904Y-65322380D01*
X208964285Y-65798571D01*
X209011904Y-65750952D01*
X209107142Y-65703333D01*
X209345238Y-65703333D01*
X209440476Y-65750952D01*
X209488095Y-65798571D01*
X209535714Y-65893809D01*
X209535714Y-66131904D01*
X209488095Y-66227142D01*
X209440476Y-66274761D01*
X209345238Y-66322380D01*
X209107142Y-66322380D01*
X209011904Y-66274761D01*
X208964285Y-66227142D01*
%TO.C,R4*%
X199633333Y-70752380D02*
X199300000Y-70276190D01*
X199061904Y-70752380D02*
X199061904Y-69752380D01*
X199442857Y-69752380D01*
X199538095Y-69800000D01*
X199585714Y-69847619D01*
X199633333Y-69942857D01*
X199633333Y-70085714D01*
X199585714Y-70180952D01*
X199538095Y-70228571D01*
X199442857Y-70276190D01*
X199061904Y-70276190D01*
X200490476Y-70085714D02*
X200490476Y-70752380D01*
X200252380Y-69704761D02*
X200014285Y-70419047D01*
X200633333Y-70419047D01*
%TO.C,R3*%
X196333333Y-67552380D02*
X196000000Y-67076190D01*
X195761904Y-67552380D02*
X195761904Y-66552380D01*
X196142857Y-66552380D01*
X196238095Y-66600000D01*
X196285714Y-66647619D01*
X196333333Y-66742857D01*
X196333333Y-66885714D01*
X196285714Y-66980952D01*
X196238095Y-67028571D01*
X196142857Y-67076190D01*
X195761904Y-67076190D01*
X196666666Y-66552380D02*
X197285714Y-66552380D01*
X196952380Y-66933333D01*
X197095238Y-66933333D01*
X197190476Y-66980952D01*
X197238095Y-67028571D01*
X197285714Y-67123809D01*
X197285714Y-67361904D01*
X197238095Y-67457142D01*
X197190476Y-67504761D01*
X197095238Y-67552380D01*
X196809523Y-67552380D01*
X196714285Y-67504761D01*
X196666666Y-67457142D01*
%TO.C,R2*%
X199533333Y-76652380D02*
X199200000Y-76176190D01*
X198961904Y-76652380D02*
X198961904Y-75652380D01*
X199342857Y-75652380D01*
X199438095Y-75700000D01*
X199485714Y-75747619D01*
X199533333Y-75842857D01*
X199533333Y-75985714D01*
X199485714Y-76080952D01*
X199438095Y-76128571D01*
X199342857Y-76176190D01*
X198961904Y-76176190D01*
X199914285Y-75747619D02*
X199961904Y-75700000D01*
X200057142Y-75652380D01*
X200295238Y-75652380D01*
X200390476Y-75700000D01*
X200438095Y-75747619D01*
X200485714Y-75842857D01*
X200485714Y-75938095D01*
X200438095Y-76080952D01*
X199866666Y-76652380D01*
X200485714Y-76652380D01*
%TO.C,R1*%
X200333333Y-75152380D02*
X200000000Y-74676190D01*
X199761904Y-75152380D02*
X199761904Y-74152380D01*
X200142857Y-74152380D01*
X200238095Y-74200000D01*
X200285714Y-74247619D01*
X200333333Y-74342857D01*
X200333333Y-74485714D01*
X200285714Y-74580952D01*
X200238095Y-74628571D01*
X200142857Y-74676190D01*
X199761904Y-74676190D01*
X201285714Y-75152380D02*
X200714285Y-75152380D01*
X201000000Y-75152380D02*
X201000000Y-74152380D01*
X200904761Y-74295238D01*
X200809523Y-74390476D01*
X200714285Y-74438095D01*
%TO.C,D3*%
X204811904Y-66322380D02*
X204811904Y-65322380D01*
X205050000Y-65322380D01*
X205192857Y-65370000D01*
X205288095Y-65465238D01*
X205335714Y-65560476D01*
X205383333Y-65750952D01*
X205383333Y-65893809D01*
X205335714Y-66084285D01*
X205288095Y-66179523D01*
X205192857Y-66274761D01*
X205050000Y-66322380D01*
X204811904Y-66322380D01*
X205716666Y-65322380D02*
X206335714Y-65322380D01*
X206002380Y-65703333D01*
X206145238Y-65703333D01*
X206240476Y-65750952D01*
X206288095Y-65798571D01*
X206335714Y-65893809D01*
X206335714Y-66131904D01*
X206288095Y-66227142D01*
X206240476Y-66274761D01*
X206145238Y-66322380D01*
X205859523Y-66322380D01*
X205764285Y-66274761D01*
X205716666Y-66227142D01*
%TO.C,D2*%
X194061904Y-70052380D02*
X194061904Y-69052380D01*
X194300000Y-69052380D01*
X194442857Y-69100000D01*
X194538095Y-69195238D01*
X194585714Y-69290476D01*
X194633333Y-69480952D01*
X194633333Y-69623809D01*
X194585714Y-69814285D01*
X194538095Y-69909523D01*
X194442857Y-70004761D01*
X194300000Y-70052380D01*
X194061904Y-70052380D01*
X195014285Y-69147619D02*
X195061904Y-69100000D01*
X195157142Y-69052380D01*
X195395238Y-69052380D01*
X195490476Y-69100000D01*
X195538095Y-69147619D01*
X195585714Y-69242857D01*
X195585714Y-69338095D01*
X195538095Y-69480952D01*
X194966666Y-70052380D01*
X195585714Y-70052380D01*
%TO.C,D1*%
X193961904Y-78552380D02*
X193961904Y-77552380D01*
X194200000Y-77552380D01*
X194342857Y-77600000D01*
X194438095Y-77695238D01*
X194485714Y-77790476D01*
X194533333Y-77980952D01*
X194533333Y-78123809D01*
X194485714Y-78314285D01*
X194438095Y-78409523D01*
X194342857Y-78504761D01*
X194200000Y-78552380D01*
X193961904Y-78552380D01*
X195485714Y-78552380D02*
X194914285Y-78552380D01*
X195200000Y-78552380D02*
X195200000Y-77552380D01*
X195104761Y-77695238D01*
X195009523Y-77790476D01*
X194914285Y-77838095D01*
%TO.C,C3*%
X202833333Y-70657142D02*
X202785714Y-70704761D01*
X202642857Y-70752380D01*
X202547619Y-70752380D01*
X202404761Y-70704761D01*
X202309523Y-70609523D01*
X202261904Y-70514285D01*
X202214285Y-70323809D01*
X202214285Y-70180952D01*
X202261904Y-69990476D01*
X202309523Y-69895238D01*
X202404761Y-69800000D01*
X202547619Y-69752380D01*
X202642857Y-69752380D01*
X202785714Y-69800000D01*
X202833333Y-69847619D01*
X203166666Y-69752380D02*
X203785714Y-69752380D01*
X203452380Y-70133333D01*
X203595238Y-70133333D01*
X203690476Y-70180952D01*
X203738095Y-70228571D01*
X203785714Y-70323809D01*
X203785714Y-70561904D01*
X203738095Y-70657142D01*
X203690476Y-70704761D01*
X203595238Y-70752380D01*
X203309523Y-70752380D01*
X203214285Y-70704761D01*
X203166666Y-70657142D01*
%TO.C,C2*%
X203357142Y-71866666D02*
X203404761Y-71914285D01*
X203452380Y-72057142D01*
X203452380Y-72152380D01*
X203404761Y-72295238D01*
X203309523Y-72390476D01*
X203214285Y-72438095D01*
X203023809Y-72485714D01*
X202880952Y-72485714D01*
X202690476Y-72438095D01*
X202595238Y-72390476D01*
X202500000Y-72295238D01*
X202452380Y-72152380D01*
X202452380Y-72057142D01*
X202500000Y-71914285D01*
X202547619Y-71866666D01*
X202547619Y-71485714D02*
X202500000Y-71438095D01*
X202452380Y-71342857D01*
X202452380Y-71104761D01*
X202500000Y-71009523D01*
X202547619Y-70961904D01*
X202642857Y-70914285D01*
X202738095Y-70914285D01*
X202880952Y-70961904D01*
X203452380Y-71533333D01*
X203452380Y-70914285D01*
%TO.C,C1*%
X199733333Y-73557142D02*
X199685714Y-73604761D01*
X199542857Y-73652380D01*
X199447619Y-73652380D01*
X199304761Y-73604761D01*
X199209523Y-73509523D01*
X199161904Y-73414285D01*
X199114285Y-73223809D01*
X199114285Y-73080952D01*
X199161904Y-72890476D01*
X199209523Y-72795238D01*
X199304761Y-72700000D01*
X199447619Y-72652380D01*
X199542857Y-72652380D01*
X199685714Y-72700000D01*
X199733333Y-72747619D01*
X200685714Y-73652380D02*
X200114285Y-73652380D01*
X200400000Y-73652380D02*
X200400000Y-72652380D01*
X200304761Y-72795238D01*
X200209523Y-72890476D01*
X200114285Y-72938095D01*
%TD*%
M02*
