%TF.GenerationSoftware,KiCad,Pcbnew,5.1.12-1.fc35*%
%TF.CreationDate,2021-11-27T14:31:25+00:00*%
%TF.ProjectId,kiCAD_TriSchmittHoleMount_v003.1,6b694341-445f-4547-9269-5363686d6974,rev?*%
%TF.SameCoordinates,Original*%
%TF.FileFunction,Legend,Bot*%
%TF.FilePolarity,Positive*%
%FSLAX46Y46*%
G04 Gerber Fmt 4.6, Leading zero omitted, Abs format (unit mm)*
G04 Created by KiCad (PCBNEW 5.1.12-1.fc35) date 2021-11-27 14:31:25*
%MOMM*%
%LPD*%
G01*
G04 APERTURE LIST*
%ADD10C,0.100000*%
%ADD11C,0.120000*%
G04 APERTURE END LIST*
D10*
X191790476Y-74557142D02*
X191838095Y-74604761D01*
X191980952Y-74652380D01*
X192076190Y-74652380D01*
X192219047Y-74604761D01*
X192314285Y-74509523D01*
X192361904Y-74414285D01*
X192409523Y-74223809D01*
X192409523Y-74080952D01*
X192361904Y-73890476D01*
X192314285Y-73795238D01*
X192219047Y-73700000D01*
X192076190Y-73652380D01*
X191980952Y-73652380D01*
X191838095Y-73700000D01*
X191790476Y-73747619D01*
X192028571Y-71628571D02*
X191885714Y-71676190D01*
X191838095Y-71723809D01*
X191790476Y-71819047D01*
X191790476Y-71961904D01*
X191838095Y-72057142D01*
X191885714Y-72104761D01*
X191980952Y-72152380D01*
X192361904Y-72152380D01*
X192361904Y-71152380D01*
X192028571Y-71152380D01*
X191933333Y-71200000D01*
X191885714Y-71247619D01*
X191838095Y-71342857D01*
X191838095Y-71438095D01*
X191885714Y-71533333D01*
X191933333Y-71580952D01*
X192028571Y-71628571D01*
X192361904Y-71628571D01*
X217547619Y-78552380D02*
X217214285Y-79552380D01*
X216880952Y-78552380D01*
X216119047Y-79504761D02*
X216214285Y-79552380D01*
X216404762Y-79552380D01*
X216500000Y-79504761D01*
X216547619Y-79457142D01*
X216595238Y-79361904D01*
X216595238Y-79076190D01*
X216547619Y-78980952D01*
X216500000Y-78933333D01*
X216404762Y-78885714D01*
X216214285Y-78885714D01*
X216119047Y-78933333D01*
X215261904Y-79504761D02*
X215357143Y-79552380D01*
X215547619Y-79552380D01*
X215642857Y-79504761D01*
X215690476Y-79457142D01*
X215738095Y-79361904D01*
X215738095Y-79076190D01*
X215690476Y-78980952D01*
X215642857Y-78933333D01*
X215547619Y-78885714D01*
X215357143Y-78885714D01*
X215261904Y-78933333D01*
X216357143Y-76052380D02*
X216261905Y-76052380D01*
X216166667Y-76100000D01*
X216119048Y-76147619D01*
X216071429Y-76242857D01*
X216023810Y-76433333D01*
X216023810Y-76671428D01*
X216071429Y-76861904D01*
X216119048Y-76957142D01*
X216166667Y-77004761D01*
X216261905Y-77052380D01*
X216357143Y-77052380D01*
X216452381Y-77004761D01*
X216500000Y-76957142D01*
X216547619Y-76861904D01*
X216595238Y-76671428D01*
X216595238Y-76433333D01*
X216547619Y-76242857D01*
X216500000Y-76147619D01*
X216452381Y-76100000D01*
X216357143Y-76052380D01*
X215690476Y-76385714D02*
X215452381Y-77052380D01*
X215214286Y-76385714D01*
X215500000Y-71428571D02*
X215357143Y-71476190D01*
X215309524Y-71523809D01*
X215261905Y-71619047D01*
X215261905Y-71761904D01*
X215309524Y-71857142D01*
X215357143Y-71904761D01*
X215452381Y-71952380D01*
X215833333Y-71952380D01*
X215833333Y-70952380D01*
X215500000Y-70952380D01*
X215404762Y-71000000D01*
X215357143Y-71047619D01*
X215309524Y-71142857D01*
X215309524Y-71238095D01*
X215357143Y-71333333D01*
X215404762Y-71380952D01*
X215500000Y-71428571D01*
X215833333Y-71428571D01*
X215738095Y-69066666D02*
X215261904Y-69066666D01*
X215833333Y-69352380D02*
X215500000Y-68352380D01*
X215166666Y-69352380D01*
X216880952Y-74404761D02*
X216738095Y-74452380D01*
X216500000Y-74452380D01*
X216404762Y-74404761D01*
X216357143Y-74357142D01*
X216309524Y-74261904D01*
X216309524Y-74166666D01*
X216357143Y-74071428D01*
X216404762Y-74023809D01*
X216500000Y-73976190D01*
X216690476Y-73928571D01*
X216785714Y-73880952D01*
X216833333Y-73833333D01*
X216880952Y-73738095D01*
X216880952Y-73642857D01*
X216833333Y-73547619D01*
X216785714Y-73500000D01*
X216690476Y-73452380D01*
X216452381Y-73452380D01*
X216309524Y-73500000D01*
X215976190Y-73785714D02*
X215785714Y-74452380D01*
X215595238Y-73976190D01*
X215404762Y-74452380D01*
X215214286Y-73785714D01*
X192338095Y-76866666D02*
X191861904Y-76866666D01*
X192433333Y-77152380D02*
X192100000Y-76152380D01*
X191766666Y-77152380D01*
X207771428Y-83042857D02*
X207771428Y-81842857D01*
X207314285Y-81842857D01*
X207200000Y-81900000D01*
X207142857Y-81957142D01*
X207085714Y-82071428D01*
X207085714Y-82242857D01*
X207142857Y-82357142D01*
X207200000Y-82414285D01*
X207314285Y-82471428D01*
X207771428Y-82471428D01*
X206571428Y-82414285D02*
X206171428Y-82414285D01*
X206000000Y-83042857D02*
X206571428Y-83042857D01*
X206571428Y-81842857D01*
X206000000Y-81842857D01*
X204800000Y-82928571D02*
X204857142Y-82985714D01*
X205028571Y-83042857D01*
X205142857Y-83042857D01*
X205314285Y-82985714D01*
X205428571Y-82871428D01*
X205485714Y-82757142D01*
X205542857Y-82528571D01*
X205542857Y-82357142D01*
X205485714Y-82128571D01*
X205428571Y-82014285D01*
X205314285Y-81900000D01*
X205142857Y-81842857D01*
X205028571Y-81842857D01*
X204857142Y-81900000D01*
X204800000Y-81957142D01*
X203657142Y-83042857D02*
X204342857Y-83042857D01*
X204000000Y-83042857D02*
X204000000Y-81842857D01*
X204114285Y-82014285D01*
X204228571Y-82128571D01*
X204342857Y-82185714D01*
X202514285Y-83042857D02*
X203200000Y-83042857D01*
X202857142Y-83042857D02*
X202857142Y-81842857D01*
X202971428Y-82014285D01*
X203085714Y-82128571D01*
X203200000Y-82185714D01*
X201142857Y-81785714D02*
X202171428Y-83328571D01*
X200114285Y-83042857D02*
X200800000Y-83042857D01*
X200457142Y-83042857D02*
X200457142Y-81842857D01*
X200571428Y-82014285D01*
X200685714Y-82128571D01*
X200800000Y-82185714D01*
X199657142Y-81957142D02*
X199600000Y-81900000D01*
X199485714Y-81842857D01*
X199200000Y-81842857D01*
X199085714Y-81900000D01*
X199028571Y-81957142D01*
X198971428Y-82071428D01*
X198971428Y-82185714D01*
X199028571Y-82357142D01*
X199714285Y-83042857D01*
X198971428Y-83042857D01*
D11*
%TO.C,SW1*%
X200550000Y-74200000D02*
X201550000Y-74200000D01*
X201050000Y-74700000D02*
X201050000Y-73700000D01*
X207750000Y-70500000D02*
X207750000Y-67900000D01*
X207750000Y-75500000D02*
X207750000Y-72900000D01*
X207750000Y-80500000D02*
X207750000Y-77900000D01*
X193850000Y-78300000D02*
X193550000Y-78000000D01*
X193250000Y-78300000D02*
X193850000Y-78300000D01*
X193550000Y-78000000D02*
X193250000Y-78300000D01*
X194350000Y-80500000D02*
X194350000Y-78000000D01*
X199150000Y-80500000D02*
X194350000Y-80500000D01*
X194350000Y-67900000D02*
X194350000Y-70700000D01*
X199250000Y-67900000D02*
X194350000Y-67900000D01*
X207750000Y-67900000D02*
X202850000Y-67900000D01*
X202850000Y-80500000D02*
X207750000Y-80500000D01*
X204050000Y-74200000D02*
G75*
G03*
X204050000Y-74200000I-3000000J0D01*
G01*
%TD*%
M02*
