%TF.GenerationSoftware,KiCad,Pcbnew,5.1.12-1.fc35*%
%TF.CreationDate,2021-11-27T14:31:25+00:00*%
%TF.ProjectId,kiCAD_TriSchmittHoleMount_v003.1,6b694341-445f-4547-9269-5363686d6974,rev?*%
%TF.SameCoordinates,Original*%
%TF.FileFunction,Copper,L1,Top*%
%TF.FilePolarity,Positive*%
%FSLAX46Y46*%
G04 Gerber Fmt 4.6, Leading zero omitted, Abs format (unit mm)*
G04 Created by KiCad (PCBNEW 5.1.12-1.fc35) date 2021-11-27 14:31:25*
%MOMM*%
%LPD*%
G01*
G04 APERTURE LIST*
%TA.AperFunction,ComponentPad*%
%ADD10O,2.190000X1.740000*%
%TD*%
%TA.AperFunction,SMDPad,CuDef*%
%ADD11R,0.300000X1.600000*%
%TD*%
%TA.AperFunction,ComponentPad*%
%ADD12C,2.000000*%
%TD*%
%TA.AperFunction,ComponentPad*%
%ADD13R,3.000000X2.500000*%
%TD*%
%TA.AperFunction,ComponentPad*%
%ADD14R,2.000000X2.000000*%
%TD*%
%TA.AperFunction,ViaPad*%
%ADD15C,0.800000*%
%TD*%
%TA.AperFunction,Conductor*%
%ADD16C,0.400000*%
%TD*%
%TA.AperFunction,Conductor*%
%ADD17C,1.000000*%
%TD*%
%TA.AperFunction,Conductor*%
%ADD18C,0.254000*%
%TD*%
%TA.AperFunction,Conductor*%
%ADD19C,0.100000*%
%TD*%
G04 APERTURE END LIST*
%TO.P,R7,2*%
%TO.N,Net-(D4-Pad2)*%
%TA.AperFunction,SMDPad,CuDef*%
G36*
G01*
X199875000Y-77125000D02*
X199875000Y-77675000D01*
G75*
G02*
X199675000Y-77875000I-200000J0D01*
G01*
X199275000Y-77875000D01*
G75*
G02*
X199075000Y-77675000I0J200000D01*
G01*
X199075000Y-77125000D01*
G75*
G02*
X199275000Y-76925000I200000J0D01*
G01*
X199675000Y-76925000D01*
G75*
G02*
X199875000Y-77125000I0J-200000D01*
G01*
G37*
%TD.AperFunction*%
%TO.P,R7,1*%
%TO.N,VCC*%
%TA.AperFunction,SMDPad,CuDef*%
G36*
G01*
X201525000Y-77125000D02*
X201525000Y-77675000D01*
G75*
G02*
X201325000Y-77875000I-200000J0D01*
G01*
X200925000Y-77875000D01*
G75*
G02*
X200725000Y-77675000I0J200000D01*
G01*
X200725000Y-77125000D01*
G75*
G02*
X200925000Y-76925000I200000J0D01*
G01*
X201325000Y-76925000D01*
G75*
G02*
X201525000Y-77125000I0J-200000D01*
G01*
G37*
%TD.AperFunction*%
%TD*%
%TO.P,D4,2*%
%TO.N,Net-(D4-Pad2)*%
%TA.AperFunction,SMDPad,CuDef*%
G36*
G01*
X196831334Y-80037500D02*
X196831334Y-79562500D01*
G75*
G02*
X197068834Y-79325000I237500J0D01*
G01*
X197643834Y-79325000D01*
G75*
G02*
X197881334Y-79562500I0J-237500D01*
G01*
X197881334Y-80037500D01*
G75*
G02*
X197643834Y-80275000I-237500J0D01*
G01*
X197068834Y-80275000D01*
G75*
G02*
X196831334Y-80037500I0J237500D01*
G01*
G37*
%TD.AperFunction*%
%TO.P,D4,1*%
%TO.N,GND*%
%TA.AperFunction,SMDPad,CuDef*%
G36*
G01*
X195081334Y-80037500D02*
X195081334Y-79562500D01*
G75*
G02*
X195318834Y-79325000I237500J0D01*
G01*
X195893834Y-79325000D01*
G75*
G02*
X196131334Y-79562500I0J-237500D01*
G01*
X196131334Y-80037500D01*
G75*
G02*
X195893834Y-80275000I-237500J0D01*
G01*
X195318834Y-80275000D01*
G75*
G02*
X195081334Y-80037500I0J237500D01*
G01*
G37*
%TD.AperFunction*%
%TD*%
D10*
%TO.P,J1,5*%
%TO.N,VCC*%
X213000000Y-79280000D03*
%TO.P,J1,4*%
%TO.N,GND*%
X213000000Y-76740000D03*
%TO.P,J1,3*%
%TO.N,/EncSw_Out*%
X213000000Y-74200000D03*
%TO.P,J1,2*%
%TO.N,/EncB_Out*%
X213000000Y-71660000D03*
%TO.P,J1,1*%
%TO.N,/EncA_Out*%
%TA.AperFunction,ComponentPad*%
G36*
G01*
X212154999Y-68250000D02*
X213845001Y-68250000D01*
G75*
G02*
X214095000Y-68499999I0J-249999D01*
G01*
X214095000Y-69740001D01*
G75*
G02*
X213845001Y-69990000I-249999J0D01*
G01*
X212154999Y-69990000D01*
G75*
G02*
X211905000Y-69740001I0J249999D01*
G01*
X211905000Y-68499999D01*
G75*
G02*
X212154999Y-68250000I249999J0D01*
G01*
G37*
%TD.AperFunction*%
%TD*%
D11*
%TO.P,U1,8*%
%TO.N,VCC*%
X205725000Y-76500000D03*
%TO.P,U1,7*%
%TO.N,/EncA_Out*%
X205075000Y-76500000D03*
%TO.P,U1,6*%
%TO.N,Trig_EncB*%
X204425000Y-76500000D03*
%TO.P,U1,5*%
%TO.N,/EncSw_Out*%
X203775000Y-76500000D03*
%TO.P,U1,4*%
%TO.N,GND*%
X203775000Y-73100000D03*
%TO.P,U1,3*%
%TO.N,Trig_EncSw*%
X204425000Y-73100000D03*
%TO.P,U1,2*%
%TO.N,/EncB_Out*%
X205075000Y-73100000D03*
%TO.P,U1,1*%
%TO.N,Trig_EncA*%
X205725000Y-73100000D03*
%TD*%
%TO.P,R6,2*%
%TO.N,Sig_EncSw*%
%TA.AperFunction,SMDPad,CuDef*%
G36*
G01*
X205175000Y-69587500D02*
X205175000Y-69112500D01*
G75*
G02*
X205412500Y-68875000I237500J0D01*
G01*
X205912500Y-68875000D01*
G75*
G02*
X206150000Y-69112500I0J-237500D01*
G01*
X206150000Y-69587500D01*
G75*
G02*
X205912500Y-69825000I-237500J0D01*
G01*
X205412500Y-69825000D01*
G75*
G02*
X205175000Y-69587500I0J237500D01*
G01*
G37*
%TD.AperFunction*%
%TO.P,R6,1*%
%TO.N,Trig_EncSw*%
%TA.AperFunction,SMDPad,CuDef*%
G36*
G01*
X203350000Y-69587500D02*
X203350000Y-69112500D01*
G75*
G02*
X203587500Y-68875000I237500J0D01*
G01*
X204087500Y-68875000D01*
G75*
G02*
X204325000Y-69112500I0J-237500D01*
G01*
X204325000Y-69587500D01*
G75*
G02*
X204087500Y-69825000I-237500J0D01*
G01*
X203587500Y-69825000D01*
G75*
G02*
X203350000Y-69587500I0J237500D01*
G01*
G37*
%TD.AperFunction*%
%TD*%
%TO.P,R5,2*%
%TO.N,VCC*%
%TA.AperFunction,SMDPad,CuDef*%
G36*
G01*
X208375000Y-68075000D02*
X208375000Y-67525000D01*
G75*
G02*
X208575000Y-67325000I200000J0D01*
G01*
X208975000Y-67325000D01*
G75*
G02*
X209175000Y-67525000I0J-200000D01*
G01*
X209175000Y-68075000D01*
G75*
G02*
X208975000Y-68275000I-200000J0D01*
G01*
X208575000Y-68275000D01*
G75*
G02*
X208375000Y-68075000I0J200000D01*
G01*
G37*
%TD.AperFunction*%
%TO.P,R5,1*%
%TO.N,Sig_EncSw*%
%TA.AperFunction,SMDPad,CuDef*%
G36*
G01*
X206725000Y-68075000D02*
X206725000Y-67525000D01*
G75*
G02*
X206925000Y-67325000I200000J0D01*
G01*
X207325000Y-67325000D01*
G75*
G02*
X207525000Y-67525000I0J-200000D01*
G01*
X207525000Y-68075000D01*
G75*
G02*
X207325000Y-68275000I-200000J0D01*
G01*
X206925000Y-68275000D01*
G75*
G02*
X206725000Y-68075000I0J200000D01*
G01*
G37*
%TD.AperFunction*%
%TD*%
%TO.P,R4,2*%
%TO.N,Sig_EncB*%
%TA.AperFunction,SMDPad,CuDef*%
G36*
G01*
X196033834Y-71825000D02*
X196033834Y-72375000D01*
G75*
G02*
X195833834Y-72575000I-200000J0D01*
G01*
X195433834Y-72575000D01*
G75*
G02*
X195233834Y-72375000I0J200000D01*
G01*
X195233834Y-71825000D01*
G75*
G02*
X195433834Y-71625000I200000J0D01*
G01*
X195833834Y-71625000D01*
G75*
G02*
X196033834Y-71825000I0J-200000D01*
G01*
G37*
%TD.AperFunction*%
%TO.P,R4,1*%
%TO.N,Trig_EncB*%
%TA.AperFunction,SMDPad,CuDef*%
G36*
G01*
X197683834Y-71825000D02*
X197683834Y-72375000D01*
G75*
G02*
X197483834Y-72575000I-200000J0D01*
G01*
X197083834Y-72575000D01*
G75*
G02*
X196883834Y-72375000I0J200000D01*
G01*
X196883834Y-71825000D01*
G75*
G02*
X197083834Y-71625000I200000J0D01*
G01*
X197483834Y-71625000D01*
G75*
G02*
X197683834Y-71825000I0J-200000D01*
G01*
G37*
%TD.AperFunction*%
%TD*%
%TO.P,R3,2*%
%TO.N,VCC*%
%TA.AperFunction,SMDPad,CuDef*%
G36*
G01*
X196883834Y-69275000D02*
X196883834Y-68725000D01*
G75*
G02*
X197083834Y-68525000I200000J0D01*
G01*
X197483834Y-68525000D01*
G75*
G02*
X197683834Y-68725000I0J-200000D01*
G01*
X197683834Y-69275000D01*
G75*
G02*
X197483834Y-69475000I-200000J0D01*
G01*
X197083834Y-69475000D01*
G75*
G02*
X196883834Y-69275000I0J200000D01*
G01*
G37*
%TD.AperFunction*%
%TO.P,R3,1*%
%TO.N,Sig_EncB*%
%TA.AperFunction,SMDPad,CuDef*%
G36*
G01*
X195233834Y-69275000D02*
X195233834Y-68725000D01*
G75*
G02*
X195433834Y-68525000I200000J0D01*
G01*
X195833834Y-68525000D01*
G75*
G02*
X196033834Y-68725000I0J-200000D01*
G01*
X196033834Y-69275000D01*
G75*
G02*
X195833834Y-69475000I-200000J0D01*
G01*
X195433834Y-69475000D01*
G75*
G02*
X195233834Y-69275000I0J200000D01*
G01*
G37*
%TD.AperFunction*%
%TD*%
%TO.P,R2,1*%
%TO.N,Trig_EncA*%
%TA.AperFunction,SMDPad,CuDef*%
G36*
G01*
X197683834Y-76498334D02*
X197683834Y-77048334D01*
G75*
G02*
X197483834Y-77248334I-200000J0D01*
G01*
X197083834Y-77248334D01*
G75*
G02*
X196883834Y-77048334I0J200000D01*
G01*
X196883834Y-76498334D01*
G75*
G02*
X197083834Y-76298334I200000J0D01*
G01*
X197483834Y-76298334D01*
G75*
G02*
X197683834Y-76498334I0J-200000D01*
G01*
G37*
%TD.AperFunction*%
%TO.P,R2,2*%
%TO.N,Sig_EncA*%
%TA.AperFunction,SMDPad,CuDef*%
G36*
G01*
X196033834Y-76498334D02*
X196033834Y-77048334D01*
G75*
G02*
X195833834Y-77248334I-200000J0D01*
G01*
X195433834Y-77248334D01*
G75*
G02*
X195233834Y-77048334I0J200000D01*
G01*
X195233834Y-76498334D01*
G75*
G02*
X195433834Y-76298334I200000J0D01*
G01*
X195833834Y-76298334D01*
G75*
G02*
X196033834Y-76498334I0J-200000D01*
G01*
G37*
%TD.AperFunction*%
%TD*%
%TO.P,R1,1*%
%TO.N,Sig_EncA*%
%TA.AperFunction,SMDPad,CuDef*%
G36*
G01*
X195233834Y-75511668D02*
X195233834Y-74961668D01*
G75*
G02*
X195433834Y-74761668I200000J0D01*
G01*
X195833834Y-74761668D01*
G75*
G02*
X196033834Y-74961668I0J-200000D01*
G01*
X196033834Y-75511668D01*
G75*
G02*
X195833834Y-75711668I-200000J0D01*
G01*
X195433834Y-75711668D01*
G75*
G02*
X195233834Y-75511668I0J200000D01*
G01*
G37*
%TD.AperFunction*%
%TO.P,R1,2*%
%TO.N,VCC*%
%TA.AperFunction,SMDPad,CuDef*%
G36*
G01*
X196883834Y-75511668D02*
X196883834Y-74961668D01*
G75*
G02*
X197083834Y-74761668I200000J0D01*
G01*
X197483834Y-74761668D01*
G75*
G02*
X197683834Y-74961668I0J-200000D01*
G01*
X197683834Y-75511668D01*
G75*
G02*
X197483834Y-75711668I-200000J0D01*
G01*
X197083834Y-75711668D01*
G75*
G02*
X196883834Y-75511668I0J200000D01*
G01*
G37*
%TD.AperFunction*%
%TD*%
%TO.P,D3,2*%
%TO.N,Sig_EncSw*%
%TA.AperFunction,SMDPad,CuDef*%
G36*
G01*
X205100000Y-68037500D02*
X205100000Y-67562500D01*
G75*
G02*
X205337500Y-67325000I237500J0D01*
G01*
X205912500Y-67325000D01*
G75*
G02*
X206150000Y-67562500I0J-237500D01*
G01*
X206150000Y-68037500D01*
G75*
G02*
X205912500Y-68275000I-237500J0D01*
G01*
X205337500Y-68275000D01*
G75*
G02*
X205100000Y-68037500I0J237500D01*
G01*
G37*
%TD.AperFunction*%
%TO.P,D3,1*%
%TO.N,Trig_EncSw*%
%TA.AperFunction,SMDPad,CuDef*%
G36*
G01*
X203350000Y-68037500D02*
X203350000Y-67562500D01*
G75*
G02*
X203587500Y-67325000I237500J0D01*
G01*
X204162500Y-67325000D01*
G75*
G02*
X204400000Y-67562500I0J-237500D01*
G01*
X204400000Y-68037500D01*
G75*
G02*
X204162500Y-68275000I-237500J0D01*
G01*
X203587500Y-68275000D01*
G75*
G02*
X203350000Y-68037500I0J237500D01*
G01*
G37*
%TD.AperFunction*%
%TD*%
%TO.P,D2,2*%
%TO.N,Sig_EncB*%
%TA.AperFunction,SMDPad,CuDef*%
G36*
G01*
X196088834Y-70293750D02*
X196088834Y-70806250D01*
G75*
G02*
X195870084Y-71025000I-218750J0D01*
G01*
X195432584Y-71025000D01*
G75*
G02*
X195213834Y-70806250I0J218750D01*
G01*
X195213834Y-70293750D01*
G75*
G02*
X195432584Y-70075000I218750J0D01*
G01*
X195870084Y-70075000D01*
G75*
G02*
X196088834Y-70293750I0J-218750D01*
G01*
G37*
%TD.AperFunction*%
%TO.P,D2,1*%
%TO.N,Trig_EncB*%
%TA.AperFunction,SMDPad,CuDef*%
G36*
G01*
X197663834Y-70293750D02*
X197663834Y-70806250D01*
G75*
G02*
X197445084Y-71025000I-218750J0D01*
G01*
X197007584Y-71025000D01*
G75*
G02*
X196788834Y-70806250I0J218750D01*
G01*
X196788834Y-70293750D01*
G75*
G02*
X197007584Y-70075000I218750J0D01*
G01*
X197445084Y-70075000D01*
G75*
G02*
X197663834Y-70293750I0J-218750D01*
G01*
G37*
%TD.AperFunction*%
%TD*%
%TO.P,D1,1*%
%TO.N,Trig_EncA*%
%TA.AperFunction,SMDPad,CuDef*%
G36*
G01*
X197863834Y-78087500D02*
X197863834Y-78512500D01*
G75*
G02*
X197651334Y-78725000I-212500J0D01*
G01*
X196851334Y-78725000D01*
G75*
G02*
X196638834Y-78512500I0J212500D01*
G01*
X196638834Y-78087500D01*
G75*
G02*
X196851334Y-77875000I212500J0D01*
G01*
X197651334Y-77875000D01*
G75*
G02*
X197863834Y-78087500I0J-212500D01*
G01*
G37*
%TD.AperFunction*%
%TO.P,D1,2*%
%TO.N,Sig_EncA*%
%TA.AperFunction,SMDPad,CuDef*%
G36*
G01*
X196238834Y-78087500D02*
X196238834Y-78512500D01*
G75*
G02*
X196026334Y-78725000I-212500J0D01*
G01*
X195226334Y-78725000D01*
G75*
G02*
X195013834Y-78512500I0J212500D01*
G01*
X195013834Y-78087500D01*
G75*
G02*
X195226334Y-77875000I212500J0D01*
G01*
X196026334Y-77875000D01*
G75*
G02*
X196238834Y-78087500I0J-212500D01*
G01*
G37*
%TD.AperFunction*%
%TD*%
%TO.P,C3,2*%
%TO.N,Trig_EncSw*%
%TA.AperFunction,SMDPad,CuDef*%
G36*
G01*
X205075000Y-71137500D02*
X205075000Y-70662500D01*
G75*
G02*
X205312500Y-70425000I237500J0D01*
G01*
X205912500Y-70425000D01*
G75*
G02*
X206150000Y-70662500I0J-237500D01*
G01*
X206150000Y-71137500D01*
G75*
G02*
X205912500Y-71375000I-237500J0D01*
G01*
X205312500Y-71375000D01*
G75*
G02*
X205075000Y-71137500I0J237500D01*
G01*
G37*
%TD.AperFunction*%
%TO.P,C3,1*%
%TO.N,GND*%
%TA.AperFunction,SMDPad,CuDef*%
G36*
G01*
X203350000Y-71137500D02*
X203350000Y-70662500D01*
G75*
G02*
X203587500Y-70425000I237500J0D01*
G01*
X204187500Y-70425000D01*
G75*
G02*
X204425000Y-70662500I0J-237500D01*
G01*
X204425000Y-71137500D01*
G75*
G02*
X204187500Y-71375000I-237500J0D01*
G01*
X203587500Y-71375000D01*
G75*
G02*
X203350000Y-71137500I0J237500D01*
G01*
G37*
%TD.AperFunction*%
%TD*%
%TO.P,C2,2*%
%TO.N,Trig_EncB*%
%TA.AperFunction,SMDPad,CuDef*%
G36*
G01*
X199375000Y-71862500D02*
X199375000Y-72337500D01*
G75*
G02*
X199137500Y-72575000I-237500J0D01*
G01*
X198537500Y-72575000D01*
G75*
G02*
X198300000Y-72337500I0J237500D01*
G01*
X198300000Y-71862500D01*
G75*
G02*
X198537500Y-71625000I237500J0D01*
G01*
X199137500Y-71625000D01*
G75*
G02*
X199375000Y-71862500I0J-237500D01*
G01*
G37*
%TD.AperFunction*%
%TO.P,C2,1*%
%TO.N,GND*%
%TA.AperFunction,SMDPad,CuDef*%
G36*
G01*
X201100000Y-71862500D02*
X201100000Y-72337500D01*
G75*
G02*
X200862500Y-72575000I-237500J0D01*
G01*
X200262500Y-72575000D01*
G75*
G02*
X200025000Y-72337500I0J237500D01*
G01*
X200025000Y-71862500D01*
G75*
G02*
X200262500Y-71625000I237500J0D01*
G01*
X200862500Y-71625000D01*
G75*
G02*
X201100000Y-71862500I0J-237500D01*
G01*
G37*
%TD.AperFunction*%
%TD*%
%TO.P,C1,1*%
%TO.N,GND*%
%TA.AperFunction,SMDPad,CuDef*%
G36*
G01*
X195058834Y-73937500D02*
X195058834Y-73462500D01*
G75*
G02*
X195296334Y-73225000I237500J0D01*
G01*
X195896334Y-73225000D01*
G75*
G02*
X196133834Y-73462500I0J-237500D01*
G01*
X196133834Y-73937500D01*
G75*
G02*
X195896334Y-74175000I-237500J0D01*
G01*
X195296334Y-74175000D01*
G75*
G02*
X195058834Y-73937500I0J237500D01*
G01*
G37*
%TD.AperFunction*%
%TO.P,C1,2*%
%TO.N,Trig_EncA*%
%TA.AperFunction,SMDPad,CuDef*%
G36*
G01*
X196783834Y-73937500D02*
X196783834Y-73462500D01*
G75*
G02*
X197021334Y-73225000I237500J0D01*
G01*
X197621334Y-73225000D01*
G75*
G02*
X197858834Y-73462500I0J-237500D01*
G01*
X197858834Y-73937500D01*
G75*
G02*
X197621334Y-74175000I-237500J0D01*
G01*
X197021334Y-74175000D01*
G75*
G02*
X196783834Y-73937500I0J237500D01*
G01*
G37*
%TD.AperFunction*%
%TD*%
D12*
%TO.P,SW1,S2*%
%TO.N,Sig_EncSw*%
X208050000Y-71700000D03*
%TO.P,SW1,S1*%
%TO.N,GND*%
X208050000Y-76700000D03*
D13*
%TO.P,SW1,MP*%
%TO.N,N/C*%
X201050000Y-68600000D03*
X201050000Y-79800000D03*
D12*
%TO.P,SW1,B*%
%TO.N,Sig_EncB*%
X193550000Y-71700000D03*
%TO.P,SW1,C*%
%TO.N,GND*%
X193550000Y-74200000D03*
D14*
%TO.P,SW1,A*%
%TO.N,Sig_EncA*%
X193550000Y-76700000D03*
%TD*%
D15*
%TO.N,VCC*%
X208800000Y-69000000D03*
X198400000Y-75200000D03*
X205165689Y-77934303D03*
X196500002Y-68000000D03*
X202300000Y-77400000D03*
%TO.N,Trig_EncA*%
X202100000Y-75900008D03*
X202100000Y-74299977D03*
%TD*%
D16*
%TO.N,GND*%
X193550000Y-74200000D02*
X194246334Y-74200000D01*
X194100000Y-73650000D02*
X193550000Y-74200000D01*
X194900000Y-73700000D02*
X195596334Y-73700000D01*
X194400000Y-74200000D02*
X194900000Y-73700000D01*
X193550000Y-74200000D02*
X194400000Y-74200000D01*
X203775000Y-71012500D02*
X203887500Y-70900000D01*
X203775000Y-73100000D02*
X203775000Y-71012500D01*
%TO.N,VCC*%
X208775000Y-68225004D02*
X208775000Y-67800000D01*
X208800000Y-69000000D02*
X208775000Y-68225004D01*
X197283834Y-75236668D02*
X198363332Y-75236668D01*
X198363332Y-75236668D02*
X198400000Y-75200000D01*
X205725000Y-76500000D02*
X205725000Y-77700000D01*
X205725000Y-77700000D02*
X205490697Y-77934303D01*
X205490697Y-77934303D02*
X205165689Y-77934303D01*
X197283834Y-69000000D02*
X197283834Y-68783832D01*
X197283834Y-68783832D02*
X196500002Y-68000000D01*
X202300000Y-77400000D02*
X201125000Y-77400000D01*
%TO.N,Trig_EncA*%
X197251334Y-76805834D02*
X197283834Y-76773334D01*
X197251334Y-78300000D02*
X197251334Y-76805834D01*
X196483824Y-75973324D02*
X197283834Y-76773334D01*
X196483824Y-74537510D02*
X196483824Y-75973324D01*
X197321334Y-73700000D02*
X196483824Y-74537510D01*
X197321334Y-73700000D02*
X197621334Y-74000000D01*
X202100000Y-74300000D02*
X202100000Y-74300000D01*
X205725000Y-74077912D02*
X205302925Y-74499987D01*
X202300010Y-74499987D02*
X202100000Y-74299977D01*
X205725000Y-73100000D02*
X205725000Y-74077912D01*
X205302925Y-74499987D02*
X202300010Y-74499987D01*
X199399992Y-75900008D02*
X202100000Y-75900008D01*
X198526666Y-76773334D02*
X199399992Y-75900008D01*
X197283834Y-76773334D02*
X198526666Y-76773334D01*
%TO.N,Trig_EncB*%
X198837500Y-72100000D02*
X197283834Y-72100000D01*
X197283834Y-72100000D02*
X197283834Y-70607500D01*
X204425000Y-75625000D02*
X204425000Y-76500000D01*
X203899987Y-75099987D02*
X204425000Y-75625000D01*
X199499987Y-75099987D02*
X203899987Y-75099987D01*
X198837500Y-74437500D02*
X199499987Y-75099987D01*
X198837500Y-72100000D02*
X198837500Y-74437500D01*
%TO.N,Trig_EncSw*%
X203837500Y-69350000D02*
X203875000Y-69312500D01*
X203875000Y-69312500D02*
X203875000Y-67800000D01*
X204825010Y-70225010D02*
X203950000Y-69350000D01*
X203950000Y-69350000D02*
X203837500Y-69350000D01*
X205500000Y-70900000D02*
X205612500Y-70900000D01*
X204399989Y-71826587D02*
X204825010Y-71401566D01*
X204399989Y-73074989D02*
X204399989Y-71826587D01*
X205612500Y-70900000D02*
X204900000Y-70900000D01*
X204900000Y-70900000D02*
X204825010Y-70825010D01*
X204825010Y-70825010D02*
X204825010Y-70225010D01*
X204825010Y-71401566D02*
X204825010Y-70825010D01*
%TO.N,Sig_EncA*%
X195626334Y-75244168D02*
X195633834Y-75236668D01*
X195626334Y-78300000D02*
X195626334Y-75244168D01*
X193550000Y-76700000D02*
X193550000Y-77300000D01*
X195560500Y-76700000D02*
X193550000Y-76700000D01*
X195633834Y-76773334D02*
X195560500Y-76700000D01*
D17*
%TO.N,Sig_EncB*%
X193310000Y-71700000D02*
X193350000Y-71740000D01*
D16*
X195633834Y-69000000D02*
X195633834Y-72100000D01*
X195100000Y-72100000D02*
X194700000Y-71700000D01*
X195633834Y-72100000D02*
X195100000Y-72100000D01*
X194700000Y-71700000D02*
X193550000Y-71700000D01*
%TO.N,Sig_EncSw*%
X207750000Y-71779998D02*
X207345012Y-71375010D01*
X205647500Y-69335000D02*
X205662500Y-69350000D01*
X205625000Y-69312500D02*
X205662500Y-69350000D01*
X205625000Y-67800000D02*
X205625000Y-69312500D01*
X207125000Y-67800000D02*
X205625000Y-67800000D01*
X205700000Y-69350000D02*
X208050000Y-71700000D01*
X205662500Y-69350000D02*
X205700000Y-69350000D01*
%TO.N,/EncA_Out*%
X213400000Y-69600000D02*
X213200000Y-69400000D01*
X206251455Y-74400000D02*
X205075000Y-75576455D01*
X209248542Y-74400000D02*
X206251455Y-74400000D01*
X214350000Y-72930000D02*
X210718542Y-72930000D01*
X210718542Y-72930000D02*
X209248542Y-74400000D01*
X214880000Y-72400000D02*
X214350000Y-72930000D01*
X214880000Y-70180000D02*
X214880000Y-72400000D01*
X205075000Y-75576455D02*
X205075000Y-76500000D01*
X213820000Y-69120000D02*
X214880000Y-70180000D01*
X213000000Y-69120000D02*
X213820000Y-69120000D01*
%TO.N,/EncB_Out*%
X210940000Y-71660000D02*
X213000000Y-71660000D01*
X206700000Y-73700000D02*
X208900000Y-73700000D01*
X206400000Y-73400000D02*
X206700000Y-73700000D01*
X208900000Y-73700000D02*
X210940000Y-71660000D01*
X206400000Y-72104998D02*
X206400000Y-73400000D01*
X206195002Y-71900000D02*
X206400000Y-72104998D01*
X205400000Y-71900000D02*
X206195002Y-71900000D01*
X205075000Y-72225000D02*
X205400000Y-71900000D01*
X205075000Y-73100000D02*
X205075000Y-72225000D01*
%TO.N,/EncSw_Out*%
X210500000Y-74200000D02*
X213000000Y-74200000D01*
X209645001Y-75054999D02*
X210500000Y-74200000D01*
X206400000Y-77900000D02*
X206400000Y-75697085D01*
X205500000Y-78800000D02*
X206400000Y-77900000D01*
X206400000Y-75697085D02*
X207042086Y-75054999D01*
X203775000Y-77675000D02*
X204900000Y-78800000D01*
X213000000Y-74200000D02*
X213200000Y-74200000D01*
X207042086Y-75054999D02*
X209645001Y-75054999D01*
X204900000Y-78800000D02*
X205500000Y-78800000D01*
X203775000Y-76500000D02*
X203775000Y-77675000D01*
%TO.N,Net-(D4-Pad2)*%
X198700000Y-79200000D02*
X198700000Y-77700000D01*
X199000000Y-77400000D02*
X199475000Y-77400000D01*
X198700000Y-77700000D02*
X199000000Y-77400000D01*
X198100000Y-79800000D02*
X198700000Y-79200000D01*
X197375000Y-79800000D02*
X198100000Y-79800000D01*
%TD*%
D18*
%TO.N,GND*%
X216535825Y-64998382D02*
X216329534Y-65307118D01*
X216187439Y-65650166D01*
X216115000Y-66014344D01*
X216115000Y-66385656D01*
X216187439Y-66749834D01*
X216329534Y-67092882D01*
X216535825Y-67401618D01*
X216798382Y-67664175D01*
X217107118Y-67870466D01*
X217450166Y-68012561D01*
X217814344Y-68085000D01*
X218185656Y-68085000D01*
X218549834Y-68012561D01*
X218892882Y-67870466D01*
X219201618Y-67664175D01*
X219340001Y-67525792D01*
X219340000Y-80874207D01*
X219201618Y-80735825D01*
X218892882Y-80529534D01*
X218549834Y-80387439D01*
X218185656Y-80315000D01*
X217814344Y-80315000D01*
X217450166Y-80387439D01*
X217107118Y-80529534D01*
X216798382Y-80735825D01*
X216535825Y-80998382D01*
X216329534Y-81307118D01*
X216187439Y-81650166D01*
X216115000Y-82014344D01*
X216115000Y-82385656D01*
X216187439Y-82749834D01*
X216329534Y-83092882D01*
X216535825Y-83401618D01*
X216674207Y-83540000D01*
X194325793Y-83540000D01*
X194464175Y-83401618D01*
X194670466Y-83092882D01*
X194812561Y-82749834D01*
X194885000Y-82385656D01*
X194885000Y-82014344D01*
X194812561Y-81650166D01*
X194670466Y-81307118D01*
X194464175Y-80998382D01*
X194201618Y-80735825D01*
X193892882Y-80529534D01*
X193549834Y-80387439D01*
X193185656Y-80315000D01*
X192814344Y-80315000D01*
X192450166Y-80387439D01*
X192107118Y-80529534D01*
X191798382Y-80735825D01*
X191660000Y-80874207D01*
X191660000Y-80275000D01*
X194443262Y-80275000D01*
X194455522Y-80399482D01*
X194491832Y-80519180D01*
X194550797Y-80629494D01*
X194630149Y-80726185D01*
X194726840Y-80805537D01*
X194837154Y-80864502D01*
X194956852Y-80900812D01*
X195081334Y-80913072D01*
X195320584Y-80910000D01*
X195479334Y-80751250D01*
X195479334Y-79927000D01*
X194605084Y-79927000D01*
X194446334Y-80085750D01*
X194443262Y-80275000D01*
X191660000Y-80275000D01*
X191660000Y-74262595D01*
X191908282Y-74262595D01*
X191952039Y-74581675D01*
X192057205Y-74886088D01*
X192150186Y-75060044D01*
X192299223Y-75114024D01*
X192195506Y-75169463D01*
X192098815Y-75248815D01*
X192019463Y-75345506D01*
X191960498Y-75455820D01*
X191924188Y-75575518D01*
X191911928Y-75700000D01*
X191911928Y-77700000D01*
X191924188Y-77824482D01*
X191960498Y-77944180D01*
X192019463Y-78054494D01*
X192098815Y-78151185D01*
X192195506Y-78230537D01*
X192305820Y-78289502D01*
X192425518Y-78325812D01*
X192550000Y-78338072D01*
X194375762Y-78338072D01*
X194375762Y-78512500D01*
X194392106Y-78678438D01*
X194440508Y-78838000D01*
X194519109Y-78985052D01*
X194533590Y-79002697D01*
X194491832Y-79080820D01*
X194455522Y-79200518D01*
X194443262Y-79325000D01*
X194446334Y-79514250D01*
X194605084Y-79673000D01*
X195479334Y-79673000D01*
X195479334Y-79653000D01*
X195733334Y-79653000D01*
X195733334Y-79673000D01*
X195753334Y-79673000D01*
X195753334Y-79927000D01*
X195733334Y-79927000D01*
X195733334Y-80751250D01*
X195892084Y-80910000D01*
X196131334Y-80913072D01*
X196255816Y-80900812D01*
X196375514Y-80864502D01*
X196485828Y-80805537D01*
X196558495Y-80745901D01*
X196582392Y-80765512D01*
X196733767Y-80846423D01*
X196898018Y-80896248D01*
X197068834Y-80913072D01*
X197643834Y-80913072D01*
X197814650Y-80896248D01*
X197978901Y-80846423D01*
X198130276Y-80765512D01*
X198262957Y-80656623D01*
X198299544Y-80612041D01*
X198421087Y-80575172D01*
X198566146Y-80497636D01*
X198693291Y-80393291D01*
X198719445Y-80361422D01*
X198911928Y-80168939D01*
X198911928Y-81050000D01*
X198924188Y-81174482D01*
X198960498Y-81294180D01*
X199019463Y-81404494D01*
X199098815Y-81501185D01*
X199195506Y-81580537D01*
X199305820Y-81639502D01*
X199425518Y-81675812D01*
X199550000Y-81688072D01*
X202550000Y-81688072D01*
X202674482Y-81675812D01*
X202794180Y-81639502D01*
X202904494Y-81580537D01*
X203001185Y-81501185D01*
X203080537Y-81404494D01*
X203139502Y-81294180D01*
X203175812Y-81174482D01*
X203188072Y-81050000D01*
X203188072Y-78550000D01*
X203175812Y-78425518D01*
X203139502Y-78305820D01*
X203080537Y-78195506D01*
X203029903Y-78133808D01*
X203058276Y-78105435D01*
X203076239Y-78139040D01*
X203077365Y-78141146D01*
X203181710Y-78268291D01*
X203213574Y-78294441D01*
X204280558Y-79361426D01*
X204306709Y-79393291D01*
X204433854Y-79497636D01*
X204578913Y-79575172D01*
X204736311Y-79622918D01*
X204858981Y-79635000D01*
X204858991Y-79635000D01*
X204899999Y-79639039D01*
X204941007Y-79635000D01*
X205458982Y-79635000D01*
X205500000Y-79639040D01*
X205541018Y-79635000D01*
X205541019Y-79635000D01*
X205663689Y-79622918D01*
X205821087Y-79575172D01*
X205966146Y-79497636D01*
X206093291Y-79393291D01*
X206119446Y-79361421D01*
X206200867Y-79280000D01*
X211262718Y-79280000D01*
X211291776Y-79575032D01*
X211377834Y-79858725D01*
X211517583Y-80120179D01*
X211705655Y-80349345D01*
X211934821Y-80537417D01*
X212196275Y-80677166D01*
X212479968Y-80763224D01*
X212701064Y-80785000D01*
X213298936Y-80785000D01*
X213520032Y-80763224D01*
X213803725Y-80677166D01*
X214065179Y-80537417D01*
X214294345Y-80349345D01*
X214482417Y-80120179D01*
X214622166Y-79858725D01*
X214708224Y-79575032D01*
X214737282Y-79280000D01*
X214708224Y-78984968D01*
X214622166Y-78701275D01*
X214482417Y-78439821D01*
X214294345Y-78210655D01*
X214065179Y-78022583D01*
X214036848Y-78007440D01*
X214177433Y-77914708D01*
X214388306Y-77706326D01*
X214554474Y-77460809D01*
X214669551Y-77187591D01*
X214686302Y-77100031D01*
X214565246Y-76867000D01*
X213127000Y-76867000D01*
X213127000Y-76887000D01*
X212873000Y-76887000D01*
X212873000Y-76867000D01*
X211434754Y-76867000D01*
X211313698Y-77100031D01*
X211330449Y-77187591D01*
X211445526Y-77460809D01*
X211611694Y-77706326D01*
X211822567Y-77914708D01*
X211963152Y-78007440D01*
X211934821Y-78022583D01*
X211705655Y-78210655D01*
X211517583Y-78439821D01*
X211377834Y-78701275D01*
X211291776Y-78984968D01*
X211262718Y-79280000D01*
X206200867Y-79280000D01*
X206961427Y-78519440D01*
X206993291Y-78493291D01*
X207097636Y-78366146D01*
X207175172Y-78221087D01*
X207209130Y-78109142D01*
X207479571Y-78240704D01*
X207791108Y-78322384D01*
X208112595Y-78341718D01*
X208431675Y-78297961D01*
X208736088Y-78192795D01*
X208910044Y-78099814D01*
X209005808Y-77835413D01*
X208050000Y-76879605D01*
X208035858Y-76893748D01*
X207856253Y-76714143D01*
X207870395Y-76700000D01*
X207856253Y-76685858D01*
X208035858Y-76506253D01*
X208050000Y-76520395D01*
X208064143Y-76506253D01*
X208243748Y-76685858D01*
X208229605Y-76700000D01*
X209185413Y-77655808D01*
X209449814Y-77560044D01*
X209590704Y-77270429D01*
X209672384Y-76958892D01*
X209691718Y-76637405D01*
X209647961Y-76318325D01*
X209542795Y-76013912D01*
X209476562Y-75889999D01*
X209603983Y-75889999D01*
X209645001Y-75894039D01*
X209686019Y-75889999D01*
X209686020Y-75889999D01*
X209808690Y-75877917D01*
X209966088Y-75830171D01*
X210111147Y-75752635D01*
X210238292Y-75648290D01*
X210264447Y-75616420D01*
X210845868Y-75035000D01*
X211514815Y-75035000D01*
X211517583Y-75040179D01*
X211705655Y-75269345D01*
X211934821Y-75457417D01*
X211963152Y-75472560D01*
X211822567Y-75565292D01*
X211611694Y-75773674D01*
X211445526Y-76019191D01*
X211330449Y-76292409D01*
X211313698Y-76379969D01*
X211434754Y-76613000D01*
X212873000Y-76613000D01*
X212873000Y-76593000D01*
X213127000Y-76593000D01*
X213127000Y-76613000D01*
X214565246Y-76613000D01*
X214686302Y-76379969D01*
X214669551Y-76292409D01*
X214554474Y-76019191D01*
X214388306Y-75773674D01*
X214177433Y-75565292D01*
X214036848Y-75472560D01*
X214065179Y-75457417D01*
X214294345Y-75269345D01*
X214482417Y-75040179D01*
X214622166Y-74778725D01*
X214708224Y-74495032D01*
X214737282Y-74200000D01*
X214708224Y-73904968D01*
X214649594Y-73711692D01*
X214671087Y-73705172D01*
X214816146Y-73627636D01*
X214943291Y-73523291D01*
X214969446Y-73491421D01*
X215441421Y-73019446D01*
X215473291Y-72993291D01*
X215577636Y-72866146D01*
X215655172Y-72721087D01*
X215702918Y-72563689D01*
X215715000Y-72441019D01*
X215719040Y-72400001D01*
X215715000Y-72358982D01*
X215715000Y-70221007D01*
X215719039Y-70179999D01*
X215715000Y-70138991D01*
X215715000Y-70138981D01*
X215702918Y-70016311D01*
X215655172Y-69858913D01*
X215577636Y-69713854D01*
X215473291Y-69586709D01*
X215441428Y-69560560D01*
X214733072Y-68852205D01*
X214733072Y-68499999D01*
X214716008Y-68326745D01*
X214665472Y-68160149D01*
X214583405Y-68006613D01*
X214472962Y-67872038D01*
X214338387Y-67761595D01*
X214184851Y-67679528D01*
X214018255Y-67628992D01*
X213845001Y-67611928D01*
X212154999Y-67611928D01*
X211981745Y-67628992D01*
X211815149Y-67679528D01*
X211661613Y-67761595D01*
X211527038Y-67872038D01*
X211416595Y-68006613D01*
X211334528Y-68160149D01*
X211283992Y-68326745D01*
X211266928Y-68499999D01*
X211266928Y-69740001D01*
X211283992Y-69913255D01*
X211334528Y-70079851D01*
X211416595Y-70233387D01*
X211527038Y-70367962D01*
X211661613Y-70478405D01*
X211771114Y-70536934D01*
X211705655Y-70590655D01*
X211517583Y-70819821D01*
X211514815Y-70825000D01*
X210981018Y-70825000D01*
X210940000Y-70820960D01*
X210898982Y-70825000D01*
X210898981Y-70825000D01*
X210776311Y-70837082D01*
X210644448Y-70877082D01*
X210618913Y-70884828D01*
X210473854Y-70962364D01*
X210384740Y-71035498D01*
X210346709Y-71066709D01*
X210320563Y-71098568D01*
X209685000Y-71734132D01*
X209685000Y-71538967D01*
X209622168Y-71223088D01*
X209498918Y-70925537D01*
X209319987Y-70657748D01*
X209092252Y-70430013D01*
X208824463Y-70251082D01*
X208526912Y-70127832D01*
X208211033Y-70065000D01*
X207888967Y-70065000D01*
X207644496Y-70113628D01*
X206788072Y-69257205D01*
X206788072Y-69112500D01*
X206771248Y-68941684D01*
X206757297Y-68895694D01*
X206761500Y-68896969D01*
X206925000Y-68913072D01*
X207325000Y-68913072D01*
X207488500Y-68896969D01*
X207645716Y-68849278D01*
X207790049Y-68772130D01*
X207765000Y-68898061D01*
X207765000Y-69101939D01*
X207804774Y-69301898D01*
X207882795Y-69490256D01*
X207996063Y-69659774D01*
X208140226Y-69803937D01*
X208309744Y-69917205D01*
X208498102Y-69995226D01*
X208698061Y-70035000D01*
X208901939Y-70035000D01*
X209101898Y-69995226D01*
X209290256Y-69917205D01*
X209459774Y-69803937D01*
X209603937Y-69659774D01*
X209717205Y-69490256D01*
X209795226Y-69301898D01*
X209835000Y-69101939D01*
X209835000Y-68898061D01*
X209795226Y-68698102D01*
X209717205Y-68509744D01*
X209701162Y-68485734D01*
X209749278Y-68395716D01*
X209796969Y-68238500D01*
X209813072Y-68075000D01*
X209813072Y-67525000D01*
X209796969Y-67361500D01*
X209749278Y-67204284D01*
X209671831Y-67059392D01*
X209567606Y-66932394D01*
X209440608Y-66828169D01*
X209295716Y-66750722D01*
X209138500Y-66703031D01*
X208975000Y-66686928D01*
X208575000Y-66686928D01*
X208411500Y-66703031D01*
X208254284Y-66750722D01*
X208109392Y-66828169D01*
X207982394Y-66932394D01*
X207950000Y-66971866D01*
X207917606Y-66932394D01*
X207790608Y-66828169D01*
X207645716Y-66750722D01*
X207488500Y-66703031D01*
X207325000Y-66686928D01*
X206925000Y-66686928D01*
X206761500Y-66703031D01*
X206604284Y-66750722D01*
X206459392Y-66828169D01*
X206425317Y-66856134D01*
X206398942Y-66834488D01*
X206247567Y-66753577D01*
X206083316Y-66703752D01*
X205912500Y-66686928D01*
X205337500Y-66686928D01*
X205166684Y-66703752D01*
X205002433Y-66753577D01*
X204851058Y-66834488D01*
X204750000Y-66917425D01*
X204648942Y-66834488D01*
X204497567Y-66753577D01*
X204333316Y-66703752D01*
X204162500Y-66686928D01*
X203587500Y-66686928D01*
X203416684Y-66703752D01*
X203252433Y-66753577D01*
X203101058Y-66834488D01*
X203009834Y-66909354D01*
X203001185Y-66898815D01*
X202904494Y-66819463D01*
X202794180Y-66760498D01*
X202674482Y-66724188D01*
X202550000Y-66711928D01*
X199550000Y-66711928D01*
X199425518Y-66724188D01*
X199305820Y-66760498D01*
X199195506Y-66819463D01*
X199098815Y-66898815D01*
X199019463Y-66995506D01*
X198960498Y-67105820D01*
X198924188Y-67225518D01*
X198911928Y-67350000D01*
X198911928Y-69850000D01*
X198924188Y-69974482D01*
X198960498Y-70094180D01*
X199019463Y-70204494D01*
X199098815Y-70301185D01*
X199195506Y-70380537D01*
X199305820Y-70439502D01*
X199425518Y-70475812D01*
X199550000Y-70488072D01*
X202550000Y-70488072D01*
X202674482Y-70475812D01*
X202712565Y-70464260D01*
X202715000Y-70614250D01*
X202873750Y-70773000D01*
X203760500Y-70773000D01*
X203760500Y-70753000D01*
X203990010Y-70753000D01*
X203990010Y-70783991D01*
X203985970Y-70825010D01*
X203990010Y-70866028D01*
X203990010Y-71047000D01*
X203760500Y-71047000D01*
X203760500Y-71027000D01*
X202873750Y-71027000D01*
X202715000Y-71185750D01*
X202711928Y-71375000D01*
X202724188Y-71499482D01*
X202760498Y-71619180D01*
X202819463Y-71729494D01*
X202898815Y-71826185D01*
X202995506Y-71905537D01*
X203088392Y-71955186D01*
X203032089Y-72064219D01*
X202997483Y-72184420D01*
X202986992Y-72309063D01*
X202990000Y-72814250D01*
X203148750Y-72973000D01*
X203564989Y-72973000D01*
X203564989Y-73116007D01*
X203575921Y-73227000D01*
X203148750Y-73227000D01*
X202990000Y-73385750D01*
X202988337Y-73664987D01*
X202920497Y-73664987D01*
X202903937Y-73640203D01*
X202759774Y-73496040D01*
X202590256Y-73382772D01*
X202401898Y-73304751D01*
X202201939Y-73264977D01*
X201998061Y-73264977D01*
X201798102Y-73304751D01*
X201609744Y-73382772D01*
X201440226Y-73496040D01*
X201296063Y-73640203D01*
X201182795Y-73809721D01*
X201104774Y-73998079D01*
X201065000Y-74198038D01*
X201065000Y-74264987D01*
X199845855Y-74264987D01*
X199672500Y-74091633D01*
X199672500Y-73106603D01*
X199780820Y-73164502D01*
X199900518Y-73200812D01*
X200025000Y-73213072D01*
X200276750Y-73210000D01*
X200435500Y-73051250D01*
X200435500Y-72227000D01*
X200689500Y-72227000D01*
X200689500Y-73051250D01*
X200848250Y-73210000D01*
X201100000Y-73213072D01*
X201224482Y-73200812D01*
X201344180Y-73164502D01*
X201454494Y-73105537D01*
X201551185Y-73026185D01*
X201630537Y-72929494D01*
X201689502Y-72819180D01*
X201725812Y-72699482D01*
X201738072Y-72575000D01*
X201735000Y-72385750D01*
X201576250Y-72227000D01*
X200689500Y-72227000D01*
X200435500Y-72227000D01*
X200415500Y-72227000D01*
X200415500Y-71973000D01*
X200435500Y-71973000D01*
X200435500Y-71148750D01*
X200689500Y-71148750D01*
X200689500Y-71973000D01*
X201576250Y-71973000D01*
X201735000Y-71814250D01*
X201738072Y-71625000D01*
X201725812Y-71500518D01*
X201689502Y-71380820D01*
X201630537Y-71270506D01*
X201551185Y-71173815D01*
X201454494Y-71094463D01*
X201344180Y-71035498D01*
X201224482Y-70999188D01*
X201100000Y-70986928D01*
X200848250Y-70990000D01*
X200689500Y-71148750D01*
X200435500Y-71148750D01*
X200276750Y-70990000D01*
X200025000Y-70986928D01*
X199900518Y-70999188D01*
X199780820Y-71035498D01*
X199670506Y-71094463D01*
X199622606Y-71133774D01*
X199472567Y-71053577D01*
X199308316Y-71003752D01*
X199137500Y-70986928D01*
X198537500Y-70986928D01*
X198366684Y-71003752D01*
X198267071Y-71033969D01*
X198285442Y-70973408D01*
X198301906Y-70806250D01*
X198301906Y-70293750D01*
X198285442Y-70126592D01*
X198236684Y-69965858D01*
X198157505Y-69817725D01*
X198137441Y-69793277D01*
X198180665Y-69740608D01*
X198258112Y-69595716D01*
X198305803Y-69438500D01*
X198321906Y-69275000D01*
X198321906Y-68725000D01*
X198305803Y-68561500D01*
X198258112Y-68404284D01*
X198180665Y-68259392D01*
X198076440Y-68132394D01*
X197949442Y-68028169D01*
X197804550Y-67950722D01*
X197647334Y-67903031D01*
X197576971Y-67896101D01*
X197524094Y-67843224D01*
X197495228Y-67698102D01*
X197417207Y-67509744D01*
X197303939Y-67340226D01*
X197159776Y-67196063D01*
X196990258Y-67082795D01*
X196801900Y-67004774D01*
X196601941Y-66965000D01*
X196398063Y-66965000D01*
X196198104Y-67004774D01*
X196009746Y-67082795D01*
X195840228Y-67196063D01*
X195696065Y-67340226D01*
X195582797Y-67509744D01*
X195504776Y-67698102D01*
X195467216Y-67886928D01*
X195433834Y-67886928D01*
X195270334Y-67903031D01*
X195113118Y-67950722D01*
X194968226Y-68028169D01*
X194841228Y-68132394D01*
X194737003Y-68259392D01*
X194659556Y-68404284D01*
X194611865Y-68561500D01*
X194595762Y-68725000D01*
X194595762Y-69275000D01*
X194611865Y-69438500D01*
X194659556Y-69595716D01*
X194737003Y-69740608D01*
X194760227Y-69768906D01*
X194720163Y-69817725D01*
X194640984Y-69965858D01*
X194592226Y-70126592D01*
X194575762Y-70293750D01*
X194575762Y-70418995D01*
X194324463Y-70251082D01*
X194026912Y-70127832D01*
X193711033Y-70065000D01*
X193388967Y-70065000D01*
X193073088Y-70127832D01*
X192775537Y-70251082D01*
X192507748Y-70430013D01*
X192280013Y-70657748D01*
X192101082Y-70925537D01*
X191977832Y-71223088D01*
X191915000Y-71538967D01*
X191915000Y-71861033D01*
X191977832Y-72176912D01*
X192101082Y-72474463D01*
X192280013Y-72742252D01*
X192507748Y-72969987D01*
X192604935Y-73034925D01*
X192594192Y-73064587D01*
X193550000Y-74020395D01*
X193564143Y-74006253D01*
X193743748Y-74185858D01*
X193729605Y-74200000D01*
X193743748Y-74214143D01*
X193564143Y-74393748D01*
X193550000Y-74379605D01*
X193535858Y-74393748D01*
X193356253Y-74214143D01*
X193370395Y-74200000D01*
X192414587Y-73244192D01*
X192150186Y-73339956D01*
X192009296Y-73629571D01*
X191927616Y-73941108D01*
X191908282Y-74262595D01*
X191660000Y-74262595D01*
X191660000Y-67525793D01*
X191798382Y-67664175D01*
X192107118Y-67870466D01*
X192450166Y-68012561D01*
X192814344Y-68085000D01*
X193185656Y-68085000D01*
X193549834Y-68012561D01*
X193892882Y-67870466D01*
X194201618Y-67664175D01*
X194464175Y-67401618D01*
X194670466Y-67092882D01*
X194812561Y-66749834D01*
X194885000Y-66385656D01*
X194885000Y-66014344D01*
X194812561Y-65650166D01*
X194670466Y-65307118D01*
X194464175Y-64998382D01*
X194325793Y-64860000D01*
X216674207Y-64860000D01*
X216535825Y-64998382D01*
%TA.AperFunction,Conductor*%
D19*
G36*
X216535825Y-64998382D02*
G01*
X216329534Y-65307118D01*
X216187439Y-65650166D01*
X216115000Y-66014344D01*
X216115000Y-66385656D01*
X216187439Y-66749834D01*
X216329534Y-67092882D01*
X216535825Y-67401618D01*
X216798382Y-67664175D01*
X217107118Y-67870466D01*
X217450166Y-68012561D01*
X217814344Y-68085000D01*
X218185656Y-68085000D01*
X218549834Y-68012561D01*
X218892882Y-67870466D01*
X219201618Y-67664175D01*
X219340001Y-67525792D01*
X219340000Y-80874207D01*
X219201618Y-80735825D01*
X218892882Y-80529534D01*
X218549834Y-80387439D01*
X218185656Y-80315000D01*
X217814344Y-80315000D01*
X217450166Y-80387439D01*
X217107118Y-80529534D01*
X216798382Y-80735825D01*
X216535825Y-80998382D01*
X216329534Y-81307118D01*
X216187439Y-81650166D01*
X216115000Y-82014344D01*
X216115000Y-82385656D01*
X216187439Y-82749834D01*
X216329534Y-83092882D01*
X216535825Y-83401618D01*
X216674207Y-83540000D01*
X194325793Y-83540000D01*
X194464175Y-83401618D01*
X194670466Y-83092882D01*
X194812561Y-82749834D01*
X194885000Y-82385656D01*
X194885000Y-82014344D01*
X194812561Y-81650166D01*
X194670466Y-81307118D01*
X194464175Y-80998382D01*
X194201618Y-80735825D01*
X193892882Y-80529534D01*
X193549834Y-80387439D01*
X193185656Y-80315000D01*
X192814344Y-80315000D01*
X192450166Y-80387439D01*
X192107118Y-80529534D01*
X191798382Y-80735825D01*
X191660000Y-80874207D01*
X191660000Y-80275000D01*
X194443262Y-80275000D01*
X194455522Y-80399482D01*
X194491832Y-80519180D01*
X194550797Y-80629494D01*
X194630149Y-80726185D01*
X194726840Y-80805537D01*
X194837154Y-80864502D01*
X194956852Y-80900812D01*
X195081334Y-80913072D01*
X195320584Y-80910000D01*
X195479334Y-80751250D01*
X195479334Y-79927000D01*
X194605084Y-79927000D01*
X194446334Y-80085750D01*
X194443262Y-80275000D01*
X191660000Y-80275000D01*
X191660000Y-74262595D01*
X191908282Y-74262595D01*
X191952039Y-74581675D01*
X192057205Y-74886088D01*
X192150186Y-75060044D01*
X192299223Y-75114024D01*
X192195506Y-75169463D01*
X192098815Y-75248815D01*
X192019463Y-75345506D01*
X191960498Y-75455820D01*
X191924188Y-75575518D01*
X191911928Y-75700000D01*
X191911928Y-77700000D01*
X191924188Y-77824482D01*
X191960498Y-77944180D01*
X192019463Y-78054494D01*
X192098815Y-78151185D01*
X192195506Y-78230537D01*
X192305820Y-78289502D01*
X192425518Y-78325812D01*
X192550000Y-78338072D01*
X194375762Y-78338072D01*
X194375762Y-78512500D01*
X194392106Y-78678438D01*
X194440508Y-78838000D01*
X194519109Y-78985052D01*
X194533590Y-79002697D01*
X194491832Y-79080820D01*
X194455522Y-79200518D01*
X194443262Y-79325000D01*
X194446334Y-79514250D01*
X194605084Y-79673000D01*
X195479334Y-79673000D01*
X195479334Y-79653000D01*
X195733334Y-79653000D01*
X195733334Y-79673000D01*
X195753334Y-79673000D01*
X195753334Y-79927000D01*
X195733334Y-79927000D01*
X195733334Y-80751250D01*
X195892084Y-80910000D01*
X196131334Y-80913072D01*
X196255816Y-80900812D01*
X196375514Y-80864502D01*
X196485828Y-80805537D01*
X196558495Y-80745901D01*
X196582392Y-80765512D01*
X196733767Y-80846423D01*
X196898018Y-80896248D01*
X197068834Y-80913072D01*
X197643834Y-80913072D01*
X197814650Y-80896248D01*
X197978901Y-80846423D01*
X198130276Y-80765512D01*
X198262957Y-80656623D01*
X198299544Y-80612041D01*
X198421087Y-80575172D01*
X198566146Y-80497636D01*
X198693291Y-80393291D01*
X198719445Y-80361422D01*
X198911928Y-80168939D01*
X198911928Y-81050000D01*
X198924188Y-81174482D01*
X198960498Y-81294180D01*
X199019463Y-81404494D01*
X199098815Y-81501185D01*
X199195506Y-81580537D01*
X199305820Y-81639502D01*
X199425518Y-81675812D01*
X199550000Y-81688072D01*
X202550000Y-81688072D01*
X202674482Y-81675812D01*
X202794180Y-81639502D01*
X202904494Y-81580537D01*
X203001185Y-81501185D01*
X203080537Y-81404494D01*
X203139502Y-81294180D01*
X203175812Y-81174482D01*
X203188072Y-81050000D01*
X203188072Y-78550000D01*
X203175812Y-78425518D01*
X203139502Y-78305820D01*
X203080537Y-78195506D01*
X203029903Y-78133808D01*
X203058276Y-78105435D01*
X203076239Y-78139040D01*
X203077365Y-78141146D01*
X203181710Y-78268291D01*
X203213574Y-78294441D01*
X204280558Y-79361426D01*
X204306709Y-79393291D01*
X204433854Y-79497636D01*
X204578913Y-79575172D01*
X204736311Y-79622918D01*
X204858981Y-79635000D01*
X204858991Y-79635000D01*
X204899999Y-79639039D01*
X204941007Y-79635000D01*
X205458982Y-79635000D01*
X205500000Y-79639040D01*
X205541018Y-79635000D01*
X205541019Y-79635000D01*
X205663689Y-79622918D01*
X205821087Y-79575172D01*
X205966146Y-79497636D01*
X206093291Y-79393291D01*
X206119446Y-79361421D01*
X206200867Y-79280000D01*
X211262718Y-79280000D01*
X211291776Y-79575032D01*
X211377834Y-79858725D01*
X211517583Y-80120179D01*
X211705655Y-80349345D01*
X211934821Y-80537417D01*
X212196275Y-80677166D01*
X212479968Y-80763224D01*
X212701064Y-80785000D01*
X213298936Y-80785000D01*
X213520032Y-80763224D01*
X213803725Y-80677166D01*
X214065179Y-80537417D01*
X214294345Y-80349345D01*
X214482417Y-80120179D01*
X214622166Y-79858725D01*
X214708224Y-79575032D01*
X214737282Y-79280000D01*
X214708224Y-78984968D01*
X214622166Y-78701275D01*
X214482417Y-78439821D01*
X214294345Y-78210655D01*
X214065179Y-78022583D01*
X214036848Y-78007440D01*
X214177433Y-77914708D01*
X214388306Y-77706326D01*
X214554474Y-77460809D01*
X214669551Y-77187591D01*
X214686302Y-77100031D01*
X214565246Y-76867000D01*
X213127000Y-76867000D01*
X213127000Y-76887000D01*
X212873000Y-76887000D01*
X212873000Y-76867000D01*
X211434754Y-76867000D01*
X211313698Y-77100031D01*
X211330449Y-77187591D01*
X211445526Y-77460809D01*
X211611694Y-77706326D01*
X211822567Y-77914708D01*
X211963152Y-78007440D01*
X211934821Y-78022583D01*
X211705655Y-78210655D01*
X211517583Y-78439821D01*
X211377834Y-78701275D01*
X211291776Y-78984968D01*
X211262718Y-79280000D01*
X206200867Y-79280000D01*
X206961427Y-78519440D01*
X206993291Y-78493291D01*
X207097636Y-78366146D01*
X207175172Y-78221087D01*
X207209130Y-78109142D01*
X207479571Y-78240704D01*
X207791108Y-78322384D01*
X208112595Y-78341718D01*
X208431675Y-78297961D01*
X208736088Y-78192795D01*
X208910044Y-78099814D01*
X209005808Y-77835413D01*
X208050000Y-76879605D01*
X208035858Y-76893748D01*
X207856253Y-76714143D01*
X207870395Y-76700000D01*
X207856253Y-76685858D01*
X208035858Y-76506253D01*
X208050000Y-76520395D01*
X208064143Y-76506253D01*
X208243748Y-76685858D01*
X208229605Y-76700000D01*
X209185413Y-77655808D01*
X209449814Y-77560044D01*
X209590704Y-77270429D01*
X209672384Y-76958892D01*
X209691718Y-76637405D01*
X209647961Y-76318325D01*
X209542795Y-76013912D01*
X209476562Y-75889999D01*
X209603983Y-75889999D01*
X209645001Y-75894039D01*
X209686019Y-75889999D01*
X209686020Y-75889999D01*
X209808690Y-75877917D01*
X209966088Y-75830171D01*
X210111147Y-75752635D01*
X210238292Y-75648290D01*
X210264447Y-75616420D01*
X210845868Y-75035000D01*
X211514815Y-75035000D01*
X211517583Y-75040179D01*
X211705655Y-75269345D01*
X211934821Y-75457417D01*
X211963152Y-75472560D01*
X211822567Y-75565292D01*
X211611694Y-75773674D01*
X211445526Y-76019191D01*
X211330449Y-76292409D01*
X211313698Y-76379969D01*
X211434754Y-76613000D01*
X212873000Y-76613000D01*
X212873000Y-76593000D01*
X213127000Y-76593000D01*
X213127000Y-76613000D01*
X214565246Y-76613000D01*
X214686302Y-76379969D01*
X214669551Y-76292409D01*
X214554474Y-76019191D01*
X214388306Y-75773674D01*
X214177433Y-75565292D01*
X214036848Y-75472560D01*
X214065179Y-75457417D01*
X214294345Y-75269345D01*
X214482417Y-75040179D01*
X214622166Y-74778725D01*
X214708224Y-74495032D01*
X214737282Y-74200000D01*
X214708224Y-73904968D01*
X214649594Y-73711692D01*
X214671087Y-73705172D01*
X214816146Y-73627636D01*
X214943291Y-73523291D01*
X214969446Y-73491421D01*
X215441421Y-73019446D01*
X215473291Y-72993291D01*
X215577636Y-72866146D01*
X215655172Y-72721087D01*
X215702918Y-72563689D01*
X215715000Y-72441019D01*
X215719040Y-72400001D01*
X215715000Y-72358982D01*
X215715000Y-70221007D01*
X215719039Y-70179999D01*
X215715000Y-70138991D01*
X215715000Y-70138981D01*
X215702918Y-70016311D01*
X215655172Y-69858913D01*
X215577636Y-69713854D01*
X215473291Y-69586709D01*
X215441428Y-69560560D01*
X214733072Y-68852205D01*
X214733072Y-68499999D01*
X214716008Y-68326745D01*
X214665472Y-68160149D01*
X214583405Y-68006613D01*
X214472962Y-67872038D01*
X214338387Y-67761595D01*
X214184851Y-67679528D01*
X214018255Y-67628992D01*
X213845001Y-67611928D01*
X212154999Y-67611928D01*
X211981745Y-67628992D01*
X211815149Y-67679528D01*
X211661613Y-67761595D01*
X211527038Y-67872038D01*
X211416595Y-68006613D01*
X211334528Y-68160149D01*
X211283992Y-68326745D01*
X211266928Y-68499999D01*
X211266928Y-69740001D01*
X211283992Y-69913255D01*
X211334528Y-70079851D01*
X211416595Y-70233387D01*
X211527038Y-70367962D01*
X211661613Y-70478405D01*
X211771114Y-70536934D01*
X211705655Y-70590655D01*
X211517583Y-70819821D01*
X211514815Y-70825000D01*
X210981018Y-70825000D01*
X210940000Y-70820960D01*
X210898982Y-70825000D01*
X210898981Y-70825000D01*
X210776311Y-70837082D01*
X210644448Y-70877082D01*
X210618913Y-70884828D01*
X210473854Y-70962364D01*
X210384740Y-71035498D01*
X210346709Y-71066709D01*
X210320563Y-71098568D01*
X209685000Y-71734132D01*
X209685000Y-71538967D01*
X209622168Y-71223088D01*
X209498918Y-70925537D01*
X209319987Y-70657748D01*
X209092252Y-70430013D01*
X208824463Y-70251082D01*
X208526912Y-70127832D01*
X208211033Y-70065000D01*
X207888967Y-70065000D01*
X207644496Y-70113628D01*
X206788072Y-69257205D01*
X206788072Y-69112500D01*
X206771248Y-68941684D01*
X206757297Y-68895694D01*
X206761500Y-68896969D01*
X206925000Y-68913072D01*
X207325000Y-68913072D01*
X207488500Y-68896969D01*
X207645716Y-68849278D01*
X207790049Y-68772130D01*
X207765000Y-68898061D01*
X207765000Y-69101939D01*
X207804774Y-69301898D01*
X207882795Y-69490256D01*
X207996063Y-69659774D01*
X208140226Y-69803937D01*
X208309744Y-69917205D01*
X208498102Y-69995226D01*
X208698061Y-70035000D01*
X208901939Y-70035000D01*
X209101898Y-69995226D01*
X209290256Y-69917205D01*
X209459774Y-69803937D01*
X209603937Y-69659774D01*
X209717205Y-69490256D01*
X209795226Y-69301898D01*
X209835000Y-69101939D01*
X209835000Y-68898061D01*
X209795226Y-68698102D01*
X209717205Y-68509744D01*
X209701162Y-68485734D01*
X209749278Y-68395716D01*
X209796969Y-68238500D01*
X209813072Y-68075000D01*
X209813072Y-67525000D01*
X209796969Y-67361500D01*
X209749278Y-67204284D01*
X209671831Y-67059392D01*
X209567606Y-66932394D01*
X209440608Y-66828169D01*
X209295716Y-66750722D01*
X209138500Y-66703031D01*
X208975000Y-66686928D01*
X208575000Y-66686928D01*
X208411500Y-66703031D01*
X208254284Y-66750722D01*
X208109392Y-66828169D01*
X207982394Y-66932394D01*
X207950000Y-66971866D01*
X207917606Y-66932394D01*
X207790608Y-66828169D01*
X207645716Y-66750722D01*
X207488500Y-66703031D01*
X207325000Y-66686928D01*
X206925000Y-66686928D01*
X206761500Y-66703031D01*
X206604284Y-66750722D01*
X206459392Y-66828169D01*
X206425317Y-66856134D01*
X206398942Y-66834488D01*
X206247567Y-66753577D01*
X206083316Y-66703752D01*
X205912500Y-66686928D01*
X205337500Y-66686928D01*
X205166684Y-66703752D01*
X205002433Y-66753577D01*
X204851058Y-66834488D01*
X204750000Y-66917425D01*
X204648942Y-66834488D01*
X204497567Y-66753577D01*
X204333316Y-66703752D01*
X204162500Y-66686928D01*
X203587500Y-66686928D01*
X203416684Y-66703752D01*
X203252433Y-66753577D01*
X203101058Y-66834488D01*
X203009834Y-66909354D01*
X203001185Y-66898815D01*
X202904494Y-66819463D01*
X202794180Y-66760498D01*
X202674482Y-66724188D01*
X202550000Y-66711928D01*
X199550000Y-66711928D01*
X199425518Y-66724188D01*
X199305820Y-66760498D01*
X199195506Y-66819463D01*
X199098815Y-66898815D01*
X199019463Y-66995506D01*
X198960498Y-67105820D01*
X198924188Y-67225518D01*
X198911928Y-67350000D01*
X198911928Y-69850000D01*
X198924188Y-69974482D01*
X198960498Y-70094180D01*
X199019463Y-70204494D01*
X199098815Y-70301185D01*
X199195506Y-70380537D01*
X199305820Y-70439502D01*
X199425518Y-70475812D01*
X199550000Y-70488072D01*
X202550000Y-70488072D01*
X202674482Y-70475812D01*
X202712565Y-70464260D01*
X202715000Y-70614250D01*
X202873750Y-70773000D01*
X203760500Y-70773000D01*
X203760500Y-70753000D01*
X203990010Y-70753000D01*
X203990010Y-70783991D01*
X203985970Y-70825010D01*
X203990010Y-70866028D01*
X203990010Y-71047000D01*
X203760500Y-71047000D01*
X203760500Y-71027000D01*
X202873750Y-71027000D01*
X202715000Y-71185750D01*
X202711928Y-71375000D01*
X202724188Y-71499482D01*
X202760498Y-71619180D01*
X202819463Y-71729494D01*
X202898815Y-71826185D01*
X202995506Y-71905537D01*
X203088392Y-71955186D01*
X203032089Y-72064219D01*
X202997483Y-72184420D01*
X202986992Y-72309063D01*
X202990000Y-72814250D01*
X203148750Y-72973000D01*
X203564989Y-72973000D01*
X203564989Y-73116007D01*
X203575921Y-73227000D01*
X203148750Y-73227000D01*
X202990000Y-73385750D01*
X202988337Y-73664987D01*
X202920497Y-73664987D01*
X202903937Y-73640203D01*
X202759774Y-73496040D01*
X202590256Y-73382772D01*
X202401898Y-73304751D01*
X202201939Y-73264977D01*
X201998061Y-73264977D01*
X201798102Y-73304751D01*
X201609744Y-73382772D01*
X201440226Y-73496040D01*
X201296063Y-73640203D01*
X201182795Y-73809721D01*
X201104774Y-73998079D01*
X201065000Y-74198038D01*
X201065000Y-74264987D01*
X199845855Y-74264987D01*
X199672500Y-74091633D01*
X199672500Y-73106603D01*
X199780820Y-73164502D01*
X199900518Y-73200812D01*
X200025000Y-73213072D01*
X200276750Y-73210000D01*
X200435500Y-73051250D01*
X200435500Y-72227000D01*
X200689500Y-72227000D01*
X200689500Y-73051250D01*
X200848250Y-73210000D01*
X201100000Y-73213072D01*
X201224482Y-73200812D01*
X201344180Y-73164502D01*
X201454494Y-73105537D01*
X201551185Y-73026185D01*
X201630537Y-72929494D01*
X201689502Y-72819180D01*
X201725812Y-72699482D01*
X201738072Y-72575000D01*
X201735000Y-72385750D01*
X201576250Y-72227000D01*
X200689500Y-72227000D01*
X200435500Y-72227000D01*
X200415500Y-72227000D01*
X200415500Y-71973000D01*
X200435500Y-71973000D01*
X200435500Y-71148750D01*
X200689500Y-71148750D01*
X200689500Y-71973000D01*
X201576250Y-71973000D01*
X201735000Y-71814250D01*
X201738072Y-71625000D01*
X201725812Y-71500518D01*
X201689502Y-71380820D01*
X201630537Y-71270506D01*
X201551185Y-71173815D01*
X201454494Y-71094463D01*
X201344180Y-71035498D01*
X201224482Y-70999188D01*
X201100000Y-70986928D01*
X200848250Y-70990000D01*
X200689500Y-71148750D01*
X200435500Y-71148750D01*
X200276750Y-70990000D01*
X200025000Y-70986928D01*
X199900518Y-70999188D01*
X199780820Y-71035498D01*
X199670506Y-71094463D01*
X199622606Y-71133774D01*
X199472567Y-71053577D01*
X199308316Y-71003752D01*
X199137500Y-70986928D01*
X198537500Y-70986928D01*
X198366684Y-71003752D01*
X198267071Y-71033969D01*
X198285442Y-70973408D01*
X198301906Y-70806250D01*
X198301906Y-70293750D01*
X198285442Y-70126592D01*
X198236684Y-69965858D01*
X198157505Y-69817725D01*
X198137441Y-69793277D01*
X198180665Y-69740608D01*
X198258112Y-69595716D01*
X198305803Y-69438500D01*
X198321906Y-69275000D01*
X198321906Y-68725000D01*
X198305803Y-68561500D01*
X198258112Y-68404284D01*
X198180665Y-68259392D01*
X198076440Y-68132394D01*
X197949442Y-68028169D01*
X197804550Y-67950722D01*
X197647334Y-67903031D01*
X197576971Y-67896101D01*
X197524094Y-67843224D01*
X197495228Y-67698102D01*
X197417207Y-67509744D01*
X197303939Y-67340226D01*
X197159776Y-67196063D01*
X196990258Y-67082795D01*
X196801900Y-67004774D01*
X196601941Y-66965000D01*
X196398063Y-66965000D01*
X196198104Y-67004774D01*
X196009746Y-67082795D01*
X195840228Y-67196063D01*
X195696065Y-67340226D01*
X195582797Y-67509744D01*
X195504776Y-67698102D01*
X195467216Y-67886928D01*
X195433834Y-67886928D01*
X195270334Y-67903031D01*
X195113118Y-67950722D01*
X194968226Y-68028169D01*
X194841228Y-68132394D01*
X194737003Y-68259392D01*
X194659556Y-68404284D01*
X194611865Y-68561500D01*
X194595762Y-68725000D01*
X194595762Y-69275000D01*
X194611865Y-69438500D01*
X194659556Y-69595716D01*
X194737003Y-69740608D01*
X194760227Y-69768906D01*
X194720163Y-69817725D01*
X194640984Y-69965858D01*
X194592226Y-70126592D01*
X194575762Y-70293750D01*
X194575762Y-70418995D01*
X194324463Y-70251082D01*
X194026912Y-70127832D01*
X193711033Y-70065000D01*
X193388967Y-70065000D01*
X193073088Y-70127832D01*
X192775537Y-70251082D01*
X192507748Y-70430013D01*
X192280013Y-70657748D01*
X192101082Y-70925537D01*
X191977832Y-71223088D01*
X191915000Y-71538967D01*
X191915000Y-71861033D01*
X191977832Y-72176912D01*
X192101082Y-72474463D01*
X192280013Y-72742252D01*
X192507748Y-72969987D01*
X192604935Y-73034925D01*
X192594192Y-73064587D01*
X193550000Y-74020395D01*
X193564143Y-74006253D01*
X193743748Y-74185858D01*
X193729605Y-74200000D01*
X193743748Y-74214143D01*
X193564143Y-74393748D01*
X193550000Y-74379605D01*
X193535858Y-74393748D01*
X193356253Y-74214143D01*
X193370395Y-74200000D01*
X192414587Y-73244192D01*
X192150186Y-73339956D01*
X192009296Y-73629571D01*
X191927616Y-73941108D01*
X191908282Y-74262595D01*
X191660000Y-74262595D01*
X191660000Y-67525793D01*
X191798382Y-67664175D01*
X192107118Y-67870466D01*
X192450166Y-68012561D01*
X192814344Y-68085000D01*
X193185656Y-68085000D01*
X193549834Y-68012561D01*
X193892882Y-67870466D01*
X194201618Y-67664175D01*
X194464175Y-67401618D01*
X194670466Y-67092882D01*
X194812561Y-66749834D01*
X194885000Y-66385656D01*
X194885000Y-66014344D01*
X194812561Y-65650166D01*
X194670466Y-65307118D01*
X194464175Y-64998382D01*
X194325793Y-64860000D01*
X216674207Y-64860000D01*
X216535825Y-64998382D01*
G37*
%TD.AperFunction*%
D18*
X195723334Y-73573000D02*
X195743334Y-73573000D01*
X195743334Y-73827000D01*
X195723334Y-73827000D01*
X195723334Y-73847000D01*
X195469334Y-73847000D01*
X195469334Y-73827000D01*
X195449334Y-73827000D01*
X195449334Y-73573000D01*
X195469334Y-73573000D01*
X195469334Y-73553000D01*
X195723334Y-73553000D01*
X195723334Y-73573000D01*
%TA.AperFunction,Conductor*%
D19*
G36*
X195723334Y-73573000D02*
G01*
X195743334Y-73573000D01*
X195743334Y-73827000D01*
X195723334Y-73827000D01*
X195723334Y-73847000D01*
X195469334Y-73847000D01*
X195469334Y-73827000D01*
X195449334Y-73827000D01*
X195449334Y-73573000D01*
X195469334Y-73573000D01*
X195469334Y-73553000D01*
X195723334Y-73553000D01*
X195723334Y-73573000D01*
G37*
%TD.AperFunction*%
%TD*%
M02*
