%TF.GenerationSoftware,KiCad,Pcbnew,5.1.12-1.fc35*%
%TF.CreationDate,2021-11-27T14:31:25+00:00*%
%TF.ProjectId,kiCAD_TriSchmittHoleMount_v003.1,6b694341-445f-4547-9269-5363686d6974,rev?*%
%TF.SameCoordinates,Original*%
%TF.FileFunction,Legend,Top*%
%TF.FilePolarity,Positive*%
%FSLAX46Y46*%
G04 Gerber Fmt 4.6, Leading zero omitted, Abs format (unit mm)*
G04 Created by KiCad (PCBNEW 5.1.12-1.fc35) date 2021-11-27 14:31:25*
%MOMM*%
%LPD*%
G01*
G04 APERTURE LIST*
%ADD10C,0.100000*%
%ADD11C,0.120000*%
%ADD12C,0.150000*%
G04 APERTURE END LIST*
D10*
X192409523Y-74557142D02*
X192361904Y-74604761D01*
X192219047Y-74652380D01*
X192123809Y-74652380D01*
X191980952Y-74604761D01*
X191885714Y-74509523D01*
X191838095Y-74414285D01*
X191790476Y-74223809D01*
X191790476Y-74080952D01*
X191838095Y-73890476D01*
X191885714Y-73795238D01*
X191980952Y-73700000D01*
X192123809Y-73652380D01*
X192219047Y-73652380D01*
X192361904Y-73700000D01*
X192409523Y-73747619D01*
X191861904Y-76866666D02*
X192338095Y-76866666D01*
X191766666Y-77152380D02*
X192100000Y-76152380D01*
X192433333Y-77152380D01*
X192171428Y-71628571D02*
X192314285Y-71676190D01*
X192361904Y-71723809D01*
X192409523Y-71819047D01*
X192409523Y-71961904D01*
X192361904Y-72057142D01*
X192314285Y-72104761D01*
X192219047Y-72152380D01*
X191838095Y-72152380D01*
X191838095Y-71152380D01*
X192171428Y-71152380D01*
X192266666Y-71200000D01*
X192314285Y-71247619D01*
X192361904Y-71342857D01*
X192361904Y-71438095D01*
X192314285Y-71533333D01*
X192266666Y-71580952D01*
X192171428Y-71628571D01*
X191838095Y-71628571D01*
X196428571Y-65450000D02*
X196342857Y-65407142D01*
X196214285Y-65407142D01*
X196085714Y-65450000D01*
X196000000Y-65535714D01*
X195957142Y-65621428D01*
X195914285Y-65792857D01*
X195914285Y-65921428D01*
X195957142Y-66092857D01*
X196000000Y-66178571D01*
X196085714Y-66264285D01*
X196214285Y-66307142D01*
X196300000Y-66307142D01*
X196428571Y-66264285D01*
X196471428Y-66221428D01*
X196471428Y-65921428D01*
X196300000Y-65921428D01*
X196857142Y-66307142D02*
X196857142Y-65707142D01*
X196857142Y-65878571D02*
X196900000Y-65792857D01*
X196942857Y-65750000D01*
X197028571Y-65707142D01*
X197114285Y-65707142D01*
X197800000Y-66307142D02*
X197800000Y-65835714D01*
X197757142Y-65750000D01*
X197671428Y-65707142D01*
X197500000Y-65707142D01*
X197414285Y-65750000D01*
X197800000Y-66264285D02*
X197714285Y-66307142D01*
X197500000Y-66307142D01*
X197414285Y-66264285D01*
X197371428Y-66178571D01*
X197371428Y-66092857D01*
X197414285Y-66007142D01*
X197500000Y-65964285D01*
X197714285Y-65964285D01*
X197800000Y-65921428D01*
X198228571Y-66307142D02*
X198228571Y-65407142D01*
X198614285Y-66307142D02*
X198614285Y-65835714D01*
X198571428Y-65750000D01*
X198485714Y-65707142D01*
X198357142Y-65707142D01*
X198271428Y-65750000D01*
X198228571Y-65792857D01*
X199428571Y-66307142D02*
X199428571Y-65835714D01*
X199385714Y-65750000D01*
X199300000Y-65707142D01*
X199128571Y-65707142D01*
X199042857Y-65750000D01*
X199428571Y-66264285D02*
X199342857Y-66307142D01*
X199128571Y-66307142D01*
X199042857Y-66264285D01*
X199000000Y-66178571D01*
X199000000Y-66092857D01*
X199042857Y-66007142D01*
X199128571Y-65964285D01*
X199342857Y-65964285D01*
X199428571Y-65921428D01*
X199857142Y-66307142D02*
X199857142Y-65707142D01*
X199857142Y-65792857D02*
X199900000Y-65750000D01*
X199985714Y-65707142D01*
X200114285Y-65707142D01*
X200200000Y-65750000D01*
X200242857Y-65835714D01*
X200242857Y-66307142D01*
X200242857Y-65835714D02*
X200285714Y-65750000D01*
X200371428Y-65707142D01*
X200500000Y-65707142D01*
X200585714Y-65750000D01*
X200628571Y-65835714D01*
X200628571Y-66307142D01*
X201057142Y-65964285D02*
X201742857Y-65964285D01*
X202685714Y-66307142D02*
X202385714Y-65878571D01*
X202171428Y-66307142D02*
X202171428Y-65407142D01*
X202514285Y-65407142D01*
X202600000Y-65450000D01*
X202642857Y-65492857D01*
X202685714Y-65578571D01*
X202685714Y-65707142D01*
X202642857Y-65792857D01*
X202600000Y-65835714D01*
X202514285Y-65878571D01*
X202171428Y-65878571D01*
X217000000Y-76352380D02*
X217095238Y-76352380D01*
X217190476Y-76400000D01*
X217238095Y-76447619D01*
X217285714Y-76542857D01*
X217333333Y-76733333D01*
X217333333Y-76971428D01*
X217285714Y-77161904D01*
X217238095Y-77257142D01*
X217190476Y-77304761D01*
X217095238Y-77352380D01*
X217000000Y-77352380D01*
X216904762Y-77304761D01*
X216857143Y-77257142D01*
X216809524Y-77161904D01*
X216761905Y-76971428D01*
X216761905Y-76733333D01*
X216809524Y-76542857D01*
X216857143Y-76447619D01*
X216904762Y-76400000D01*
X217000000Y-76352380D01*
X217666667Y-76685714D02*
X217904762Y-77352380D01*
X218142857Y-76685714D01*
X216860238Y-78852380D02*
X217193571Y-79852380D01*
X217526904Y-78852380D01*
X218288809Y-79804761D02*
X218193571Y-79852380D01*
X218003095Y-79852380D01*
X217907857Y-79804761D01*
X217860238Y-79757142D01*
X217812619Y-79661904D01*
X217812619Y-79376190D01*
X217860238Y-79280952D01*
X217907857Y-79233333D01*
X218003095Y-79185714D01*
X218193571Y-79185714D01*
X218288809Y-79233333D01*
X219145952Y-79804761D02*
X219050714Y-79852380D01*
X218860238Y-79852380D01*
X218765000Y-79804761D01*
X218717380Y-79757142D01*
X218669761Y-79661904D01*
X218669761Y-79376190D01*
X218717380Y-79280952D01*
X218765000Y-79233333D01*
X218860238Y-79185714D01*
X219050714Y-79185714D01*
X219145952Y-79233333D01*
X216761905Y-74704761D02*
X216904762Y-74752380D01*
X217142857Y-74752380D01*
X217238095Y-74704761D01*
X217285714Y-74657142D01*
X217333333Y-74561904D01*
X217333333Y-74466666D01*
X217285714Y-74371428D01*
X217238095Y-74323809D01*
X217142857Y-74276190D01*
X216952381Y-74228571D01*
X216857143Y-74180952D01*
X216809524Y-74133333D01*
X216761905Y-74038095D01*
X216761905Y-73942857D01*
X216809524Y-73847619D01*
X216857143Y-73800000D01*
X216952381Y-73752380D01*
X217190476Y-73752380D01*
X217333333Y-73800000D01*
X217666667Y-74085714D02*
X217857143Y-74752380D01*
X218047619Y-74276190D01*
X218238095Y-74752380D01*
X218428571Y-74085714D01*
X217142857Y-71728571D02*
X217285714Y-71776190D01*
X217333333Y-71823809D01*
X217380952Y-71919047D01*
X217380952Y-72061904D01*
X217333333Y-72157142D01*
X217285714Y-72204761D01*
X217190476Y-72252380D01*
X216809524Y-72252380D01*
X216809524Y-71252380D01*
X217142857Y-71252380D01*
X217238095Y-71300000D01*
X217285714Y-71347619D01*
X217333333Y-71442857D01*
X217333333Y-71538095D01*
X217285714Y-71633333D01*
X217238095Y-71680952D01*
X217142857Y-71728571D01*
X216809524Y-71728571D01*
X216761904Y-69366666D02*
X217238095Y-69366666D01*
X216666666Y-69652380D02*
X217000000Y-68652380D01*
X217333333Y-69652380D01*
X203635714Y-79485714D02*
X203935714Y-79485714D01*
X204064285Y-79957142D02*
X203635714Y-79957142D01*
X203635714Y-79057142D01*
X204064285Y-79057142D01*
X204450000Y-79357142D02*
X204450000Y-79957142D01*
X204450000Y-79442857D02*
X204492857Y-79400000D01*
X204578571Y-79357142D01*
X204707142Y-79357142D01*
X204792857Y-79400000D01*
X204835714Y-79485714D01*
X204835714Y-79957142D01*
X205650000Y-79914285D02*
X205564285Y-79957142D01*
X205392857Y-79957142D01*
X205307142Y-79914285D01*
X205264285Y-79871428D01*
X205221428Y-79785714D01*
X205221428Y-79528571D01*
X205264285Y-79442857D01*
X205307142Y-79400000D01*
X205392857Y-79357142D01*
X205564285Y-79357142D01*
X205650000Y-79400000D01*
X206164285Y-79957142D02*
X206078571Y-79914285D01*
X206035714Y-79871428D01*
X205992857Y-79785714D01*
X205992857Y-79528571D01*
X206035714Y-79442857D01*
X206078571Y-79400000D01*
X206164285Y-79357142D01*
X206292857Y-79357142D01*
X206378571Y-79400000D01*
X206421428Y-79442857D01*
X206464285Y-79528571D01*
X206464285Y-79785714D01*
X206421428Y-79871428D01*
X206378571Y-79914285D01*
X206292857Y-79957142D01*
X206164285Y-79957142D01*
X207235714Y-79957142D02*
X207235714Y-79057142D01*
X207235714Y-79914285D02*
X207150000Y-79957142D01*
X206978571Y-79957142D01*
X206892857Y-79914285D01*
X206850000Y-79871428D01*
X206807142Y-79785714D01*
X206807142Y-79528571D01*
X206850000Y-79442857D01*
X206892857Y-79400000D01*
X206978571Y-79357142D01*
X207150000Y-79357142D01*
X207235714Y-79400000D01*
X208007142Y-79914285D02*
X207921428Y-79957142D01*
X207750000Y-79957142D01*
X207664285Y-79914285D01*
X207621428Y-79828571D01*
X207621428Y-79485714D01*
X207664285Y-79400000D01*
X207750000Y-79357142D01*
X207921428Y-79357142D01*
X208007142Y-79400000D01*
X208050000Y-79485714D01*
X208050000Y-79571428D01*
X207621428Y-79657142D01*
X208435714Y-79957142D02*
X208435714Y-79357142D01*
X208435714Y-79528571D02*
X208478571Y-79442857D01*
X208521428Y-79400000D01*
X208607142Y-79357142D01*
X208692857Y-79357142D01*
X203721428Y-81364285D02*
X203850000Y-81407142D01*
X204064285Y-81407142D01*
X204150000Y-81364285D01*
X204192857Y-81321428D01*
X204235714Y-81235714D01*
X204235714Y-81150000D01*
X204192857Y-81064285D01*
X204150000Y-81021428D01*
X204064285Y-80978571D01*
X203892857Y-80935714D01*
X203807142Y-80892857D01*
X203764285Y-80850000D01*
X203721428Y-80764285D01*
X203721428Y-80678571D01*
X203764285Y-80592857D01*
X203807142Y-80550000D01*
X203892857Y-80507142D01*
X204107142Y-80507142D01*
X204235714Y-80550000D01*
X205007142Y-81364285D02*
X204921428Y-81407142D01*
X204750000Y-81407142D01*
X204664285Y-81364285D01*
X204621428Y-81321428D01*
X204578571Y-81235714D01*
X204578571Y-80978571D01*
X204621428Y-80892857D01*
X204664285Y-80850000D01*
X204750000Y-80807142D01*
X204921428Y-80807142D01*
X205007142Y-80850000D01*
X205392857Y-81407142D02*
X205392857Y-80507142D01*
X205778571Y-81407142D02*
X205778571Y-80935714D01*
X205735714Y-80850000D01*
X205650000Y-80807142D01*
X205521428Y-80807142D01*
X205435714Y-80850000D01*
X205392857Y-80892857D01*
X206207142Y-81407142D02*
X206207142Y-80807142D01*
X206207142Y-80892857D02*
X206250000Y-80850000D01*
X206335714Y-80807142D01*
X206464285Y-80807142D01*
X206550000Y-80850000D01*
X206592857Y-80935714D01*
X206592857Y-81407142D01*
X206592857Y-80935714D02*
X206635714Y-80850000D01*
X206721428Y-80807142D01*
X206850000Y-80807142D01*
X206935714Y-80850000D01*
X206978571Y-80935714D01*
X206978571Y-81407142D01*
X207407142Y-81407142D02*
X207407142Y-80807142D01*
X207407142Y-80507142D02*
X207364285Y-80550000D01*
X207407142Y-80592857D01*
X207450000Y-80550000D01*
X207407142Y-80507142D01*
X207407142Y-80592857D01*
X207707142Y-80807142D02*
X208050000Y-80807142D01*
X207835714Y-80507142D02*
X207835714Y-81278571D01*
X207878571Y-81364285D01*
X207964285Y-81407142D01*
X208050000Y-81407142D01*
X208221428Y-80807142D02*
X208564285Y-80807142D01*
X208350000Y-80507142D02*
X208350000Y-81278571D01*
X208392857Y-81364285D01*
X208478571Y-81407142D01*
X208564285Y-81407142D01*
X200528571Y-81957142D02*
X201042857Y-81957142D01*
X200785714Y-82857142D02*
X200785714Y-81957142D01*
X201342857Y-82857142D02*
X201342857Y-82257142D01*
X201342857Y-82428571D02*
X201385714Y-82342857D01*
X201428571Y-82300000D01*
X201514285Y-82257142D01*
X201600000Y-82257142D01*
X201900000Y-82857142D02*
X201900000Y-82257142D01*
X201900000Y-81957142D02*
X201857142Y-82000000D01*
X201900000Y-82042857D01*
X201942857Y-82000000D01*
X201900000Y-81957142D01*
X201900000Y-82042857D01*
X202714285Y-82257142D02*
X202714285Y-82985714D01*
X202671428Y-83071428D01*
X202628571Y-83114285D01*
X202542857Y-83157142D01*
X202414285Y-83157142D01*
X202328571Y-83114285D01*
X202714285Y-82814285D02*
X202628571Y-82857142D01*
X202457142Y-82857142D01*
X202371428Y-82814285D01*
X202328571Y-82771428D01*
X202285714Y-82685714D01*
X202285714Y-82428571D01*
X202328571Y-82342857D01*
X202371428Y-82300000D01*
X202457142Y-82257142D01*
X202628571Y-82257142D01*
X202714285Y-82300000D01*
X203528571Y-82257142D02*
X203528571Y-82985714D01*
X203485714Y-83071428D01*
X203442857Y-83114285D01*
X203357142Y-83157142D01*
X203228571Y-83157142D01*
X203142857Y-83114285D01*
X203528571Y-82814285D02*
X203442857Y-82857142D01*
X203271428Y-82857142D01*
X203185714Y-82814285D01*
X203142857Y-82771428D01*
X203100000Y-82685714D01*
X203100000Y-82428571D01*
X203142857Y-82342857D01*
X203185714Y-82300000D01*
X203271428Y-82257142D01*
X203442857Y-82257142D01*
X203528571Y-82300000D01*
X204300000Y-82814285D02*
X204214285Y-82857142D01*
X204042857Y-82857142D01*
X203957142Y-82814285D01*
X203914285Y-82728571D01*
X203914285Y-82385714D01*
X203957142Y-82300000D01*
X204042857Y-82257142D01*
X204214285Y-82257142D01*
X204300000Y-82300000D01*
X204342857Y-82385714D01*
X204342857Y-82471428D01*
X203914285Y-82557142D01*
X204728571Y-82857142D02*
X204728571Y-82257142D01*
X204728571Y-82428571D02*
X204771428Y-82342857D01*
X204814285Y-82300000D01*
X204900000Y-82257142D01*
X204985714Y-82257142D01*
X205885714Y-82257142D02*
X206100000Y-82857142D01*
X206314285Y-82257142D01*
X206571428Y-81957142D02*
X207128571Y-81957142D01*
X206828571Y-82300000D01*
X206957142Y-82300000D01*
X207042857Y-82342857D01*
X207085714Y-82385714D01*
X207128571Y-82471428D01*
X207128571Y-82685714D01*
X207085714Y-82771428D01*
X207042857Y-82814285D01*
X206957142Y-82857142D01*
X206700000Y-82857142D01*
X206614285Y-82814285D01*
X206571428Y-82771428D01*
X207514285Y-82771428D02*
X207557142Y-82814285D01*
X207514285Y-82857142D01*
X207471428Y-82814285D01*
X207514285Y-82771428D01*
X207514285Y-82857142D01*
X208414285Y-82857142D02*
X207900000Y-82857142D01*
X208157142Y-82857142D02*
X208157142Y-81957142D01*
X208071428Y-82085714D01*
X207985714Y-82171428D01*
X207900000Y-82214285D01*
X209057142Y-83200000D02*
X209014285Y-83157142D01*
X208928571Y-83028571D01*
X208885714Y-82942857D01*
X208842857Y-82814285D01*
X208800000Y-82600000D01*
X208800000Y-82428571D01*
X208842857Y-82214285D01*
X208885714Y-82085714D01*
X208928571Y-82000000D01*
X209014285Y-81871428D01*
X209057142Y-81828571D01*
X209400000Y-82857142D02*
X209400000Y-81957142D01*
X209400000Y-82385714D02*
X209914285Y-82385714D01*
X209914285Y-82857142D02*
X209914285Y-81957142D01*
X210342857Y-82857142D02*
X210342857Y-81957142D01*
X210642857Y-82600000D01*
X210942857Y-81957142D01*
X210942857Y-82857142D01*
X211285714Y-83200000D02*
X211328571Y-83157142D01*
X211414285Y-83028571D01*
X211457142Y-82942857D01*
X211500000Y-82814285D01*
X211542857Y-82600000D01*
X211542857Y-82428571D01*
X211500000Y-82214285D01*
X211457142Y-82085714D01*
X211414285Y-82000000D01*
X211328571Y-81871428D01*
X211285714Y-81828571D01*
D11*
%TO.C,R7*%
X200537258Y-77922500D02*
X200062742Y-77922500D01*
X200537258Y-76877500D02*
X200062742Y-76877500D01*
%TO.C,D4*%
X197281334Y-79065000D02*
X194821334Y-79065000D01*
X194821334Y-79065000D02*
X194821334Y-80535000D01*
X194821334Y-80535000D02*
X197281334Y-80535000D01*
%TO.C,J1*%
X216030000Y-67740000D02*
X210010000Y-67740000D01*
X210010000Y-67740000D02*
X210010000Y-80660000D01*
X210010000Y-80660000D02*
X216030000Y-80660000D01*
X216030000Y-80660000D02*
X216030000Y-67740000D01*
X215000000Y-67450000D02*
X211000000Y-67450000D01*
X210010000Y-69120000D02*
X211010000Y-69120000D01*
X211010000Y-69120000D02*
X211010000Y-79280000D01*
X211010000Y-79280000D02*
X210010000Y-79280000D01*
X211010000Y-69120000D02*
X211540000Y-69370000D01*
X211540000Y-69370000D02*
X211540000Y-79030000D01*
X211540000Y-79030000D02*
X211010000Y-79280000D01*
X210010000Y-69370000D02*
X211010000Y-69370000D01*
X210010000Y-79030000D02*
X211010000Y-79030000D01*
X216030000Y-68320000D02*
X215430000Y-68320000D01*
X215430000Y-68320000D02*
X215430000Y-69920000D01*
X215430000Y-69920000D02*
X216030000Y-69920000D01*
X216030000Y-70860000D02*
X215430000Y-70860000D01*
X215430000Y-70860000D02*
X215430000Y-72460000D01*
X215430000Y-72460000D02*
X216030000Y-72460000D01*
X216030000Y-73400000D02*
X215430000Y-73400000D01*
X215430000Y-73400000D02*
X215430000Y-75000000D01*
X215430000Y-75000000D02*
X216030000Y-75000000D01*
X216030000Y-75940000D02*
X215430000Y-75940000D01*
X215430000Y-75940000D02*
X215430000Y-77540000D01*
X215430000Y-77540000D02*
X216030000Y-77540000D01*
X216030000Y-78480000D02*
X215430000Y-78480000D01*
X215430000Y-78480000D02*
X215430000Y-80080000D01*
X215430000Y-80080000D02*
X216030000Y-80080000D01*
%TO.C,U1*%
X203250000Y-76300000D02*
X203250000Y-73300000D01*
X206250000Y-76300000D02*
X206250000Y-72300000D01*
%TO.C,R6*%
X204495276Y-69872500D02*
X205004724Y-69872500D01*
X204495276Y-68827500D02*
X205004724Y-68827500D01*
%TO.C,R5*%
X207712742Y-68322500D02*
X208187258Y-68322500D01*
X207712742Y-67277500D02*
X208187258Y-67277500D01*
%TO.C,R4*%
X196696092Y-71577500D02*
X196221576Y-71577500D01*
X196696092Y-72622500D02*
X196221576Y-72622500D01*
%TO.C,R3*%
X196221576Y-69522500D02*
X196696092Y-69522500D01*
X196221576Y-68477500D02*
X196696092Y-68477500D01*
%TO.C,R2*%
X196696092Y-77295834D02*
X196221576Y-77295834D01*
X196696092Y-76250834D02*
X196221576Y-76250834D01*
%TO.C,R1*%
X196221576Y-74714168D02*
X196696092Y-74714168D01*
X196221576Y-75759168D02*
X196696092Y-75759168D01*
%TO.C,D3*%
X203090000Y-68535000D02*
X205550000Y-68535000D01*
X203090000Y-67065000D02*
X203090000Y-68535000D01*
X205550000Y-67065000D02*
X203090000Y-67065000D01*
%TO.C,D2*%
X197923834Y-69815000D02*
X195638834Y-69815000D01*
X197923834Y-71285000D02*
X197923834Y-69815000D01*
X195638834Y-71285000D02*
X197923834Y-71285000D01*
%TO.C,D1*%
X195638834Y-78985000D02*
X198123834Y-78985000D01*
X198123834Y-78985000D02*
X198123834Y-77615000D01*
X198123834Y-77615000D02*
X195638834Y-77615000D01*
%TO.C,C3*%
X204603733Y-71410000D02*
X204896267Y-71410000D01*
X204603733Y-70390000D02*
X204896267Y-70390000D01*
%TO.C,C2*%
X199846267Y-71590000D02*
X199553733Y-71590000D01*
X199846267Y-72610000D02*
X199553733Y-72610000D01*
%TO.C,C1*%
X196312567Y-73190000D02*
X196605101Y-73190000D01*
X196312567Y-74210000D02*
X196605101Y-74210000D01*
%TO.C,R7*%
D12*
X200133333Y-79282380D02*
X199800000Y-78806190D01*
X199561904Y-79282380D02*
X199561904Y-78282380D01*
X199942857Y-78282380D01*
X200038095Y-78330000D01*
X200085714Y-78377619D01*
X200133333Y-78472857D01*
X200133333Y-78615714D01*
X200085714Y-78710952D01*
X200038095Y-78758571D01*
X199942857Y-78806190D01*
X199561904Y-78806190D01*
X200466666Y-78282380D02*
X201133333Y-78282380D01*
X200704761Y-79282380D01*
%TO.C,D4*%
X195743238Y-78822380D02*
X195743238Y-77822380D01*
X195981334Y-77822380D01*
X196124191Y-77870000D01*
X196219429Y-77965238D01*
X196267048Y-78060476D01*
X196314667Y-78250952D01*
X196314667Y-78393809D01*
X196267048Y-78584285D01*
X196219429Y-78679523D01*
X196124191Y-78774761D01*
X195981334Y-78822380D01*
X195743238Y-78822380D01*
X197171810Y-78155714D02*
X197171810Y-78822380D01*
X196933714Y-77774761D02*
X196695619Y-78489047D01*
X197314667Y-78489047D01*
%TO.C,U1*%
X206538095Y-73952380D02*
X206538095Y-74761904D01*
X206585714Y-74857142D01*
X206633333Y-74904761D01*
X206728571Y-74952380D01*
X206919047Y-74952380D01*
X207014285Y-74904761D01*
X207061904Y-74857142D01*
X207109523Y-74761904D01*
X207109523Y-73952380D01*
X208109523Y-74952380D02*
X207538095Y-74952380D01*
X207823809Y-74952380D02*
X207823809Y-73952380D01*
X207728571Y-74095238D01*
X207633333Y-74190476D01*
X207538095Y-74238095D01*
%TO.C,R6*%
X207233333Y-69852380D02*
X206900000Y-69376190D01*
X206661904Y-69852380D02*
X206661904Y-68852380D01*
X207042857Y-68852380D01*
X207138095Y-68900000D01*
X207185714Y-68947619D01*
X207233333Y-69042857D01*
X207233333Y-69185714D01*
X207185714Y-69280952D01*
X207138095Y-69328571D01*
X207042857Y-69376190D01*
X206661904Y-69376190D01*
X208090476Y-68852380D02*
X207900000Y-68852380D01*
X207804761Y-68900000D01*
X207757142Y-68947619D01*
X207661904Y-69090476D01*
X207614285Y-69280952D01*
X207614285Y-69661904D01*
X207661904Y-69757142D01*
X207709523Y-69804761D01*
X207804761Y-69852380D01*
X207995238Y-69852380D01*
X208090476Y-69804761D01*
X208138095Y-69757142D01*
X208185714Y-69661904D01*
X208185714Y-69423809D01*
X208138095Y-69328571D01*
X208090476Y-69280952D01*
X207995238Y-69233333D01*
X207804761Y-69233333D01*
X207709523Y-69280952D01*
X207661904Y-69328571D01*
X207614285Y-69423809D01*
%TO.C,R5*%
X207783333Y-66822380D02*
X207450000Y-66346190D01*
X207211904Y-66822380D02*
X207211904Y-65822380D01*
X207592857Y-65822380D01*
X207688095Y-65870000D01*
X207735714Y-65917619D01*
X207783333Y-66012857D01*
X207783333Y-66155714D01*
X207735714Y-66250952D01*
X207688095Y-66298571D01*
X207592857Y-66346190D01*
X207211904Y-66346190D01*
X208688095Y-65822380D02*
X208211904Y-65822380D01*
X208164285Y-66298571D01*
X208211904Y-66250952D01*
X208307142Y-66203333D01*
X208545238Y-66203333D01*
X208640476Y-66250952D01*
X208688095Y-66298571D01*
X208735714Y-66393809D01*
X208735714Y-66631904D01*
X208688095Y-66727142D01*
X208640476Y-66774761D01*
X208545238Y-66822380D01*
X208307142Y-66822380D01*
X208211904Y-66774761D01*
X208164285Y-66727142D01*
%TO.C,R4*%
X198833333Y-71252380D02*
X198500000Y-70776190D01*
X198261904Y-71252380D02*
X198261904Y-70252380D01*
X198642857Y-70252380D01*
X198738095Y-70300000D01*
X198785714Y-70347619D01*
X198833333Y-70442857D01*
X198833333Y-70585714D01*
X198785714Y-70680952D01*
X198738095Y-70728571D01*
X198642857Y-70776190D01*
X198261904Y-70776190D01*
X199690476Y-70585714D02*
X199690476Y-71252380D01*
X199452380Y-70204761D02*
X199214285Y-70919047D01*
X199833333Y-70919047D01*
%TO.C,R3*%
X199152380Y-69166666D02*
X198676190Y-69500000D01*
X199152380Y-69738095D02*
X198152380Y-69738095D01*
X198152380Y-69357142D01*
X198200000Y-69261904D01*
X198247619Y-69214285D01*
X198342857Y-69166666D01*
X198485714Y-69166666D01*
X198580952Y-69214285D01*
X198628571Y-69261904D01*
X198676190Y-69357142D01*
X198676190Y-69738095D01*
X198152380Y-68833333D02*
X198152380Y-68214285D01*
X198533333Y-68547619D01*
X198533333Y-68404761D01*
X198580952Y-68309523D01*
X198628571Y-68261904D01*
X198723809Y-68214285D01*
X198961904Y-68214285D01*
X199057142Y-68261904D01*
X199104761Y-68309523D01*
X199152380Y-68404761D01*
X199152380Y-68690476D01*
X199104761Y-68785714D01*
X199057142Y-68833333D01*
%TO.C,R2*%
X198733333Y-77152380D02*
X198400000Y-76676190D01*
X198161904Y-77152380D02*
X198161904Y-76152380D01*
X198542857Y-76152380D01*
X198638095Y-76200000D01*
X198685714Y-76247619D01*
X198733333Y-76342857D01*
X198733333Y-76485714D01*
X198685714Y-76580952D01*
X198638095Y-76628571D01*
X198542857Y-76676190D01*
X198161904Y-76676190D01*
X199114285Y-76247619D02*
X199161904Y-76200000D01*
X199257142Y-76152380D01*
X199495238Y-76152380D01*
X199590476Y-76200000D01*
X199638095Y-76247619D01*
X199685714Y-76342857D01*
X199685714Y-76438095D01*
X199638095Y-76580952D01*
X199066666Y-77152380D01*
X199685714Y-77152380D01*
%TO.C,R1*%
X199533333Y-75652380D02*
X199200000Y-75176190D01*
X198961904Y-75652380D02*
X198961904Y-74652380D01*
X199342857Y-74652380D01*
X199438095Y-74700000D01*
X199485714Y-74747619D01*
X199533333Y-74842857D01*
X199533333Y-74985714D01*
X199485714Y-75080952D01*
X199438095Y-75128571D01*
X199342857Y-75176190D01*
X198961904Y-75176190D01*
X200485714Y-75652380D02*
X199914285Y-75652380D01*
X200200000Y-75652380D02*
X200200000Y-74652380D01*
X200104761Y-74795238D01*
X200009523Y-74890476D01*
X199914285Y-74938095D01*
%TO.C,D3*%
X204011904Y-66822380D02*
X204011904Y-65822380D01*
X204250000Y-65822380D01*
X204392857Y-65870000D01*
X204488095Y-65965238D01*
X204535714Y-66060476D01*
X204583333Y-66250952D01*
X204583333Y-66393809D01*
X204535714Y-66584285D01*
X204488095Y-66679523D01*
X204392857Y-66774761D01*
X204250000Y-66822380D01*
X204011904Y-66822380D01*
X204916666Y-65822380D02*
X205535714Y-65822380D01*
X205202380Y-66203333D01*
X205345238Y-66203333D01*
X205440476Y-66250952D01*
X205488095Y-66298571D01*
X205535714Y-66393809D01*
X205535714Y-66631904D01*
X205488095Y-66727142D01*
X205440476Y-66774761D01*
X205345238Y-66822380D01*
X205059523Y-66822380D01*
X204964285Y-66774761D01*
X204916666Y-66727142D01*
%TO.C,D2*%
X193261904Y-70552380D02*
X193261904Y-69552380D01*
X193500000Y-69552380D01*
X193642857Y-69600000D01*
X193738095Y-69695238D01*
X193785714Y-69790476D01*
X193833333Y-69980952D01*
X193833333Y-70123809D01*
X193785714Y-70314285D01*
X193738095Y-70409523D01*
X193642857Y-70504761D01*
X193500000Y-70552380D01*
X193261904Y-70552380D01*
X194214285Y-69647619D02*
X194261904Y-69600000D01*
X194357142Y-69552380D01*
X194595238Y-69552380D01*
X194690476Y-69600000D01*
X194738095Y-69647619D01*
X194785714Y-69742857D01*
X194785714Y-69838095D01*
X194738095Y-69980952D01*
X194166666Y-70552380D01*
X194785714Y-70552380D01*
%TO.C,D1*%
X193161904Y-79052380D02*
X193161904Y-78052380D01*
X193400000Y-78052380D01*
X193542857Y-78100000D01*
X193638095Y-78195238D01*
X193685714Y-78290476D01*
X193733333Y-78480952D01*
X193733333Y-78623809D01*
X193685714Y-78814285D01*
X193638095Y-78909523D01*
X193542857Y-79004761D01*
X193400000Y-79052380D01*
X193161904Y-79052380D01*
X194685714Y-79052380D02*
X194114285Y-79052380D01*
X194400000Y-79052380D02*
X194400000Y-78052380D01*
X194304761Y-78195238D01*
X194209523Y-78290476D01*
X194114285Y-78338095D01*
%TO.C,C3*%
X202033333Y-71157142D02*
X201985714Y-71204761D01*
X201842857Y-71252380D01*
X201747619Y-71252380D01*
X201604761Y-71204761D01*
X201509523Y-71109523D01*
X201461904Y-71014285D01*
X201414285Y-70823809D01*
X201414285Y-70680952D01*
X201461904Y-70490476D01*
X201509523Y-70395238D01*
X201604761Y-70300000D01*
X201747619Y-70252380D01*
X201842857Y-70252380D01*
X201985714Y-70300000D01*
X202033333Y-70347619D01*
X202366666Y-70252380D02*
X202985714Y-70252380D01*
X202652380Y-70633333D01*
X202795238Y-70633333D01*
X202890476Y-70680952D01*
X202938095Y-70728571D01*
X202985714Y-70823809D01*
X202985714Y-71061904D01*
X202938095Y-71157142D01*
X202890476Y-71204761D01*
X202795238Y-71252380D01*
X202509523Y-71252380D01*
X202414285Y-71204761D01*
X202366666Y-71157142D01*
%TO.C,C2*%
X202557142Y-72366666D02*
X202604761Y-72414285D01*
X202652380Y-72557142D01*
X202652380Y-72652380D01*
X202604761Y-72795238D01*
X202509523Y-72890476D01*
X202414285Y-72938095D01*
X202223809Y-72985714D01*
X202080952Y-72985714D01*
X201890476Y-72938095D01*
X201795238Y-72890476D01*
X201700000Y-72795238D01*
X201652380Y-72652380D01*
X201652380Y-72557142D01*
X201700000Y-72414285D01*
X201747619Y-72366666D01*
X201747619Y-71985714D02*
X201700000Y-71938095D01*
X201652380Y-71842857D01*
X201652380Y-71604761D01*
X201700000Y-71509523D01*
X201747619Y-71461904D01*
X201842857Y-71414285D01*
X201938095Y-71414285D01*
X202080952Y-71461904D01*
X202652380Y-72033333D01*
X202652380Y-71414285D01*
%TO.C,C1*%
X198933333Y-74057142D02*
X198885714Y-74104761D01*
X198742857Y-74152380D01*
X198647619Y-74152380D01*
X198504761Y-74104761D01*
X198409523Y-74009523D01*
X198361904Y-73914285D01*
X198314285Y-73723809D01*
X198314285Y-73580952D01*
X198361904Y-73390476D01*
X198409523Y-73295238D01*
X198504761Y-73200000D01*
X198647619Y-73152380D01*
X198742857Y-73152380D01*
X198885714Y-73200000D01*
X198933333Y-73247619D01*
X199885714Y-74152380D02*
X199314285Y-74152380D01*
X199600000Y-74152380D02*
X199600000Y-73152380D01*
X199504761Y-73295238D01*
X199409523Y-73390476D01*
X199314285Y-73438095D01*
%TD*%
M02*
