%TF.GenerationSoftware,KiCad,Pcbnew,5.1.12-1.fc35*%
%TF.CreationDate,2021-11-27T14:31:25+00:00*%
%TF.ProjectId,kiCAD_TriSchmittHoleMount_v003.1,6b694341-445f-4547-9269-5363686d6974,rev?*%
%TF.SameCoordinates,Original*%
%TF.FileFunction,Copper,L2,Bot*%
%TF.FilePolarity,Positive*%
%FSLAX46Y46*%
G04 Gerber Fmt 4.6, Leading zero omitted, Abs format (unit mm)*
G04 Created by KiCad (PCBNEW 5.1.12-1.fc35) date 2021-11-27 14:31:25*
%MOMM*%
%LPD*%
G01*
G04 APERTURE LIST*
%TA.AperFunction,ComponentPad*%
%ADD10O,2.190000X1.740000*%
%TD*%
%TA.AperFunction,ComponentPad*%
%ADD11C,2.000000*%
%TD*%
%TA.AperFunction,ComponentPad*%
%ADD12R,3.000000X2.500000*%
%TD*%
%TA.AperFunction,ComponentPad*%
%ADD13R,2.000000X2.000000*%
%TD*%
%TA.AperFunction,ViaPad*%
%ADD14C,0.800000*%
%TD*%
%TA.AperFunction,Conductor*%
%ADD15C,0.400000*%
%TD*%
%TA.AperFunction,Conductor*%
%ADD16C,0.254000*%
%TD*%
%TA.AperFunction,Conductor*%
%ADD17C,0.100000*%
%TD*%
G04 APERTURE END LIST*
D10*
%TO.P,J1,5*%
%TO.N,VCC*%
X213000000Y-79280000D03*
%TO.P,J1,4*%
%TO.N,GND*%
X213000000Y-76740000D03*
%TO.P,J1,3*%
%TO.N,/EncSw_Out*%
X213000000Y-74200000D03*
%TO.P,J1,2*%
%TO.N,/EncB_Out*%
X213000000Y-71660000D03*
%TO.P,J1,1*%
%TO.N,/EncA_Out*%
%TA.AperFunction,ComponentPad*%
G36*
G01*
X212154999Y-68250000D02*
X213845001Y-68250000D01*
G75*
G02*
X214095000Y-68499999I0J-249999D01*
G01*
X214095000Y-69740001D01*
G75*
G02*
X213845001Y-69990000I-249999J0D01*
G01*
X212154999Y-69990000D01*
G75*
G02*
X211905000Y-69740001I0J249999D01*
G01*
X211905000Y-68499999D01*
G75*
G02*
X212154999Y-68250000I249999J0D01*
G01*
G37*
%TD.AperFunction*%
%TD*%
D11*
%TO.P,SW1,S2*%
%TO.N,Sig_EncSw*%
X208050000Y-71700000D03*
%TO.P,SW1,S1*%
%TO.N,GND*%
X208050000Y-76700000D03*
D12*
%TO.P,SW1,MP*%
%TO.N,N/C*%
X201050000Y-68600000D03*
X201050000Y-79800000D03*
D11*
%TO.P,SW1,B*%
%TO.N,Sig_EncB*%
X193550000Y-71700000D03*
%TO.P,SW1,C*%
%TO.N,GND*%
X193550000Y-74200000D03*
D13*
%TO.P,SW1,A*%
%TO.N,Sig_EncA*%
X193550000Y-76700000D03*
%TD*%
D14*
%TO.N,VCC*%
X208800000Y-69000000D03*
X198400000Y-75200000D03*
X205165689Y-77934303D03*
X196500002Y-68000000D03*
X202300000Y-77400000D03*
%TO.N,Trig_EncA*%
X202100000Y-75900008D03*
X202100000Y-74299977D03*
%TD*%
D15*
%TO.N,Trig_EncA*%
X202100000Y-74299977D02*
X202100000Y-75900008D01*
%TD*%
D16*
%TO.N,VCC*%
X216535825Y-64998382D02*
X216329534Y-65307118D01*
X216187439Y-65650166D01*
X216115000Y-66014344D01*
X216115000Y-66385656D01*
X216187439Y-66749834D01*
X216329534Y-67092882D01*
X216535825Y-67401618D01*
X216798382Y-67664175D01*
X217107118Y-67870466D01*
X217450166Y-68012561D01*
X217814344Y-68085000D01*
X218185656Y-68085000D01*
X218549834Y-68012561D01*
X218892882Y-67870466D01*
X219201618Y-67664175D01*
X219340001Y-67525792D01*
X219340000Y-80874207D01*
X219201618Y-80735825D01*
X218892882Y-80529534D01*
X218549834Y-80387439D01*
X218185656Y-80315000D01*
X217814344Y-80315000D01*
X217450166Y-80387439D01*
X217107118Y-80529534D01*
X216798382Y-80735825D01*
X216535825Y-80998382D01*
X216329534Y-81307118D01*
X216187439Y-81650166D01*
X216115000Y-82014344D01*
X216115000Y-82385656D01*
X216187439Y-82749834D01*
X216329534Y-83092882D01*
X216535825Y-83401618D01*
X216674207Y-83540000D01*
X194325793Y-83540000D01*
X194464175Y-83401618D01*
X194670466Y-83092882D01*
X194812561Y-82749834D01*
X194885000Y-82385656D01*
X194885000Y-82014344D01*
X194812561Y-81650166D01*
X194670466Y-81307118D01*
X194464175Y-80998382D01*
X194201618Y-80735825D01*
X193892882Y-80529534D01*
X193549834Y-80387439D01*
X193185656Y-80315000D01*
X192814344Y-80315000D01*
X192450166Y-80387439D01*
X192107118Y-80529534D01*
X191798382Y-80735825D01*
X191660000Y-80874207D01*
X191660000Y-78550000D01*
X198911928Y-78550000D01*
X198911928Y-81050000D01*
X198924188Y-81174482D01*
X198960498Y-81294180D01*
X199019463Y-81404494D01*
X199098815Y-81501185D01*
X199195506Y-81580537D01*
X199305820Y-81639502D01*
X199425518Y-81675812D01*
X199550000Y-81688072D01*
X202550000Y-81688072D01*
X202674482Y-81675812D01*
X202794180Y-81639502D01*
X202904494Y-81580537D01*
X203001185Y-81501185D01*
X203080537Y-81404494D01*
X203139502Y-81294180D01*
X203175812Y-81174482D01*
X203188072Y-81050000D01*
X203188072Y-79640031D01*
X211313698Y-79640031D01*
X211330449Y-79727591D01*
X211445526Y-80000809D01*
X211611694Y-80246326D01*
X211822567Y-80454708D01*
X212070042Y-80617947D01*
X212344608Y-80729769D01*
X212635714Y-80785877D01*
X212873000Y-80630376D01*
X212873000Y-79407000D01*
X213127000Y-79407000D01*
X213127000Y-80630376D01*
X213364286Y-80785877D01*
X213655392Y-80729769D01*
X213929958Y-80617947D01*
X214177433Y-80454708D01*
X214388306Y-80246326D01*
X214554474Y-80000809D01*
X214669551Y-79727591D01*
X214686302Y-79640031D01*
X214565246Y-79407000D01*
X213127000Y-79407000D01*
X212873000Y-79407000D01*
X211434754Y-79407000D01*
X211313698Y-79640031D01*
X203188072Y-79640031D01*
X203188072Y-78550000D01*
X203175812Y-78425518D01*
X203139502Y-78305820D01*
X203080537Y-78195506D01*
X203001185Y-78098815D01*
X202904494Y-78019463D01*
X202794180Y-77960498D01*
X202674482Y-77924188D01*
X202550000Y-77911928D01*
X199550000Y-77911928D01*
X199425518Y-77924188D01*
X199305820Y-77960498D01*
X199195506Y-78019463D01*
X199098815Y-78098815D01*
X199019463Y-78195506D01*
X198960498Y-78305820D01*
X198924188Y-78425518D01*
X198911928Y-78550000D01*
X191660000Y-78550000D01*
X191660000Y-75700000D01*
X191911928Y-75700000D01*
X191911928Y-77700000D01*
X191924188Y-77824482D01*
X191960498Y-77944180D01*
X192019463Y-78054494D01*
X192098815Y-78151185D01*
X192195506Y-78230537D01*
X192305820Y-78289502D01*
X192425518Y-78325812D01*
X192550000Y-78338072D01*
X194550000Y-78338072D01*
X194674482Y-78325812D01*
X194794180Y-78289502D01*
X194904494Y-78230537D01*
X195001185Y-78151185D01*
X195080537Y-78054494D01*
X195139502Y-77944180D01*
X195175812Y-77824482D01*
X195188072Y-77700000D01*
X195188072Y-75700000D01*
X195175812Y-75575518D01*
X195139502Y-75455820D01*
X195080537Y-75345506D01*
X195001185Y-75248815D01*
X194904494Y-75169463D01*
X194878063Y-75155335D01*
X194998918Y-74974463D01*
X195122168Y-74676912D01*
X195185000Y-74361033D01*
X195185000Y-74198038D01*
X201065000Y-74198038D01*
X201065000Y-74401916D01*
X201104774Y-74601875D01*
X201182795Y-74790233D01*
X201265000Y-74913262D01*
X201265001Y-75286722D01*
X201182795Y-75409752D01*
X201104774Y-75598110D01*
X201065000Y-75798069D01*
X201065000Y-76001947D01*
X201104774Y-76201906D01*
X201182795Y-76390264D01*
X201296063Y-76559782D01*
X201440226Y-76703945D01*
X201609744Y-76817213D01*
X201798102Y-76895234D01*
X201998061Y-76935008D01*
X202201939Y-76935008D01*
X202401898Y-76895234D01*
X202590256Y-76817213D01*
X202759774Y-76703945D01*
X202903937Y-76559782D01*
X202917845Y-76538967D01*
X206415000Y-76538967D01*
X206415000Y-76861033D01*
X206477832Y-77176912D01*
X206601082Y-77474463D01*
X206780013Y-77742252D01*
X207007748Y-77969987D01*
X207275537Y-78148918D01*
X207573088Y-78272168D01*
X207888967Y-78335000D01*
X208211033Y-78335000D01*
X208526912Y-78272168D01*
X208824463Y-78148918D01*
X209092252Y-77969987D01*
X209319987Y-77742252D01*
X209498918Y-77474463D01*
X209622168Y-77176912D01*
X209685000Y-76861033D01*
X209685000Y-76538967D01*
X209622168Y-76223088D01*
X209498918Y-75925537D01*
X209319987Y-75657748D01*
X209092252Y-75430013D01*
X208824463Y-75251082D01*
X208526912Y-75127832D01*
X208211033Y-75065000D01*
X207888967Y-75065000D01*
X207573088Y-75127832D01*
X207275537Y-75251082D01*
X207007748Y-75430013D01*
X206780013Y-75657748D01*
X206601082Y-75925537D01*
X206477832Y-76223088D01*
X206415000Y-76538967D01*
X202917845Y-76538967D01*
X203017205Y-76390264D01*
X203095226Y-76201906D01*
X203135000Y-76001947D01*
X203135000Y-75798069D01*
X203095226Y-75598110D01*
X203017205Y-75409752D01*
X202935000Y-75286723D01*
X202935000Y-74913262D01*
X203017205Y-74790233D01*
X203095226Y-74601875D01*
X203135000Y-74401916D01*
X203135000Y-74198038D01*
X203095226Y-73998079D01*
X203017205Y-73809721D01*
X202903937Y-73640203D01*
X202759774Y-73496040D01*
X202590256Y-73382772D01*
X202401898Y-73304751D01*
X202201939Y-73264977D01*
X201998061Y-73264977D01*
X201798102Y-73304751D01*
X201609744Y-73382772D01*
X201440226Y-73496040D01*
X201296063Y-73640203D01*
X201182795Y-73809721D01*
X201104774Y-73998079D01*
X201065000Y-74198038D01*
X195185000Y-74198038D01*
X195185000Y-74038967D01*
X195122168Y-73723088D01*
X194998918Y-73425537D01*
X194819987Y-73157748D01*
X194612239Y-72950000D01*
X194819987Y-72742252D01*
X194998918Y-72474463D01*
X195122168Y-72176912D01*
X195185000Y-71861033D01*
X195185000Y-71538967D01*
X206415000Y-71538967D01*
X206415000Y-71861033D01*
X206477832Y-72176912D01*
X206601082Y-72474463D01*
X206780013Y-72742252D01*
X207007748Y-72969987D01*
X207275537Y-73148918D01*
X207573088Y-73272168D01*
X207888967Y-73335000D01*
X208211033Y-73335000D01*
X208526912Y-73272168D01*
X208824463Y-73148918D01*
X209092252Y-72969987D01*
X209319987Y-72742252D01*
X209498918Y-72474463D01*
X209622168Y-72176912D01*
X209685000Y-71861033D01*
X209685000Y-71660000D01*
X211262718Y-71660000D01*
X211291776Y-71955032D01*
X211377834Y-72238725D01*
X211517583Y-72500179D01*
X211705655Y-72729345D01*
X211934821Y-72917417D01*
X211958362Y-72930000D01*
X211934821Y-72942583D01*
X211705655Y-73130655D01*
X211517583Y-73359821D01*
X211377834Y-73621275D01*
X211291776Y-73904968D01*
X211262718Y-74200000D01*
X211291776Y-74495032D01*
X211377834Y-74778725D01*
X211517583Y-75040179D01*
X211705655Y-75269345D01*
X211934821Y-75457417D01*
X211958362Y-75470000D01*
X211934821Y-75482583D01*
X211705655Y-75670655D01*
X211517583Y-75899821D01*
X211377834Y-76161275D01*
X211291776Y-76444968D01*
X211262718Y-76740000D01*
X211291776Y-77035032D01*
X211377834Y-77318725D01*
X211517583Y-77580179D01*
X211705655Y-77809345D01*
X211934821Y-77997417D01*
X211963152Y-78012560D01*
X211822567Y-78105292D01*
X211611694Y-78313674D01*
X211445526Y-78559191D01*
X211330449Y-78832409D01*
X211313698Y-78919969D01*
X211434754Y-79153000D01*
X212873000Y-79153000D01*
X212873000Y-79133000D01*
X213127000Y-79133000D01*
X213127000Y-79153000D01*
X214565246Y-79153000D01*
X214686302Y-78919969D01*
X214669551Y-78832409D01*
X214554474Y-78559191D01*
X214388306Y-78313674D01*
X214177433Y-78105292D01*
X214036848Y-78012560D01*
X214065179Y-77997417D01*
X214294345Y-77809345D01*
X214482417Y-77580179D01*
X214622166Y-77318725D01*
X214708224Y-77035032D01*
X214737282Y-76740000D01*
X214708224Y-76444968D01*
X214622166Y-76161275D01*
X214482417Y-75899821D01*
X214294345Y-75670655D01*
X214065179Y-75482583D01*
X214041638Y-75470000D01*
X214065179Y-75457417D01*
X214294345Y-75269345D01*
X214482417Y-75040179D01*
X214622166Y-74778725D01*
X214708224Y-74495032D01*
X214737282Y-74200000D01*
X214708224Y-73904968D01*
X214622166Y-73621275D01*
X214482417Y-73359821D01*
X214294345Y-73130655D01*
X214065179Y-72942583D01*
X214041638Y-72930000D01*
X214065179Y-72917417D01*
X214294345Y-72729345D01*
X214482417Y-72500179D01*
X214622166Y-72238725D01*
X214708224Y-71955032D01*
X214737282Y-71660000D01*
X214708224Y-71364968D01*
X214622166Y-71081275D01*
X214482417Y-70819821D01*
X214294345Y-70590655D01*
X214228886Y-70536934D01*
X214338387Y-70478405D01*
X214472962Y-70367962D01*
X214583405Y-70233387D01*
X214665472Y-70079851D01*
X214716008Y-69913255D01*
X214733072Y-69740001D01*
X214733072Y-68499999D01*
X214716008Y-68326745D01*
X214665472Y-68160149D01*
X214583405Y-68006613D01*
X214472962Y-67872038D01*
X214338387Y-67761595D01*
X214184851Y-67679528D01*
X214018255Y-67628992D01*
X213845001Y-67611928D01*
X212154999Y-67611928D01*
X211981745Y-67628992D01*
X211815149Y-67679528D01*
X211661613Y-67761595D01*
X211527038Y-67872038D01*
X211416595Y-68006613D01*
X211334528Y-68160149D01*
X211283992Y-68326745D01*
X211266928Y-68499999D01*
X211266928Y-69740001D01*
X211283992Y-69913255D01*
X211334528Y-70079851D01*
X211416595Y-70233387D01*
X211527038Y-70367962D01*
X211661613Y-70478405D01*
X211771114Y-70536934D01*
X211705655Y-70590655D01*
X211517583Y-70819821D01*
X211377834Y-71081275D01*
X211291776Y-71364968D01*
X211262718Y-71660000D01*
X209685000Y-71660000D01*
X209685000Y-71538967D01*
X209622168Y-71223088D01*
X209498918Y-70925537D01*
X209319987Y-70657748D01*
X209092252Y-70430013D01*
X208824463Y-70251082D01*
X208526912Y-70127832D01*
X208211033Y-70065000D01*
X207888967Y-70065000D01*
X207573088Y-70127832D01*
X207275537Y-70251082D01*
X207007748Y-70430013D01*
X206780013Y-70657748D01*
X206601082Y-70925537D01*
X206477832Y-71223088D01*
X206415000Y-71538967D01*
X195185000Y-71538967D01*
X195122168Y-71223088D01*
X194998918Y-70925537D01*
X194819987Y-70657748D01*
X194592252Y-70430013D01*
X194324463Y-70251082D01*
X194026912Y-70127832D01*
X193711033Y-70065000D01*
X193388967Y-70065000D01*
X193073088Y-70127832D01*
X192775537Y-70251082D01*
X192507748Y-70430013D01*
X192280013Y-70657748D01*
X192101082Y-70925537D01*
X191977832Y-71223088D01*
X191915000Y-71538967D01*
X191915000Y-71861033D01*
X191977832Y-72176912D01*
X192101082Y-72474463D01*
X192280013Y-72742252D01*
X192487761Y-72950000D01*
X192280013Y-73157748D01*
X192101082Y-73425537D01*
X191977832Y-73723088D01*
X191915000Y-74038967D01*
X191915000Y-74361033D01*
X191977832Y-74676912D01*
X192101082Y-74974463D01*
X192221937Y-75155335D01*
X192195506Y-75169463D01*
X192098815Y-75248815D01*
X192019463Y-75345506D01*
X191960498Y-75455820D01*
X191924188Y-75575518D01*
X191911928Y-75700000D01*
X191660000Y-75700000D01*
X191660000Y-67525793D01*
X191798382Y-67664175D01*
X192107118Y-67870466D01*
X192450166Y-68012561D01*
X192814344Y-68085000D01*
X193185656Y-68085000D01*
X193549834Y-68012561D01*
X193892882Y-67870466D01*
X194201618Y-67664175D01*
X194464175Y-67401618D01*
X194498665Y-67350000D01*
X198911928Y-67350000D01*
X198911928Y-69850000D01*
X198924188Y-69974482D01*
X198960498Y-70094180D01*
X199019463Y-70204494D01*
X199098815Y-70301185D01*
X199195506Y-70380537D01*
X199305820Y-70439502D01*
X199425518Y-70475812D01*
X199550000Y-70488072D01*
X202550000Y-70488072D01*
X202674482Y-70475812D01*
X202794180Y-70439502D01*
X202904494Y-70380537D01*
X203001185Y-70301185D01*
X203080537Y-70204494D01*
X203139502Y-70094180D01*
X203175812Y-69974482D01*
X203188072Y-69850000D01*
X203188072Y-67350000D01*
X203175812Y-67225518D01*
X203139502Y-67105820D01*
X203080537Y-66995506D01*
X203001185Y-66898815D01*
X202904494Y-66819463D01*
X202794180Y-66760498D01*
X202674482Y-66724188D01*
X202550000Y-66711928D01*
X199550000Y-66711928D01*
X199425518Y-66724188D01*
X199305820Y-66760498D01*
X199195506Y-66819463D01*
X199098815Y-66898815D01*
X199019463Y-66995506D01*
X198960498Y-67105820D01*
X198924188Y-67225518D01*
X198911928Y-67350000D01*
X194498665Y-67350000D01*
X194670466Y-67092882D01*
X194812561Y-66749834D01*
X194885000Y-66385656D01*
X194885000Y-66014344D01*
X194812561Y-65650166D01*
X194670466Y-65307118D01*
X194464175Y-64998382D01*
X194325793Y-64860000D01*
X216674207Y-64860000D01*
X216535825Y-64998382D01*
%TA.AperFunction,Conductor*%
D17*
G36*
X216535825Y-64998382D02*
G01*
X216329534Y-65307118D01*
X216187439Y-65650166D01*
X216115000Y-66014344D01*
X216115000Y-66385656D01*
X216187439Y-66749834D01*
X216329534Y-67092882D01*
X216535825Y-67401618D01*
X216798382Y-67664175D01*
X217107118Y-67870466D01*
X217450166Y-68012561D01*
X217814344Y-68085000D01*
X218185656Y-68085000D01*
X218549834Y-68012561D01*
X218892882Y-67870466D01*
X219201618Y-67664175D01*
X219340001Y-67525792D01*
X219340000Y-80874207D01*
X219201618Y-80735825D01*
X218892882Y-80529534D01*
X218549834Y-80387439D01*
X218185656Y-80315000D01*
X217814344Y-80315000D01*
X217450166Y-80387439D01*
X217107118Y-80529534D01*
X216798382Y-80735825D01*
X216535825Y-80998382D01*
X216329534Y-81307118D01*
X216187439Y-81650166D01*
X216115000Y-82014344D01*
X216115000Y-82385656D01*
X216187439Y-82749834D01*
X216329534Y-83092882D01*
X216535825Y-83401618D01*
X216674207Y-83540000D01*
X194325793Y-83540000D01*
X194464175Y-83401618D01*
X194670466Y-83092882D01*
X194812561Y-82749834D01*
X194885000Y-82385656D01*
X194885000Y-82014344D01*
X194812561Y-81650166D01*
X194670466Y-81307118D01*
X194464175Y-80998382D01*
X194201618Y-80735825D01*
X193892882Y-80529534D01*
X193549834Y-80387439D01*
X193185656Y-80315000D01*
X192814344Y-80315000D01*
X192450166Y-80387439D01*
X192107118Y-80529534D01*
X191798382Y-80735825D01*
X191660000Y-80874207D01*
X191660000Y-78550000D01*
X198911928Y-78550000D01*
X198911928Y-81050000D01*
X198924188Y-81174482D01*
X198960498Y-81294180D01*
X199019463Y-81404494D01*
X199098815Y-81501185D01*
X199195506Y-81580537D01*
X199305820Y-81639502D01*
X199425518Y-81675812D01*
X199550000Y-81688072D01*
X202550000Y-81688072D01*
X202674482Y-81675812D01*
X202794180Y-81639502D01*
X202904494Y-81580537D01*
X203001185Y-81501185D01*
X203080537Y-81404494D01*
X203139502Y-81294180D01*
X203175812Y-81174482D01*
X203188072Y-81050000D01*
X203188072Y-79640031D01*
X211313698Y-79640031D01*
X211330449Y-79727591D01*
X211445526Y-80000809D01*
X211611694Y-80246326D01*
X211822567Y-80454708D01*
X212070042Y-80617947D01*
X212344608Y-80729769D01*
X212635714Y-80785877D01*
X212873000Y-80630376D01*
X212873000Y-79407000D01*
X213127000Y-79407000D01*
X213127000Y-80630376D01*
X213364286Y-80785877D01*
X213655392Y-80729769D01*
X213929958Y-80617947D01*
X214177433Y-80454708D01*
X214388306Y-80246326D01*
X214554474Y-80000809D01*
X214669551Y-79727591D01*
X214686302Y-79640031D01*
X214565246Y-79407000D01*
X213127000Y-79407000D01*
X212873000Y-79407000D01*
X211434754Y-79407000D01*
X211313698Y-79640031D01*
X203188072Y-79640031D01*
X203188072Y-78550000D01*
X203175812Y-78425518D01*
X203139502Y-78305820D01*
X203080537Y-78195506D01*
X203001185Y-78098815D01*
X202904494Y-78019463D01*
X202794180Y-77960498D01*
X202674482Y-77924188D01*
X202550000Y-77911928D01*
X199550000Y-77911928D01*
X199425518Y-77924188D01*
X199305820Y-77960498D01*
X199195506Y-78019463D01*
X199098815Y-78098815D01*
X199019463Y-78195506D01*
X198960498Y-78305820D01*
X198924188Y-78425518D01*
X198911928Y-78550000D01*
X191660000Y-78550000D01*
X191660000Y-75700000D01*
X191911928Y-75700000D01*
X191911928Y-77700000D01*
X191924188Y-77824482D01*
X191960498Y-77944180D01*
X192019463Y-78054494D01*
X192098815Y-78151185D01*
X192195506Y-78230537D01*
X192305820Y-78289502D01*
X192425518Y-78325812D01*
X192550000Y-78338072D01*
X194550000Y-78338072D01*
X194674482Y-78325812D01*
X194794180Y-78289502D01*
X194904494Y-78230537D01*
X195001185Y-78151185D01*
X195080537Y-78054494D01*
X195139502Y-77944180D01*
X195175812Y-77824482D01*
X195188072Y-77700000D01*
X195188072Y-75700000D01*
X195175812Y-75575518D01*
X195139502Y-75455820D01*
X195080537Y-75345506D01*
X195001185Y-75248815D01*
X194904494Y-75169463D01*
X194878063Y-75155335D01*
X194998918Y-74974463D01*
X195122168Y-74676912D01*
X195185000Y-74361033D01*
X195185000Y-74198038D01*
X201065000Y-74198038D01*
X201065000Y-74401916D01*
X201104774Y-74601875D01*
X201182795Y-74790233D01*
X201265000Y-74913262D01*
X201265001Y-75286722D01*
X201182795Y-75409752D01*
X201104774Y-75598110D01*
X201065000Y-75798069D01*
X201065000Y-76001947D01*
X201104774Y-76201906D01*
X201182795Y-76390264D01*
X201296063Y-76559782D01*
X201440226Y-76703945D01*
X201609744Y-76817213D01*
X201798102Y-76895234D01*
X201998061Y-76935008D01*
X202201939Y-76935008D01*
X202401898Y-76895234D01*
X202590256Y-76817213D01*
X202759774Y-76703945D01*
X202903937Y-76559782D01*
X202917845Y-76538967D01*
X206415000Y-76538967D01*
X206415000Y-76861033D01*
X206477832Y-77176912D01*
X206601082Y-77474463D01*
X206780013Y-77742252D01*
X207007748Y-77969987D01*
X207275537Y-78148918D01*
X207573088Y-78272168D01*
X207888967Y-78335000D01*
X208211033Y-78335000D01*
X208526912Y-78272168D01*
X208824463Y-78148918D01*
X209092252Y-77969987D01*
X209319987Y-77742252D01*
X209498918Y-77474463D01*
X209622168Y-77176912D01*
X209685000Y-76861033D01*
X209685000Y-76538967D01*
X209622168Y-76223088D01*
X209498918Y-75925537D01*
X209319987Y-75657748D01*
X209092252Y-75430013D01*
X208824463Y-75251082D01*
X208526912Y-75127832D01*
X208211033Y-75065000D01*
X207888967Y-75065000D01*
X207573088Y-75127832D01*
X207275537Y-75251082D01*
X207007748Y-75430013D01*
X206780013Y-75657748D01*
X206601082Y-75925537D01*
X206477832Y-76223088D01*
X206415000Y-76538967D01*
X202917845Y-76538967D01*
X203017205Y-76390264D01*
X203095226Y-76201906D01*
X203135000Y-76001947D01*
X203135000Y-75798069D01*
X203095226Y-75598110D01*
X203017205Y-75409752D01*
X202935000Y-75286723D01*
X202935000Y-74913262D01*
X203017205Y-74790233D01*
X203095226Y-74601875D01*
X203135000Y-74401916D01*
X203135000Y-74198038D01*
X203095226Y-73998079D01*
X203017205Y-73809721D01*
X202903937Y-73640203D01*
X202759774Y-73496040D01*
X202590256Y-73382772D01*
X202401898Y-73304751D01*
X202201939Y-73264977D01*
X201998061Y-73264977D01*
X201798102Y-73304751D01*
X201609744Y-73382772D01*
X201440226Y-73496040D01*
X201296063Y-73640203D01*
X201182795Y-73809721D01*
X201104774Y-73998079D01*
X201065000Y-74198038D01*
X195185000Y-74198038D01*
X195185000Y-74038967D01*
X195122168Y-73723088D01*
X194998918Y-73425537D01*
X194819987Y-73157748D01*
X194612239Y-72950000D01*
X194819987Y-72742252D01*
X194998918Y-72474463D01*
X195122168Y-72176912D01*
X195185000Y-71861033D01*
X195185000Y-71538967D01*
X206415000Y-71538967D01*
X206415000Y-71861033D01*
X206477832Y-72176912D01*
X206601082Y-72474463D01*
X206780013Y-72742252D01*
X207007748Y-72969987D01*
X207275537Y-73148918D01*
X207573088Y-73272168D01*
X207888967Y-73335000D01*
X208211033Y-73335000D01*
X208526912Y-73272168D01*
X208824463Y-73148918D01*
X209092252Y-72969987D01*
X209319987Y-72742252D01*
X209498918Y-72474463D01*
X209622168Y-72176912D01*
X209685000Y-71861033D01*
X209685000Y-71660000D01*
X211262718Y-71660000D01*
X211291776Y-71955032D01*
X211377834Y-72238725D01*
X211517583Y-72500179D01*
X211705655Y-72729345D01*
X211934821Y-72917417D01*
X211958362Y-72930000D01*
X211934821Y-72942583D01*
X211705655Y-73130655D01*
X211517583Y-73359821D01*
X211377834Y-73621275D01*
X211291776Y-73904968D01*
X211262718Y-74200000D01*
X211291776Y-74495032D01*
X211377834Y-74778725D01*
X211517583Y-75040179D01*
X211705655Y-75269345D01*
X211934821Y-75457417D01*
X211958362Y-75470000D01*
X211934821Y-75482583D01*
X211705655Y-75670655D01*
X211517583Y-75899821D01*
X211377834Y-76161275D01*
X211291776Y-76444968D01*
X211262718Y-76740000D01*
X211291776Y-77035032D01*
X211377834Y-77318725D01*
X211517583Y-77580179D01*
X211705655Y-77809345D01*
X211934821Y-77997417D01*
X211963152Y-78012560D01*
X211822567Y-78105292D01*
X211611694Y-78313674D01*
X211445526Y-78559191D01*
X211330449Y-78832409D01*
X211313698Y-78919969D01*
X211434754Y-79153000D01*
X212873000Y-79153000D01*
X212873000Y-79133000D01*
X213127000Y-79133000D01*
X213127000Y-79153000D01*
X214565246Y-79153000D01*
X214686302Y-78919969D01*
X214669551Y-78832409D01*
X214554474Y-78559191D01*
X214388306Y-78313674D01*
X214177433Y-78105292D01*
X214036848Y-78012560D01*
X214065179Y-77997417D01*
X214294345Y-77809345D01*
X214482417Y-77580179D01*
X214622166Y-77318725D01*
X214708224Y-77035032D01*
X214737282Y-76740000D01*
X214708224Y-76444968D01*
X214622166Y-76161275D01*
X214482417Y-75899821D01*
X214294345Y-75670655D01*
X214065179Y-75482583D01*
X214041638Y-75470000D01*
X214065179Y-75457417D01*
X214294345Y-75269345D01*
X214482417Y-75040179D01*
X214622166Y-74778725D01*
X214708224Y-74495032D01*
X214737282Y-74200000D01*
X214708224Y-73904968D01*
X214622166Y-73621275D01*
X214482417Y-73359821D01*
X214294345Y-73130655D01*
X214065179Y-72942583D01*
X214041638Y-72930000D01*
X214065179Y-72917417D01*
X214294345Y-72729345D01*
X214482417Y-72500179D01*
X214622166Y-72238725D01*
X214708224Y-71955032D01*
X214737282Y-71660000D01*
X214708224Y-71364968D01*
X214622166Y-71081275D01*
X214482417Y-70819821D01*
X214294345Y-70590655D01*
X214228886Y-70536934D01*
X214338387Y-70478405D01*
X214472962Y-70367962D01*
X214583405Y-70233387D01*
X214665472Y-70079851D01*
X214716008Y-69913255D01*
X214733072Y-69740001D01*
X214733072Y-68499999D01*
X214716008Y-68326745D01*
X214665472Y-68160149D01*
X214583405Y-68006613D01*
X214472962Y-67872038D01*
X214338387Y-67761595D01*
X214184851Y-67679528D01*
X214018255Y-67628992D01*
X213845001Y-67611928D01*
X212154999Y-67611928D01*
X211981745Y-67628992D01*
X211815149Y-67679528D01*
X211661613Y-67761595D01*
X211527038Y-67872038D01*
X211416595Y-68006613D01*
X211334528Y-68160149D01*
X211283992Y-68326745D01*
X211266928Y-68499999D01*
X211266928Y-69740001D01*
X211283992Y-69913255D01*
X211334528Y-70079851D01*
X211416595Y-70233387D01*
X211527038Y-70367962D01*
X211661613Y-70478405D01*
X211771114Y-70536934D01*
X211705655Y-70590655D01*
X211517583Y-70819821D01*
X211377834Y-71081275D01*
X211291776Y-71364968D01*
X211262718Y-71660000D01*
X209685000Y-71660000D01*
X209685000Y-71538967D01*
X209622168Y-71223088D01*
X209498918Y-70925537D01*
X209319987Y-70657748D01*
X209092252Y-70430013D01*
X208824463Y-70251082D01*
X208526912Y-70127832D01*
X208211033Y-70065000D01*
X207888967Y-70065000D01*
X207573088Y-70127832D01*
X207275537Y-70251082D01*
X207007748Y-70430013D01*
X206780013Y-70657748D01*
X206601082Y-70925537D01*
X206477832Y-71223088D01*
X206415000Y-71538967D01*
X195185000Y-71538967D01*
X195122168Y-71223088D01*
X194998918Y-70925537D01*
X194819987Y-70657748D01*
X194592252Y-70430013D01*
X194324463Y-70251082D01*
X194026912Y-70127832D01*
X193711033Y-70065000D01*
X193388967Y-70065000D01*
X193073088Y-70127832D01*
X192775537Y-70251082D01*
X192507748Y-70430013D01*
X192280013Y-70657748D01*
X192101082Y-70925537D01*
X191977832Y-71223088D01*
X191915000Y-71538967D01*
X191915000Y-71861033D01*
X191977832Y-72176912D01*
X192101082Y-72474463D01*
X192280013Y-72742252D01*
X192487761Y-72950000D01*
X192280013Y-73157748D01*
X192101082Y-73425537D01*
X191977832Y-73723088D01*
X191915000Y-74038967D01*
X191915000Y-74361033D01*
X191977832Y-74676912D01*
X192101082Y-74974463D01*
X192221937Y-75155335D01*
X192195506Y-75169463D01*
X192098815Y-75248815D01*
X192019463Y-75345506D01*
X191960498Y-75455820D01*
X191924188Y-75575518D01*
X191911928Y-75700000D01*
X191660000Y-75700000D01*
X191660000Y-67525793D01*
X191798382Y-67664175D01*
X192107118Y-67870466D01*
X192450166Y-68012561D01*
X192814344Y-68085000D01*
X193185656Y-68085000D01*
X193549834Y-68012561D01*
X193892882Y-67870466D01*
X194201618Y-67664175D01*
X194464175Y-67401618D01*
X194498665Y-67350000D01*
X198911928Y-67350000D01*
X198911928Y-69850000D01*
X198924188Y-69974482D01*
X198960498Y-70094180D01*
X199019463Y-70204494D01*
X199098815Y-70301185D01*
X199195506Y-70380537D01*
X199305820Y-70439502D01*
X199425518Y-70475812D01*
X199550000Y-70488072D01*
X202550000Y-70488072D01*
X202674482Y-70475812D01*
X202794180Y-70439502D01*
X202904494Y-70380537D01*
X203001185Y-70301185D01*
X203080537Y-70204494D01*
X203139502Y-70094180D01*
X203175812Y-69974482D01*
X203188072Y-69850000D01*
X203188072Y-67350000D01*
X203175812Y-67225518D01*
X203139502Y-67105820D01*
X203080537Y-66995506D01*
X203001185Y-66898815D01*
X202904494Y-66819463D01*
X202794180Y-66760498D01*
X202674482Y-66724188D01*
X202550000Y-66711928D01*
X199550000Y-66711928D01*
X199425518Y-66724188D01*
X199305820Y-66760498D01*
X199195506Y-66819463D01*
X199098815Y-66898815D01*
X199019463Y-66995506D01*
X198960498Y-67105820D01*
X198924188Y-67225518D01*
X198911928Y-67350000D01*
X194498665Y-67350000D01*
X194670466Y-67092882D01*
X194812561Y-66749834D01*
X194885000Y-66385656D01*
X194885000Y-66014344D01*
X194812561Y-65650166D01*
X194670466Y-65307118D01*
X194464175Y-64998382D01*
X194325793Y-64860000D01*
X216674207Y-64860000D01*
X216535825Y-64998382D01*
G37*
%TD.AperFunction*%
%TD*%
M02*
