M48
; DRILL file {KiCad 5.1.12-1.fc35} date Sat 27 Nov 2021 14:31:23 GMT
; FORMAT={-:-/ absolute / inch / decimal}
; #@! TF.CreationDate,2021-11-27T14:31:23+00:00
; #@! TF.GenerationSoftware,Kicad,Pcbnew,5.1.12-1.fc35
; #@! TF.FileFunction,Plated,1,2,PTH
FMAT,2
INCH
T1C0.0157
T2C0.0394
T3C0.0469
T4C0.0787
%
G90
G05
T1
X7.7362Y-2.6772
X7.811Y-2.9606
X7.9567Y-2.9252
X7.9567Y-2.9882
X7.9646Y-3.0472
X8.0774Y-3.0683
X8.2205Y-2.7165
T2
X7.6201Y-2.8228
X7.6201Y-2.9213
X7.6201Y-3.0197
X8.1909Y-2.8228
X8.1909Y-3.0197
T3
X8.3858Y-2.7213
X8.3858Y-2.8213
X8.3858Y-2.9213
X8.3858Y-3.0213
X8.3858Y-3.1213
T4
G00X7.9055Y-2.7008
M15
G01X7.9252Y-2.7008
M16
G05
G00X7.9055Y-3.1417
M15
G01X7.9252Y-3.1417
M16
G05
T0
M30
