%TF.GenerationSoftware,KiCad,Pcbnew,5.1.12-1.fc35*%
%TF.CreationDate,2021-11-27T14:33:04+00:00*%
%TF.ProjectId,kiCAD_TriSchmittPanelMount_v003,6b694341-445f-4547-9269-5363686d6974,rev?*%
%TF.SameCoordinates,Original*%
%TF.FileFunction,Copper,L1,Top*%
%TF.FilePolarity,Positive*%
%FSLAX46Y46*%
G04 Gerber Fmt 4.6, Leading zero omitted, Abs format (unit mm)*
G04 Created by KiCad (PCBNEW 5.1.12-1.fc35) date 2021-11-27 14:33:04*
%MOMM*%
%LPD*%
G01*
G04 APERTURE LIST*
%TA.AperFunction,SMDPad,CuDef*%
%ADD10R,0.300000X1.600000*%
%TD*%
%TA.AperFunction,ComponentPad*%
%ADD11C,2.000000*%
%TD*%
%TA.AperFunction,ComponentPad*%
%ADD12R,3.000000X2.500000*%
%TD*%
%TA.AperFunction,ComponentPad*%
%ADD13R,2.000000X2.000000*%
%TD*%
%TA.AperFunction,ComponentPad*%
%ADD14R,1.700000X1.700000*%
%TD*%
%TA.AperFunction,ComponentPad*%
%ADD15O,1.700000X1.700000*%
%TD*%
%TA.AperFunction,ViaPad*%
%ADD16C,0.800000*%
%TD*%
%TA.AperFunction,Conductor*%
%ADD17C,0.400000*%
%TD*%
%TA.AperFunction,Conductor*%
%ADD18C,1.000000*%
%TD*%
%TA.AperFunction,Conductor*%
%ADD19C,0.254000*%
%TD*%
%TA.AperFunction,Conductor*%
%ADD20C,0.100000*%
%TD*%
G04 APERTURE END LIST*
D10*
%TO.P,U1,8*%
%TO.N,VCC*%
X205325000Y-74400000D03*
%TO.P,U1,7*%
%TO.N,/EncA_Out*%
X204675000Y-74400000D03*
%TO.P,U1,6*%
%TO.N,Trig_EncB*%
X204025000Y-74400000D03*
%TO.P,U1,5*%
%TO.N,/EncSw_Out*%
X203375000Y-74400000D03*
%TO.P,U1,4*%
%TO.N,GND*%
X203375000Y-71000000D03*
%TO.P,U1,3*%
%TO.N,Trig_EncSw*%
X204025000Y-71000000D03*
%TO.P,U1,2*%
%TO.N,/EncB_Out*%
X204675000Y-71000000D03*
%TO.P,U1,1*%
%TO.N,Trig_EncA*%
X205325000Y-71000000D03*
%TD*%
%TO.P,R6,2*%
%TO.N,Sig_EncSw*%
%TA.AperFunction,SMDPad,CuDef*%
G36*
G01*
X204775000Y-67487500D02*
X204775000Y-67012500D01*
G75*
G02*
X205012500Y-66775000I237500J0D01*
G01*
X205512500Y-66775000D01*
G75*
G02*
X205750000Y-67012500I0J-237500D01*
G01*
X205750000Y-67487500D01*
G75*
G02*
X205512500Y-67725000I-237500J0D01*
G01*
X205012500Y-67725000D01*
G75*
G02*
X204775000Y-67487500I0J237500D01*
G01*
G37*
%TD.AperFunction*%
%TO.P,R6,1*%
%TO.N,Trig_EncSw*%
%TA.AperFunction,SMDPad,CuDef*%
G36*
G01*
X202950000Y-67487500D02*
X202950000Y-67012500D01*
G75*
G02*
X203187500Y-66775000I237500J0D01*
G01*
X203687500Y-66775000D01*
G75*
G02*
X203925000Y-67012500I0J-237500D01*
G01*
X203925000Y-67487500D01*
G75*
G02*
X203687500Y-67725000I-237500J0D01*
G01*
X203187500Y-67725000D01*
G75*
G02*
X202950000Y-67487500I0J237500D01*
G01*
G37*
%TD.AperFunction*%
%TD*%
%TO.P,R5,2*%
%TO.N,VCC*%
%TA.AperFunction,SMDPad,CuDef*%
G36*
G01*
X207975000Y-65975000D02*
X207975000Y-65425000D01*
G75*
G02*
X208175000Y-65225000I200000J0D01*
G01*
X208575000Y-65225000D01*
G75*
G02*
X208775000Y-65425000I0J-200000D01*
G01*
X208775000Y-65975000D01*
G75*
G02*
X208575000Y-66175000I-200000J0D01*
G01*
X208175000Y-66175000D01*
G75*
G02*
X207975000Y-65975000I0J200000D01*
G01*
G37*
%TD.AperFunction*%
%TO.P,R5,1*%
%TO.N,Sig_EncSw*%
%TA.AperFunction,SMDPad,CuDef*%
G36*
G01*
X206325000Y-65975000D02*
X206325000Y-65425000D01*
G75*
G02*
X206525000Y-65225000I200000J0D01*
G01*
X206925000Y-65225000D01*
G75*
G02*
X207125000Y-65425000I0J-200000D01*
G01*
X207125000Y-65975000D01*
G75*
G02*
X206925000Y-66175000I-200000J0D01*
G01*
X206525000Y-66175000D01*
G75*
G02*
X206325000Y-65975000I0J200000D01*
G01*
G37*
%TD.AperFunction*%
%TD*%
%TO.P,R4,2*%
%TO.N,Sig_EncB*%
%TA.AperFunction,SMDPad,CuDef*%
G36*
G01*
X195633834Y-69725000D02*
X195633834Y-70275000D01*
G75*
G02*
X195433834Y-70475000I-200000J0D01*
G01*
X195033834Y-70475000D01*
G75*
G02*
X194833834Y-70275000I0J200000D01*
G01*
X194833834Y-69725000D01*
G75*
G02*
X195033834Y-69525000I200000J0D01*
G01*
X195433834Y-69525000D01*
G75*
G02*
X195633834Y-69725000I0J-200000D01*
G01*
G37*
%TD.AperFunction*%
%TO.P,R4,1*%
%TO.N,Trig_EncB*%
%TA.AperFunction,SMDPad,CuDef*%
G36*
G01*
X197283834Y-69725000D02*
X197283834Y-70275000D01*
G75*
G02*
X197083834Y-70475000I-200000J0D01*
G01*
X196683834Y-70475000D01*
G75*
G02*
X196483834Y-70275000I0J200000D01*
G01*
X196483834Y-69725000D01*
G75*
G02*
X196683834Y-69525000I200000J0D01*
G01*
X197083834Y-69525000D01*
G75*
G02*
X197283834Y-69725000I0J-200000D01*
G01*
G37*
%TD.AperFunction*%
%TD*%
%TO.P,R3,2*%
%TO.N,VCC*%
%TA.AperFunction,SMDPad,CuDef*%
G36*
G01*
X196483834Y-67175000D02*
X196483834Y-66625000D01*
G75*
G02*
X196683834Y-66425000I200000J0D01*
G01*
X197083834Y-66425000D01*
G75*
G02*
X197283834Y-66625000I0J-200000D01*
G01*
X197283834Y-67175000D01*
G75*
G02*
X197083834Y-67375000I-200000J0D01*
G01*
X196683834Y-67375000D01*
G75*
G02*
X196483834Y-67175000I0J200000D01*
G01*
G37*
%TD.AperFunction*%
%TO.P,R3,1*%
%TO.N,Sig_EncB*%
%TA.AperFunction,SMDPad,CuDef*%
G36*
G01*
X194833834Y-67175000D02*
X194833834Y-66625000D01*
G75*
G02*
X195033834Y-66425000I200000J0D01*
G01*
X195433834Y-66425000D01*
G75*
G02*
X195633834Y-66625000I0J-200000D01*
G01*
X195633834Y-67175000D01*
G75*
G02*
X195433834Y-67375000I-200000J0D01*
G01*
X195033834Y-67375000D01*
G75*
G02*
X194833834Y-67175000I0J200000D01*
G01*
G37*
%TD.AperFunction*%
%TD*%
%TO.P,R2,1*%
%TO.N,Trig_EncA*%
%TA.AperFunction,SMDPad,CuDef*%
G36*
G01*
X197283834Y-74398334D02*
X197283834Y-74948334D01*
G75*
G02*
X197083834Y-75148334I-200000J0D01*
G01*
X196683834Y-75148334D01*
G75*
G02*
X196483834Y-74948334I0J200000D01*
G01*
X196483834Y-74398334D01*
G75*
G02*
X196683834Y-74198334I200000J0D01*
G01*
X197083834Y-74198334D01*
G75*
G02*
X197283834Y-74398334I0J-200000D01*
G01*
G37*
%TD.AperFunction*%
%TO.P,R2,2*%
%TO.N,Sig_EncA*%
%TA.AperFunction,SMDPad,CuDef*%
G36*
G01*
X195633834Y-74398334D02*
X195633834Y-74948334D01*
G75*
G02*
X195433834Y-75148334I-200000J0D01*
G01*
X195033834Y-75148334D01*
G75*
G02*
X194833834Y-74948334I0J200000D01*
G01*
X194833834Y-74398334D01*
G75*
G02*
X195033834Y-74198334I200000J0D01*
G01*
X195433834Y-74198334D01*
G75*
G02*
X195633834Y-74398334I0J-200000D01*
G01*
G37*
%TD.AperFunction*%
%TD*%
%TO.P,R1,1*%
%TO.N,Sig_EncA*%
%TA.AperFunction,SMDPad,CuDef*%
G36*
G01*
X194833834Y-73411668D02*
X194833834Y-72861668D01*
G75*
G02*
X195033834Y-72661668I200000J0D01*
G01*
X195433834Y-72661668D01*
G75*
G02*
X195633834Y-72861668I0J-200000D01*
G01*
X195633834Y-73411668D01*
G75*
G02*
X195433834Y-73611668I-200000J0D01*
G01*
X195033834Y-73611668D01*
G75*
G02*
X194833834Y-73411668I0J200000D01*
G01*
G37*
%TD.AperFunction*%
%TO.P,R1,2*%
%TO.N,VCC*%
%TA.AperFunction,SMDPad,CuDef*%
G36*
G01*
X196483834Y-73411668D02*
X196483834Y-72861668D01*
G75*
G02*
X196683834Y-72661668I200000J0D01*
G01*
X197083834Y-72661668D01*
G75*
G02*
X197283834Y-72861668I0J-200000D01*
G01*
X197283834Y-73411668D01*
G75*
G02*
X197083834Y-73611668I-200000J0D01*
G01*
X196683834Y-73611668D01*
G75*
G02*
X196483834Y-73411668I0J200000D01*
G01*
G37*
%TD.AperFunction*%
%TD*%
%TO.P,D3,2*%
%TO.N,Sig_EncSw*%
%TA.AperFunction,SMDPad,CuDef*%
G36*
G01*
X204700000Y-65937500D02*
X204700000Y-65462500D01*
G75*
G02*
X204937500Y-65225000I237500J0D01*
G01*
X205512500Y-65225000D01*
G75*
G02*
X205750000Y-65462500I0J-237500D01*
G01*
X205750000Y-65937500D01*
G75*
G02*
X205512500Y-66175000I-237500J0D01*
G01*
X204937500Y-66175000D01*
G75*
G02*
X204700000Y-65937500I0J237500D01*
G01*
G37*
%TD.AperFunction*%
%TO.P,D3,1*%
%TO.N,Trig_EncSw*%
%TA.AperFunction,SMDPad,CuDef*%
G36*
G01*
X202950000Y-65937500D02*
X202950000Y-65462500D01*
G75*
G02*
X203187500Y-65225000I237500J0D01*
G01*
X203762500Y-65225000D01*
G75*
G02*
X204000000Y-65462500I0J-237500D01*
G01*
X204000000Y-65937500D01*
G75*
G02*
X203762500Y-66175000I-237500J0D01*
G01*
X203187500Y-66175000D01*
G75*
G02*
X202950000Y-65937500I0J237500D01*
G01*
G37*
%TD.AperFunction*%
%TD*%
%TO.P,D2,2*%
%TO.N,Sig_EncB*%
%TA.AperFunction,SMDPad,CuDef*%
G36*
G01*
X195688834Y-68193750D02*
X195688834Y-68706250D01*
G75*
G02*
X195470084Y-68925000I-218750J0D01*
G01*
X195032584Y-68925000D01*
G75*
G02*
X194813834Y-68706250I0J218750D01*
G01*
X194813834Y-68193750D01*
G75*
G02*
X195032584Y-67975000I218750J0D01*
G01*
X195470084Y-67975000D01*
G75*
G02*
X195688834Y-68193750I0J-218750D01*
G01*
G37*
%TD.AperFunction*%
%TO.P,D2,1*%
%TO.N,Trig_EncB*%
%TA.AperFunction,SMDPad,CuDef*%
G36*
G01*
X197263834Y-68193750D02*
X197263834Y-68706250D01*
G75*
G02*
X197045084Y-68925000I-218750J0D01*
G01*
X196607584Y-68925000D01*
G75*
G02*
X196388834Y-68706250I0J218750D01*
G01*
X196388834Y-68193750D01*
G75*
G02*
X196607584Y-67975000I218750J0D01*
G01*
X197045084Y-67975000D01*
G75*
G02*
X197263834Y-68193750I0J-218750D01*
G01*
G37*
%TD.AperFunction*%
%TD*%
%TO.P,D1,1*%
%TO.N,Trig_EncA*%
%TA.AperFunction,SMDPad,CuDef*%
G36*
G01*
X197463834Y-75987500D02*
X197463834Y-76412500D01*
G75*
G02*
X197251334Y-76625000I-212500J0D01*
G01*
X196451334Y-76625000D01*
G75*
G02*
X196238834Y-76412500I0J212500D01*
G01*
X196238834Y-75987500D01*
G75*
G02*
X196451334Y-75775000I212500J0D01*
G01*
X197251334Y-75775000D01*
G75*
G02*
X197463834Y-75987500I0J-212500D01*
G01*
G37*
%TD.AperFunction*%
%TO.P,D1,2*%
%TO.N,Sig_EncA*%
%TA.AperFunction,SMDPad,CuDef*%
G36*
G01*
X195838834Y-75987500D02*
X195838834Y-76412500D01*
G75*
G02*
X195626334Y-76625000I-212500J0D01*
G01*
X194826334Y-76625000D01*
G75*
G02*
X194613834Y-76412500I0J212500D01*
G01*
X194613834Y-75987500D01*
G75*
G02*
X194826334Y-75775000I212500J0D01*
G01*
X195626334Y-75775000D01*
G75*
G02*
X195838834Y-75987500I0J-212500D01*
G01*
G37*
%TD.AperFunction*%
%TD*%
%TO.P,C3,2*%
%TO.N,Trig_EncSw*%
%TA.AperFunction,SMDPad,CuDef*%
G36*
G01*
X204675000Y-69037500D02*
X204675000Y-68562500D01*
G75*
G02*
X204912500Y-68325000I237500J0D01*
G01*
X205512500Y-68325000D01*
G75*
G02*
X205750000Y-68562500I0J-237500D01*
G01*
X205750000Y-69037500D01*
G75*
G02*
X205512500Y-69275000I-237500J0D01*
G01*
X204912500Y-69275000D01*
G75*
G02*
X204675000Y-69037500I0J237500D01*
G01*
G37*
%TD.AperFunction*%
%TO.P,C3,1*%
%TO.N,GND*%
%TA.AperFunction,SMDPad,CuDef*%
G36*
G01*
X202950000Y-69037500D02*
X202950000Y-68562500D01*
G75*
G02*
X203187500Y-68325000I237500J0D01*
G01*
X203787500Y-68325000D01*
G75*
G02*
X204025000Y-68562500I0J-237500D01*
G01*
X204025000Y-69037500D01*
G75*
G02*
X203787500Y-69275000I-237500J0D01*
G01*
X203187500Y-69275000D01*
G75*
G02*
X202950000Y-69037500I0J237500D01*
G01*
G37*
%TD.AperFunction*%
%TD*%
%TO.P,C2,2*%
%TO.N,Trig_EncB*%
%TA.AperFunction,SMDPad,CuDef*%
G36*
G01*
X198975000Y-69762500D02*
X198975000Y-70237500D01*
G75*
G02*
X198737500Y-70475000I-237500J0D01*
G01*
X198137500Y-70475000D01*
G75*
G02*
X197900000Y-70237500I0J237500D01*
G01*
X197900000Y-69762500D01*
G75*
G02*
X198137500Y-69525000I237500J0D01*
G01*
X198737500Y-69525000D01*
G75*
G02*
X198975000Y-69762500I0J-237500D01*
G01*
G37*
%TD.AperFunction*%
%TO.P,C2,1*%
%TO.N,GND*%
%TA.AperFunction,SMDPad,CuDef*%
G36*
G01*
X200700000Y-69762500D02*
X200700000Y-70237500D01*
G75*
G02*
X200462500Y-70475000I-237500J0D01*
G01*
X199862500Y-70475000D01*
G75*
G02*
X199625000Y-70237500I0J237500D01*
G01*
X199625000Y-69762500D01*
G75*
G02*
X199862500Y-69525000I237500J0D01*
G01*
X200462500Y-69525000D01*
G75*
G02*
X200700000Y-69762500I0J-237500D01*
G01*
G37*
%TD.AperFunction*%
%TD*%
%TO.P,C1,1*%
%TO.N,GND*%
%TA.AperFunction,SMDPad,CuDef*%
G36*
G01*
X194658834Y-71837500D02*
X194658834Y-71362500D01*
G75*
G02*
X194896334Y-71125000I237500J0D01*
G01*
X195496334Y-71125000D01*
G75*
G02*
X195733834Y-71362500I0J-237500D01*
G01*
X195733834Y-71837500D01*
G75*
G02*
X195496334Y-72075000I-237500J0D01*
G01*
X194896334Y-72075000D01*
G75*
G02*
X194658834Y-71837500I0J237500D01*
G01*
G37*
%TD.AperFunction*%
%TO.P,C1,2*%
%TO.N,Trig_EncA*%
%TA.AperFunction,SMDPad,CuDef*%
G36*
G01*
X196383834Y-71837500D02*
X196383834Y-71362500D01*
G75*
G02*
X196621334Y-71125000I237500J0D01*
G01*
X197221334Y-71125000D01*
G75*
G02*
X197458834Y-71362500I0J-237500D01*
G01*
X197458834Y-71837500D01*
G75*
G02*
X197221334Y-72075000I-237500J0D01*
G01*
X196621334Y-72075000D01*
G75*
G02*
X196383834Y-71837500I0J237500D01*
G01*
G37*
%TD.AperFunction*%
%TD*%
D11*
%TO.P,SW1,S2*%
%TO.N,Sig_EncSw*%
X207650000Y-69600000D03*
%TO.P,SW1,S1*%
%TO.N,GND*%
X207650000Y-74600000D03*
D12*
%TO.P,SW1,MP*%
%TO.N,N/C*%
X200650000Y-66500000D03*
X200650000Y-77700000D03*
D11*
%TO.P,SW1,B*%
%TO.N,Sig_EncB*%
X193150000Y-69600000D03*
%TO.P,SW1,C*%
%TO.N,GND*%
X193150000Y-72100000D03*
D13*
%TO.P,SW1,A*%
%TO.N,Sig_EncA*%
X193150000Y-74600000D03*
%TD*%
D14*
%TO.P,J1,1*%
%TO.N,/EncA_Out*%
X211500000Y-67025000D03*
D15*
%TO.P,J1,2*%
%TO.N,/EncB_Out*%
X211500000Y-69565000D03*
%TO.P,J1,3*%
%TO.N,/EncSw_Out*%
X211500000Y-72105000D03*
%TO.P,J1,4*%
%TO.N,GND*%
X211500000Y-74645000D03*
%TO.P,J1,5*%
%TO.N,VCC*%
X211500000Y-77185000D03*
%TD*%
D16*
%TO.N,VCC*%
X208400000Y-66900000D03*
X198000000Y-73100000D03*
X204765689Y-75834303D03*
X196100002Y-65900000D03*
%TO.N,Trig_EncA*%
X201700000Y-73800008D03*
X201700000Y-72199977D03*
%TD*%
D17*
%TO.N,GND*%
X193150000Y-72100000D02*
X193846334Y-72100000D01*
X193700000Y-71550000D02*
X193150000Y-72100000D01*
X194500000Y-71600000D02*
X195196334Y-71600000D01*
X194000000Y-72100000D02*
X194500000Y-71600000D01*
X193150000Y-72100000D02*
X194000000Y-72100000D01*
X203375000Y-68912500D02*
X203487500Y-68800000D01*
X203375000Y-71000000D02*
X203375000Y-68912500D01*
%TO.N,VCC*%
X208375000Y-66125004D02*
X208375000Y-65700000D01*
X208400000Y-66900000D02*
X208375000Y-66125004D01*
X196883834Y-73136668D02*
X197963332Y-73136668D01*
X197963332Y-73136668D02*
X198000000Y-73100000D01*
X205325000Y-74400000D02*
X205325000Y-75600000D01*
X205325000Y-75600000D02*
X205090697Y-75834303D01*
X205090697Y-75834303D02*
X204765689Y-75834303D01*
X196883834Y-66900000D02*
X196883834Y-66683832D01*
X196883834Y-66683832D02*
X196100002Y-65900000D01*
%TO.N,Trig_EncA*%
X196851334Y-74705834D02*
X196883834Y-74673334D01*
X196851334Y-76200000D02*
X196851334Y-74705834D01*
X196083824Y-73873324D02*
X196883834Y-74673334D01*
X196083824Y-72437510D02*
X196083824Y-73873324D01*
X196921334Y-71600000D02*
X196083824Y-72437510D01*
X196921334Y-71600000D02*
X197221334Y-71900000D01*
X201700000Y-72200000D02*
X201700000Y-72200000D01*
X205325000Y-71977912D02*
X204902925Y-72399987D01*
X201900010Y-72399987D02*
X201700000Y-72199977D01*
X205325000Y-71000000D02*
X205325000Y-71977912D01*
X204902925Y-72399987D02*
X201900010Y-72399987D01*
X198999992Y-73800008D02*
X201700000Y-73800008D01*
X198126666Y-74673334D02*
X198999992Y-73800008D01*
X196883834Y-74673334D02*
X198126666Y-74673334D01*
%TO.N,Trig_EncB*%
X198437500Y-70000000D02*
X196883834Y-70000000D01*
X196883834Y-70000000D02*
X196883834Y-68507500D01*
X204025000Y-73525000D02*
X204025000Y-74400000D01*
X203499987Y-72999987D02*
X204025000Y-73525000D01*
X199099987Y-72999987D02*
X203499987Y-72999987D01*
X198437500Y-72337500D02*
X199099987Y-72999987D01*
X198437500Y-70000000D02*
X198437500Y-72337500D01*
%TO.N,Trig_EncSw*%
X203437500Y-67250000D02*
X203475000Y-67212500D01*
X203475000Y-67212500D02*
X203475000Y-65700000D01*
X204425010Y-68125010D02*
X203550000Y-67250000D01*
X203550000Y-67250000D02*
X203437500Y-67250000D01*
X205100000Y-68800000D02*
X205212500Y-68800000D01*
X203999989Y-69726587D02*
X204425010Y-69301566D01*
X203999989Y-70974989D02*
X203999989Y-69726587D01*
X205212500Y-68800000D02*
X204500000Y-68800000D01*
X204500000Y-68800000D02*
X204425010Y-68725010D01*
X204425010Y-68725010D02*
X204425010Y-68125010D01*
X204425010Y-69301566D02*
X204425010Y-68725010D01*
%TO.N,Sig_EncA*%
X195226334Y-73144168D02*
X195233834Y-73136668D01*
X195226334Y-76200000D02*
X195226334Y-73144168D01*
X193150000Y-74600000D02*
X193150000Y-75200000D01*
X195160500Y-74600000D02*
X193150000Y-74600000D01*
X195233834Y-74673334D02*
X195160500Y-74600000D01*
D18*
%TO.N,Sig_EncB*%
X192910000Y-69600000D02*
X192950000Y-69640000D01*
D17*
X195233834Y-66900000D02*
X195233834Y-70000000D01*
X194700000Y-70000000D02*
X194300000Y-69600000D01*
X195233834Y-70000000D02*
X194700000Y-70000000D01*
X194300000Y-69600000D02*
X193150000Y-69600000D01*
%TO.N,Sig_EncSw*%
X207350000Y-69679998D02*
X206945012Y-69275010D01*
X205247500Y-67235000D02*
X205262500Y-67250000D01*
X205225000Y-67212500D02*
X205262500Y-67250000D01*
X205225000Y-65700000D02*
X205225000Y-67212500D01*
X206725000Y-65700000D02*
X205225000Y-65700000D01*
X205300000Y-67250000D02*
X207650000Y-69600000D01*
X205262500Y-67250000D02*
X205300000Y-67250000D01*
%TO.N,/EncA_Out*%
X208848542Y-72300000D02*
X210333541Y-70815001D01*
X205851455Y-72300000D02*
X208848542Y-72300000D01*
X204675000Y-73476455D02*
X205851455Y-72300000D01*
X204675000Y-74400000D02*
X204675000Y-73476455D01*
X212625000Y-67025000D02*
X211500000Y-67025000D01*
X213100000Y-67500000D02*
X212625000Y-67025000D01*
X213100000Y-70300000D02*
X213100000Y-67500000D01*
X212584999Y-70815001D02*
X213100000Y-70300000D01*
X210333541Y-70815001D02*
X212584999Y-70815001D01*
%TO.N,/EncB_Out*%
X204675000Y-71000000D02*
X204675000Y-70125000D01*
X204675000Y-70125000D02*
X205000000Y-69800000D01*
X208500000Y-71600000D02*
X210535000Y-69565000D01*
X205000000Y-69800000D02*
X205795002Y-69800000D01*
X205795002Y-69800000D02*
X206000000Y-70004998D01*
X206000000Y-70004998D02*
X206000000Y-71300000D01*
X206000000Y-71300000D02*
X206300000Y-71600000D01*
X206300000Y-71600000D02*
X208500000Y-71600000D01*
X210535000Y-69565000D02*
X211500000Y-69565000D01*
%TO.N,/EncSw_Out*%
X210650001Y-72954999D02*
X211500000Y-72105000D01*
X206642086Y-72954999D02*
X210650001Y-72954999D01*
X206000000Y-73597085D02*
X206642086Y-72954999D01*
X204500000Y-76700000D02*
X205100000Y-76700000D01*
X205100000Y-76700000D02*
X206000000Y-75800000D01*
X203375000Y-75575000D02*
X204500000Y-76700000D01*
X206000000Y-75800000D02*
X206000000Y-73597085D01*
X203375000Y-74400000D02*
X203375000Y-75575000D01*
%TD*%
D19*
%TO.N,GND*%
X214940000Y-80440000D02*
X191260000Y-80440000D01*
X191260000Y-72162595D01*
X191508282Y-72162595D01*
X191552039Y-72481675D01*
X191657205Y-72786088D01*
X191750186Y-72960044D01*
X191899223Y-73014024D01*
X191795506Y-73069463D01*
X191698815Y-73148815D01*
X191619463Y-73245506D01*
X191560498Y-73355820D01*
X191524188Y-73475518D01*
X191511928Y-73600000D01*
X191511928Y-75600000D01*
X191524188Y-75724482D01*
X191560498Y-75844180D01*
X191619463Y-75954494D01*
X191698815Y-76051185D01*
X191795506Y-76130537D01*
X191905820Y-76189502D01*
X192025518Y-76225812D01*
X192150000Y-76238072D01*
X193975762Y-76238072D01*
X193975762Y-76412500D01*
X193992106Y-76578438D01*
X194040508Y-76738000D01*
X194119109Y-76885052D01*
X194224889Y-77013945D01*
X194353782Y-77119725D01*
X194500834Y-77198326D01*
X194660396Y-77246728D01*
X194826334Y-77263072D01*
X195626334Y-77263072D01*
X195792272Y-77246728D01*
X195951834Y-77198326D01*
X196038834Y-77151823D01*
X196125834Y-77198326D01*
X196285396Y-77246728D01*
X196451334Y-77263072D01*
X197251334Y-77263072D01*
X197417272Y-77246728D01*
X197576834Y-77198326D01*
X197723886Y-77119725D01*
X197852779Y-77013945D01*
X197958559Y-76885052D01*
X198037160Y-76738000D01*
X198085562Y-76578438D01*
X198098212Y-76450000D01*
X198511928Y-76450000D01*
X198511928Y-78950000D01*
X198524188Y-79074482D01*
X198560498Y-79194180D01*
X198619463Y-79304494D01*
X198698815Y-79401185D01*
X198795506Y-79480537D01*
X198905820Y-79539502D01*
X199025518Y-79575812D01*
X199150000Y-79588072D01*
X202150000Y-79588072D01*
X202274482Y-79575812D01*
X202394180Y-79539502D01*
X202504494Y-79480537D01*
X202601185Y-79401185D01*
X202680537Y-79304494D01*
X202739502Y-79194180D01*
X202775812Y-79074482D01*
X202788072Y-78950000D01*
X202788072Y-76450000D01*
X202775812Y-76325518D01*
X202739502Y-76205820D01*
X202680537Y-76095506D01*
X202601185Y-75998815D01*
X202504494Y-75919463D01*
X202394180Y-75860498D01*
X202274482Y-75824188D01*
X202150000Y-75811928D01*
X199150000Y-75811928D01*
X199025518Y-75824188D01*
X198905820Y-75860498D01*
X198795506Y-75919463D01*
X198698815Y-75998815D01*
X198619463Y-76095506D01*
X198560498Y-76205820D01*
X198524188Y-76325518D01*
X198511928Y-76450000D01*
X198098212Y-76450000D01*
X198101906Y-76412500D01*
X198101906Y-75987500D01*
X198085562Y-75821562D01*
X198037160Y-75662000D01*
X197958559Y-75514948D01*
X197953131Y-75508334D01*
X198085648Y-75508334D01*
X198126666Y-75512374D01*
X198167684Y-75508334D01*
X198167685Y-75508334D01*
X198290355Y-75496252D01*
X198447753Y-75448506D01*
X198592812Y-75370970D01*
X198719957Y-75266625D01*
X198746112Y-75234755D01*
X199345860Y-74635008D01*
X201086715Y-74635008D01*
X201209744Y-74717213D01*
X201398102Y-74795234D01*
X201598061Y-74835008D01*
X201801939Y-74835008D01*
X202001898Y-74795234D01*
X202190256Y-74717213D01*
X202359774Y-74603945D01*
X202503937Y-74459782D01*
X202540000Y-74405810D01*
X202540001Y-75533972D01*
X202535960Y-75575000D01*
X202552082Y-75738688D01*
X202599828Y-75896086D01*
X202672222Y-76031525D01*
X202677365Y-76041146D01*
X202781710Y-76168291D01*
X202813574Y-76194441D01*
X203880558Y-77261426D01*
X203906709Y-77293291D01*
X204033854Y-77397636D01*
X204178913Y-77475172D01*
X204336311Y-77522918D01*
X204458981Y-77535000D01*
X204458991Y-77535000D01*
X204499999Y-77539039D01*
X204541007Y-77535000D01*
X205058982Y-77535000D01*
X205100000Y-77539040D01*
X205141018Y-77535000D01*
X205141019Y-77535000D01*
X205263689Y-77522918D01*
X205421087Y-77475172D01*
X205566146Y-77397636D01*
X205693291Y-77293291D01*
X205719446Y-77261421D01*
X205942127Y-77038740D01*
X210015000Y-77038740D01*
X210015000Y-77331260D01*
X210072068Y-77618158D01*
X210184010Y-77888411D01*
X210346525Y-78131632D01*
X210553368Y-78338475D01*
X210796589Y-78500990D01*
X211066842Y-78612932D01*
X211353740Y-78670000D01*
X211646260Y-78670000D01*
X211933158Y-78612932D01*
X212203411Y-78500990D01*
X212446632Y-78338475D01*
X212653475Y-78131632D01*
X212815990Y-77888411D01*
X212927932Y-77618158D01*
X212985000Y-77331260D01*
X212985000Y-77038740D01*
X212927932Y-76751842D01*
X212815990Y-76481589D01*
X212653475Y-76238368D01*
X212446632Y-76031525D01*
X212264466Y-75909805D01*
X212381355Y-75840178D01*
X212597588Y-75645269D01*
X212771641Y-75411920D01*
X212896825Y-75149099D01*
X212941476Y-75001890D01*
X212820155Y-74772000D01*
X211627000Y-74772000D01*
X211627000Y-74792000D01*
X211373000Y-74792000D01*
X211373000Y-74772000D01*
X210179845Y-74772000D01*
X210058524Y-75001890D01*
X210103175Y-75149099D01*
X210228359Y-75411920D01*
X210402412Y-75645269D01*
X210618645Y-75840178D01*
X210735534Y-75909805D01*
X210553368Y-76031525D01*
X210346525Y-76238368D01*
X210184010Y-76481589D01*
X210072068Y-76751842D01*
X210015000Y-77038740D01*
X205942127Y-77038740D01*
X206561427Y-76419440D01*
X206593291Y-76393291D01*
X206697636Y-76266146D01*
X206775172Y-76121087D01*
X206809130Y-76009142D01*
X207079571Y-76140704D01*
X207391108Y-76222384D01*
X207712595Y-76241718D01*
X208031675Y-76197961D01*
X208336088Y-76092795D01*
X208510044Y-75999814D01*
X208605808Y-75735413D01*
X207650000Y-74779605D01*
X207635858Y-74793748D01*
X207456253Y-74614143D01*
X207470395Y-74600000D01*
X207456253Y-74585858D01*
X207635858Y-74406253D01*
X207650000Y-74420395D01*
X207664143Y-74406253D01*
X207843748Y-74585858D01*
X207829605Y-74600000D01*
X208785413Y-75555808D01*
X209049814Y-75460044D01*
X209190704Y-75170429D01*
X209272384Y-74858892D01*
X209291718Y-74537405D01*
X209247961Y-74218325D01*
X209142795Y-73913912D01*
X209076562Y-73789999D01*
X210294058Y-73789999D01*
X210228359Y-73878080D01*
X210103175Y-74140901D01*
X210058524Y-74288110D01*
X210179845Y-74518000D01*
X211373000Y-74518000D01*
X211373000Y-74498000D01*
X211627000Y-74498000D01*
X211627000Y-74518000D01*
X212820155Y-74518000D01*
X212941476Y-74288110D01*
X212896825Y-74140901D01*
X212771641Y-73878080D01*
X212597588Y-73644731D01*
X212381355Y-73449822D01*
X212264466Y-73380195D01*
X212446632Y-73258475D01*
X212653475Y-73051632D01*
X212815990Y-72808411D01*
X212927932Y-72538158D01*
X212985000Y-72251260D01*
X212985000Y-71958740D01*
X212927932Y-71671842D01*
X212895441Y-71593402D01*
X212906086Y-71590173D01*
X213051145Y-71512637D01*
X213178290Y-71408292D01*
X213204445Y-71376422D01*
X213661422Y-70919445D01*
X213693291Y-70893291D01*
X213797636Y-70766146D01*
X213875172Y-70621087D01*
X213922918Y-70463689D01*
X213935000Y-70341019D01*
X213935000Y-70341009D01*
X213939039Y-70300001D01*
X213935000Y-70258993D01*
X213935000Y-67541007D01*
X213939039Y-67499999D01*
X213935000Y-67458991D01*
X213935000Y-67458981D01*
X213922918Y-67336311D01*
X213875172Y-67178913D01*
X213797636Y-67033854D01*
X213693291Y-66906709D01*
X213661421Y-66880554D01*
X213244446Y-66463579D01*
X213218291Y-66431709D01*
X213091146Y-66327364D01*
X212988072Y-66272270D01*
X212988072Y-66175000D01*
X212975812Y-66050518D01*
X212939502Y-65930820D01*
X212880537Y-65820506D01*
X212801185Y-65723815D01*
X212704494Y-65644463D01*
X212594180Y-65585498D01*
X212474482Y-65549188D01*
X212350000Y-65536928D01*
X210650000Y-65536928D01*
X210525518Y-65549188D01*
X210405820Y-65585498D01*
X210295506Y-65644463D01*
X210198815Y-65723815D01*
X210119463Y-65820506D01*
X210060498Y-65930820D01*
X210024188Y-66050518D01*
X210011928Y-66175000D01*
X210011928Y-67875000D01*
X210024188Y-67999482D01*
X210060498Y-68119180D01*
X210119463Y-68229494D01*
X210198815Y-68326185D01*
X210295506Y-68405537D01*
X210405820Y-68464502D01*
X210478380Y-68486513D01*
X210346525Y-68618368D01*
X210236547Y-68782962D01*
X210213913Y-68789828D01*
X210068854Y-68867364D01*
X210025394Y-68903031D01*
X209941709Y-68971709D01*
X209915563Y-69003568D01*
X209285000Y-69634132D01*
X209285000Y-69438967D01*
X209222168Y-69123088D01*
X209098918Y-68825537D01*
X208919987Y-68557748D01*
X208692252Y-68330013D01*
X208424463Y-68151082D01*
X208126912Y-68027832D01*
X207811033Y-67965000D01*
X207488967Y-67965000D01*
X207244496Y-68013628D01*
X206388072Y-67157205D01*
X206388072Y-67012500D01*
X206371248Y-66841684D01*
X206357297Y-66795694D01*
X206361500Y-66796969D01*
X206525000Y-66813072D01*
X206925000Y-66813072D01*
X207088500Y-66796969D01*
X207245716Y-66749278D01*
X207390049Y-66672130D01*
X207365000Y-66798061D01*
X207365000Y-67001939D01*
X207404774Y-67201898D01*
X207482795Y-67390256D01*
X207596063Y-67559774D01*
X207740226Y-67703937D01*
X207909744Y-67817205D01*
X208098102Y-67895226D01*
X208298061Y-67935000D01*
X208501939Y-67935000D01*
X208701898Y-67895226D01*
X208890256Y-67817205D01*
X209059774Y-67703937D01*
X209203937Y-67559774D01*
X209317205Y-67390256D01*
X209395226Y-67201898D01*
X209435000Y-67001939D01*
X209435000Y-66798061D01*
X209395226Y-66598102D01*
X209317205Y-66409744D01*
X209301162Y-66385734D01*
X209349278Y-66295716D01*
X209396969Y-66138500D01*
X209413072Y-65975000D01*
X209413072Y-65425000D01*
X209396969Y-65261500D01*
X209349278Y-65104284D01*
X209271831Y-64959392D01*
X209167606Y-64832394D01*
X209040608Y-64728169D01*
X208895716Y-64650722D01*
X208738500Y-64603031D01*
X208575000Y-64586928D01*
X208175000Y-64586928D01*
X208011500Y-64603031D01*
X207854284Y-64650722D01*
X207709392Y-64728169D01*
X207582394Y-64832394D01*
X207550000Y-64871866D01*
X207517606Y-64832394D01*
X207390608Y-64728169D01*
X207245716Y-64650722D01*
X207088500Y-64603031D01*
X206925000Y-64586928D01*
X206525000Y-64586928D01*
X206361500Y-64603031D01*
X206204284Y-64650722D01*
X206059392Y-64728169D01*
X206025317Y-64756134D01*
X205998942Y-64734488D01*
X205847567Y-64653577D01*
X205683316Y-64603752D01*
X205512500Y-64586928D01*
X204937500Y-64586928D01*
X204766684Y-64603752D01*
X204602433Y-64653577D01*
X204451058Y-64734488D01*
X204350000Y-64817425D01*
X204248942Y-64734488D01*
X204097567Y-64653577D01*
X203933316Y-64603752D01*
X203762500Y-64586928D01*
X203187500Y-64586928D01*
X203016684Y-64603752D01*
X202852433Y-64653577D01*
X202701058Y-64734488D01*
X202609834Y-64809354D01*
X202601185Y-64798815D01*
X202504494Y-64719463D01*
X202394180Y-64660498D01*
X202274482Y-64624188D01*
X202150000Y-64611928D01*
X199150000Y-64611928D01*
X199025518Y-64624188D01*
X198905820Y-64660498D01*
X198795506Y-64719463D01*
X198698815Y-64798815D01*
X198619463Y-64895506D01*
X198560498Y-65005820D01*
X198524188Y-65125518D01*
X198511928Y-65250000D01*
X198511928Y-67750000D01*
X198524188Y-67874482D01*
X198560498Y-67994180D01*
X198619463Y-68104494D01*
X198698815Y-68201185D01*
X198795506Y-68280537D01*
X198905820Y-68339502D01*
X199025518Y-68375812D01*
X199150000Y-68388072D01*
X202150000Y-68388072D01*
X202274482Y-68375812D01*
X202312565Y-68364260D01*
X202315000Y-68514250D01*
X202473750Y-68673000D01*
X203360500Y-68673000D01*
X203360500Y-68653000D01*
X203590010Y-68653000D01*
X203590010Y-68683991D01*
X203585970Y-68725010D01*
X203590010Y-68766028D01*
X203590010Y-68947000D01*
X203360500Y-68947000D01*
X203360500Y-68927000D01*
X202473750Y-68927000D01*
X202315000Y-69085750D01*
X202311928Y-69275000D01*
X202324188Y-69399482D01*
X202360498Y-69519180D01*
X202419463Y-69629494D01*
X202498815Y-69726185D01*
X202595506Y-69805537D01*
X202688392Y-69855186D01*
X202632089Y-69964219D01*
X202597483Y-70084420D01*
X202586992Y-70209063D01*
X202590000Y-70714250D01*
X202748750Y-70873000D01*
X203164989Y-70873000D01*
X203164989Y-71016007D01*
X203175921Y-71127000D01*
X202748750Y-71127000D01*
X202590000Y-71285750D01*
X202588337Y-71564987D01*
X202520497Y-71564987D01*
X202503937Y-71540203D01*
X202359774Y-71396040D01*
X202190256Y-71282772D01*
X202001898Y-71204751D01*
X201801939Y-71164977D01*
X201598061Y-71164977D01*
X201398102Y-71204751D01*
X201209744Y-71282772D01*
X201040226Y-71396040D01*
X200896063Y-71540203D01*
X200782795Y-71709721D01*
X200704774Y-71898079D01*
X200665000Y-72098038D01*
X200665000Y-72164987D01*
X199445855Y-72164987D01*
X199272500Y-71991633D01*
X199272500Y-71006603D01*
X199380820Y-71064502D01*
X199500518Y-71100812D01*
X199625000Y-71113072D01*
X199876750Y-71110000D01*
X200035500Y-70951250D01*
X200035500Y-70127000D01*
X200289500Y-70127000D01*
X200289500Y-70951250D01*
X200448250Y-71110000D01*
X200700000Y-71113072D01*
X200824482Y-71100812D01*
X200944180Y-71064502D01*
X201054494Y-71005537D01*
X201151185Y-70926185D01*
X201230537Y-70829494D01*
X201289502Y-70719180D01*
X201325812Y-70599482D01*
X201338072Y-70475000D01*
X201335000Y-70285750D01*
X201176250Y-70127000D01*
X200289500Y-70127000D01*
X200035500Y-70127000D01*
X200015500Y-70127000D01*
X200015500Y-69873000D01*
X200035500Y-69873000D01*
X200035500Y-69048750D01*
X200289500Y-69048750D01*
X200289500Y-69873000D01*
X201176250Y-69873000D01*
X201335000Y-69714250D01*
X201338072Y-69525000D01*
X201325812Y-69400518D01*
X201289502Y-69280820D01*
X201230537Y-69170506D01*
X201151185Y-69073815D01*
X201054494Y-68994463D01*
X200944180Y-68935498D01*
X200824482Y-68899188D01*
X200700000Y-68886928D01*
X200448250Y-68890000D01*
X200289500Y-69048750D01*
X200035500Y-69048750D01*
X199876750Y-68890000D01*
X199625000Y-68886928D01*
X199500518Y-68899188D01*
X199380820Y-68935498D01*
X199270506Y-68994463D01*
X199222606Y-69033774D01*
X199072567Y-68953577D01*
X198908316Y-68903752D01*
X198737500Y-68886928D01*
X198137500Y-68886928D01*
X197966684Y-68903752D01*
X197867071Y-68933969D01*
X197885442Y-68873408D01*
X197901906Y-68706250D01*
X197901906Y-68193750D01*
X197885442Y-68026592D01*
X197836684Y-67865858D01*
X197757505Y-67717725D01*
X197737441Y-67693277D01*
X197780665Y-67640608D01*
X197858112Y-67495716D01*
X197905803Y-67338500D01*
X197921906Y-67175000D01*
X197921906Y-66625000D01*
X197905803Y-66461500D01*
X197858112Y-66304284D01*
X197780665Y-66159392D01*
X197676440Y-66032394D01*
X197549442Y-65928169D01*
X197404550Y-65850722D01*
X197247334Y-65803031D01*
X197176971Y-65796101D01*
X197124094Y-65743224D01*
X197095228Y-65598102D01*
X197017207Y-65409744D01*
X196903939Y-65240226D01*
X196759776Y-65096063D01*
X196590258Y-64982795D01*
X196401900Y-64904774D01*
X196201941Y-64865000D01*
X195998063Y-64865000D01*
X195798104Y-64904774D01*
X195609746Y-64982795D01*
X195440228Y-65096063D01*
X195296065Y-65240226D01*
X195182797Y-65409744D01*
X195104776Y-65598102D01*
X195067216Y-65786928D01*
X195033834Y-65786928D01*
X194870334Y-65803031D01*
X194713118Y-65850722D01*
X194568226Y-65928169D01*
X194441228Y-66032394D01*
X194337003Y-66159392D01*
X194259556Y-66304284D01*
X194211865Y-66461500D01*
X194195762Y-66625000D01*
X194195762Y-67175000D01*
X194211865Y-67338500D01*
X194259556Y-67495716D01*
X194337003Y-67640608D01*
X194360227Y-67668906D01*
X194320163Y-67717725D01*
X194240984Y-67865858D01*
X194192226Y-68026592D01*
X194175762Y-68193750D01*
X194175762Y-68318995D01*
X193924463Y-68151082D01*
X193626912Y-68027832D01*
X193311033Y-67965000D01*
X192988967Y-67965000D01*
X192673088Y-68027832D01*
X192375537Y-68151082D01*
X192107748Y-68330013D01*
X191880013Y-68557748D01*
X191701082Y-68825537D01*
X191577832Y-69123088D01*
X191515000Y-69438967D01*
X191515000Y-69761033D01*
X191577832Y-70076912D01*
X191701082Y-70374463D01*
X191880013Y-70642252D01*
X192107748Y-70869987D01*
X192204935Y-70934925D01*
X192194192Y-70964587D01*
X193150000Y-71920395D01*
X193164143Y-71906253D01*
X193343748Y-72085858D01*
X193329605Y-72100000D01*
X193343748Y-72114143D01*
X193164143Y-72293748D01*
X193150000Y-72279605D01*
X193135858Y-72293748D01*
X192956253Y-72114143D01*
X192970395Y-72100000D01*
X192014587Y-71144192D01*
X191750186Y-71239956D01*
X191609296Y-71529571D01*
X191527616Y-71841108D01*
X191508282Y-72162595D01*
X191260000Y-72162595D01*
X191260000Y-63760000D01*
X214940001Y-63760000D01*
X214940000Y-80440000D01*
%TA.AperFunction,Conductor*%
D20*
G36*
X214940000Y-80440000D02*
G01*
X191260000Y-80440000D01*
X191260000Y-72162595D01*
X191508282Y-72162595D01*
X191552039Y-72481675D01*
X191657205Y-72786088D01*
X191750186Y-72960044D01*
X191899223Y-73014024D01*
X191795506Y-73069463D01*
X191698815Y-73148815D01*
X191619463Y-73245506D01*
X191560498Y-73355820D01*
X191524188Y-73475518D01*
X191511928Y-73600000D01*
X191511928Y-75600000D01*
X191524188Y-75724482D01*
X191560498Y-75844180D01*
X191619463Y-75954494D01*
X191698815Y-76051185D01*
X191795506Y-76130537D01*
X191905820Y-76189502D01*
X192025518Y-76225812D01*
X192150000Y-76238072D01*
X193975762Y-76238072D01*
X193975762Y-76412500D01*
X193992106Y-76578438D01*
X194040508Y-76738000D01*
X194119109Y-76885052D01*
X194224889Y-77013945D01*
X194353782Y-77119725D01*
X194500834Y-77198326D01*
X194660396Y-77246728D01*
X194826334Y-77263072D01*
X195626334Y-77263072D01*
X195792272Y-77246728D01*
X195951834Y-77198326D01*
X196038834Y-77151823D01*
X196125834Y-77198326D01*
X196285396Y-77246728D01*
X196451334Y-77263072D01*
X197251334Y-77263072D01*
X197417272Y-77246728D01*
X197576834Y-77198326D01*
X197723886Y-77119725D01*
X197852779Y-77013945D01*
X197958559Y-76885052D01*
X198037160Y-76738000D01*
X198085562Y-76578438D01*
X198098212Y-76450000D01*
X198511928Y-76450000D01*
X198511928Y-78950000D01*
X198524188Y-79074482D01*
X198560498Y-79194180D01*
X198619463Y-79304494D01*
X198698815Y-79401185D01*
X198795506Y-79480537D01*
X198905820Y-79539502D01*
X199025518Y-79575812D01*
X199150000Y-79588072D01*
X202150000Y-79588072D01*
X202274482Y-79575812D01*
X202394180Y-79539502D01*
X202504494Y-79480537D01*
X202601185Y-79401185D01*
X202680537Y-79304494D01*
X202739502Y-79194180D01*
X202775812Y-79074482D01*
X202788072Y-78950000D01*
X202788072Y-76450000D01*
X202775812Y-76325518D01*
X202739502Y-76205820D01*
X202680537Y-76095506D01*
X202601185Y-75998815D01*
X202504494Y-75919463D01*
X202394180Y-75860498D01*
X202274482Y-75824188D01*
X202150000Y-75811928D01*
X199150000Y-75811928D01*
X199025518Y-75824188D01*
X198905820Y-75860498D01*
X198795506Y-75919463D01*
X198698815Y-75998815D01*
X198619463Y-76095506D01*
X198560498Y-76205820D01*
X198524188Y-76325518D01*
X198511928Y-76450000D01*
X198098212Y-76450000D01*
X198101906Y-76412500D01*
X198101906Y-75987500D01*
X198085562Y-75821562D01*
X198037160Y-75662000D01*
X197958559Y-75514948D01*
X197953131Y-75508334D01*
X198085648Y-75508334D01*
X198126666Y-75512374D01*
X198167684Y-75508334D01*
X198167685Y-75508334D01*
X198290355Y-75496252D01*
X198447753Y-75448506D01*
X198592812Y-75370970D01*
X198719957Y-75266625D01*
X198746112Y-75234755D01*
X199345860Y-74635008D01*
X201086715Y-74635008D01*
X201209744Y-74717213D01*
X201398102Y-74795234D01*
X201598061Y-74835008D01*
X201801939Y-74835008D01*
X202001898Y-74795234D01*
X202190256Y-74717213D01*
X202359774Y-74603945D01*
X202503937Y-74459782D01*
X202540000Y-74405810D01*
X202540001Y-75533972D01*
X202535960Y-75575000D01*
X202552082Y-75738688D01*
X202599828Y-75896086D01*
X202672222Y-76031525D01*
X202677365Y-76041146D01*
X202781710Y-76168291D01*
X202813574Y-76194441D01*
X203880558Y-77261426D01*
X203906709Y-77293291D01*
X204033854Y-77397636D01*
X204178913Y-77475172D01*
X204336311Y-77522918D01*
X204458981Y-77535000D01*
X204458991Y-77535000D01*
X204499999Y-77539039D01*
X204541007Y-77535000D01*
X205058982Y-77535000D01*
X205100000Y-77539040D01*
X205141018Y-77535000D01*
X205141019Y-77535000D01*
X205263689Y-77522918D01*
X205421087Y-77475172D01*
X205566146Y-77397636D01*
X205693291Y-77293291D01*
X205719446Y-77261421D01*
X205942127Y-77038740D01*
X210015000Y-77038740D01*
X210015000Y-77331260D01*
X210072068Y-77618158D01*
X210184010Y-77888411D01*
X210346525Y-78131632D01*
X210553368Y-78338475D01*
X210796589Y-78500990D01*
X211066842Y-78612932D01*
X211353740Y-78670000D01*
X211646260Y-78670000D01*
X211933158Y-78612932D01*
X212203411Y-78500990D01*
X212446632Y-78338475D01*
X212653475Y-78131632D01*
X212815990Y-77888411D01*
X212927932Y-77618158D01*
X212985000Y-77331260D01*
X212985000Y-77038740D01*
X212927932Y-76751842D01*
X212815990Y-76481589D01*
X212653475Y-76238368D01*
X212446632Y-76031525D01*
X212264466Y-75909805D01*
X212381355Y-75840178D01*
X212597588Y-75645269D01*
X212771641Y-75411920D01*
X212896825Y-75149099D01*
X212941476Y-75001890D01*
X212820155Y-74772000D01*
X211627000Y-74772000D01*
X211627000Y-74792000D01*
X211373000Y-74792000D01*
X211373000Y-74772000D01*
X210179845Y-74772000D01*
X210058524Y-75001890D01*
X210103175Y-75149099D01*
X210228359Y-75411920D01*
X210402412Y-75645269D01*
X210618645Y-75840178D01*
X210735534Y-75909805D01*
X210553368Y-76031525D01*
X210346525Y-76238368D01*
X210184010Y-76481589D01*
X210072068Y-76751842D01*
X210015000Y-77038740D01*
X205942127Y-77038740D01*
X206561427Y-76419440D01*
X206593291Y-76393291D01*
X206697636Y-76266146D01*
X206775172Y-76121087D01*
X206809130Y-76009142D01*
X207079571Y-76140704D01*
X207391108Y-76222384D01*
X207712595Y-76241718D01*
X208031675Y-76197961D01*
X208336088Y-76092795D01*
X208510044Y-75999814D01*
X208605808Y-75735413D01*
X207650000Y-74779605D01*
X207635858Y-74793748D01*
X207456253Y-74614143D01*
X207470395Y-74600000D01*
X207456253Y-74585858D01*
X207635858Y-74406253D01*
X207650000Y-74420395D01*
X207664143Y-74406253D01*
X207843748Y-74585858D01*
X207829605Y-74600000D01*
X208785413Y-75555808D01*
X209049814Y-75460044D01*
X209190704Y-75170429D01*
X209272384Y-74858892D01*
X209291718Y-74537405D01*
X209247961Y-74218325D01*
X209142795Y-73913912D01*
X209076562Y-73789999D01*
X210294058Y-73789999D01*
X210228359Y-73878080D01*
X210103175Y-74140901D01*
X210058524Y-74288110D01*
X210179845Y-74518000D01*
X211373000Y-74518000D01*
X211373000Y-74498000D01*
X211627000Y-74498000D01*
X211627000Y-74518000D01*
X212820155Y-74518000D01*
X212941476Y-74288110D01*
X212896825Y-74140901D01*
X212771641Y-73878080D01*
X212597588Y-73644731D01*
X212381355Y-73449822D01*
X212264466Y-73380195D01*
X212446632Y-73258475D01*
X212653475Y-73051632D01*
X212815990Y-72808411D01*
X212927932Y-72538158D01*
X212985000Y-72251260D01*
X212985000Y-71958740D01*
X212927932Y-71671842D01*
X212895441Y-71593402D01*
X212906086Y-71590173D01*
X213051145Y-71512637D01*
X213178290Y-71408292D01*
X213204445Y-71376422D01*
X213661422Y-70919445D01*
X213693291Y-70893291D01*
X213797636Y-70766146D01*
X213875172Y-70621087D01*
X213922918Y-70463689D01*
X213935000Y-70341019D01*
X213935000Y-70341009D01*
X213939039Y-70300001D01*
X213935000Y-70258993D01*
X213935000Y-67541007D01*
X213939039Y-67499999D01*
X213935000Y-67458991D01*
X213935000Y-67458981D01*
X213922918Y-67336311D01*
X213875172Y-67178913D01*
X213797636Y-67033854D01*
X213693291Y-66906709D01*
X213661421Y-66880554D01*
X213244446Y-66463579D01*
X213218291Y-66431709D01*
X213091146Y-66327364D01*
X212988072Y-66272270D01*
X212988072Y-66175000D01*
X212975812Y-66050518D01*
X212939502Y-65930820D01*
X212880537Y-65820506D01*
X212801185Y-65723815D01*
X212704494Y-65644463D01*
X212594180Y-65585498D01*
X212474482Y-65549188D01*
X212350000Y-65536928D01*
X210650000Y-65536928D01*
X210525518Y-65549188D01*
X210405820Y-65585498D01*
X210295506Y-65644463D01*
X210198815Y-65723815D01*
X210119463Y-65820506D01*
X210060498Y-65930820D01*
X210024188Y-66050518D01*
X210011928Y-66175000D01*
X210011928Y-67875000D01*
X210024188Y-67999482D01*
X210060498Y-68119180D01*
X210119463Y-68229494D01*
X210198815Y-68326185D01*
X210295506Y-68405537D01*
X210405820Y-68464502D01*
X210478380Y-68486513D01*
X210346525Y-68618368D01*
X210236547Y-68782962D01*
X210213913Y-68789828D01*
X210068854Y-68867364D01*
X210025394Y-68903031D01*
X209941709Y-68971709D01*
X209915563Y-69003568D01*
X209285000Y-69634132D01*
X209285000Y-69438967D01*
X209222168Y-69123088D01*
X209098918Y-68825537D01*
X208919987Y-68557748D01*
X208692252Y-68330013D01*
X208424463Y-68151082D01*
X208126912Y-68027832D01*
X207811033Y-67965000D01*
X207488967Y-67965000D01*
X207244496Y-68013628D01*
X206388072Y-67157205D01*
X206388072Y-67012500D01*
X206371248Y-66841684D01*
X206357297Y-66795694D01*
X206361500Y-66796969D01*
X206525000Y-66813072D01*
X206925000Y-66813072D01*
X207088500Y-66796969D01*
X207245716Y-66749278D01*
X207390049Y-66672130D01*
X207365000Y-66798061D01*
X207365000Y-67001939D01*
X207404774Y-67201898D01*
X207482795Y-67390256D01*
X207596063Y-67559774D01*
X207740226Y-67703937D01*
X207909744Y-67817205D01*
X208098102Y-67895226D01*
X208298061Y-67935000D01*
X208501939Y-67935000D01*
X208701898Y-67895226D01*
X208890256Y-67817205D01*
X209059774Y-67703937D01*
X209203937Y-67559774D01*
X209317205Y-67390256D01*
X209395226Y-67201898D01*
X209435000Y-67001939D01*
X209435000Y-66798061D01*
X209395226Y-66598102D01*
X209317205Y-66409744D01*
X209301162Y-66385734D01*
X209349278Y-66295716D01*
X209396969Y-66138500D01*
X209413072Y-65975000D01*
X209413072Y-65425000D01*
X209396969Y-65261500D01*
X209349278Y-65104284D01*
X209271831Y-64959392D01*
X209167606Y-64832394D01*
X209040608Y-64728169D01*
X208895716Y-64650722D01*
X208738500Y-64603031D01*
X208575000Y-64586928D01*
X208175000Y-64586928D01*
X208011500Y-64603031D01*
X207854284Y-64650722D01*
X207709392Y-64728169D01*
X207582394Y-64832394D01*
X207550000Y-64871866D01*
X207517606Y-64832394D01*
X207390608Y-64728169D01*
X207245716Y-64650722D01*
X207088500Y-64603031D01*
X206925000Y-64586928D01*
X206525000Y-64586928D01*
X206361500Y-64603031D01*
X206204284Y-64650722D01*
X206059392Y-64728169D01*
X206025317Y-64756134D01*
X205998942Y-64734488D01*
X205847567Y-64653577D01*
X205683316Y-64603752D01*
X205512500Y-64586928D01*
X204937500Y-64586928D01*
X204766684Y-64603752D01*
X204602433Y-64653577D01*
X204451058Y-64734488D01*
X204350000Y-64817425D01*
X204248942Y-64734488D01*
X204097567Y-64653577D01*
X203933316Y-64603752D01*
X203762500Y-64586928D01*
X203187500Y-64586928D01*
X203016684Y-64603752D01*
X202852433Y-64653577D01*
X202701058Y-64734488D01*
X202609834Y-64809354D01*
X202601185Y-64798815D01*
X202504494Y-64719463D01*
X202394180Y-64660498D01*
X202274482Y-64624188D01*
X202150000Y-64611928D01*
X199150000Y-64611928D01*
X199025518Y-64624188D01*
X198905820Y-64660498D01*
X198795506Y-64719463D01*
X198698815Y-64798815D01*
X198619463Y-64895506D01*
X198560498Y-65005820D01*
X198524188Y-65125518D01*
X198511928Y-65250000D01*
X198511928Y-67750000D01*
X198524188Y-67874482D01*
X198560498Y-67994180D01*
X198619463Y-68104494D01*
X198698815Y-68201185D01*
X198795506Y-68280537D01*
X198905820Y-68339502D01*
X199025518Y-68375812D01*
X199150000Y-68388072D01*
X202150000Y-68388072D01*
X202274482Y-68375812D01*
X202312565Y-68364260D01*
X202315000Y-68514250D01*
X202473750Y-68673000D01*
X203360500Y-68673000D01*
X203360500Y-68653000D01*
X203590010Y-68653000D01*
X203590010Y-68683991D01*
X203585970Y-68725010D01*
X203590010Y-68766028D01*
X203590010Y-68947000D01*
X203360500Y-68947000D01*
X203360500Y-68927000D01*
X202473750Y-68927000D01*
X202315000Y-69085750D01*
X202311928Y-69275000D01*
X202324188Y-69399482D01*
X202360498Y-69519180D01*
X202419463Y-69629494D01*
X202498815Y-69726185D01*
X202595506Y-69805537D01*
X202688392Y-69855186D01*
X202632089Y-69964219D01*
X202597483Y-70084420D01*
X202586992Y-70209063D01*
X202590000Y-70714250D01*
X202748750Y-70873000D01*
X203164989Y-70873000D01*
X203164989Y-71016007D01*
X203175921Y-71127000D01*
X202748750Y-71127000D01*
X202590000Y-71285750D01*
X202588337Y-71564987D01*
X202520497Y-71564987D01*
X202503937Y-71540203D01*
X202359774Y-71396040D01*
X202190256Y-71282772D01*
X202001898Y-71204751D01*
X201801939Y-71164977D01*
X201598061Y-71164977D01*
X201398102Y-71204751D01*
X201209744Y-71282772D01*
X201040226Y-71396040D01*
X200896063Y-71540203D01*
X200782795Y-71709721D01*
X200704774Y-71898079D01*
X200665000Y-72098038D01*
X200665000Y-72164987D01*
X199445855Y-72164987D01*
X199272500Y-71991633D01*
X199272500Y-71006603D01*
X199380820Y-71064502D01*
X199500518Y-71100812D01*
X199625000Y-71113072D01*
X199876750Y-71110000D01*
X200035500Y-70951250D01*
X200035500Y-70127000D01*
X200289500Y-70127000D01*
X200289500Y-70951250D01*
X200448250Y-71110000D01*
X200700000Y-71113072D01*
X200824482Y-71100812D01*
X200944180Y-71064502D01*
X201054494Y-71005537D01*
X201151185Y-70926185D01*
X201230537Y-70829494D01*
X201289502Y-70719180D01*
X201325812Y-70599482D01*
X201338072Y-70475000D01*
X201335000Y-70285750D01*
X201176250Y-70127000D01*
X200289500Y-70127000D01*
X200035500Y-70127000D01*
X200015500Y-70127000D01*
X200015500Y-69873000D01*
X200035500Y-69873000D01*
X200035500Y-69048750D01*
X200289500Y-69048750D01*
X200289500Y-69873000D01*
X201176250Y-69873000D01*
X201335000Y-69714250D01*
X201338072Y-69525000D01*
X201325812Y-69400518D01*
X201289502Y-69280820D01*
X201230537Y-69170506D01*
X201151185Y-69073815D01*
X201054494Y-68994463D01*
X200944180Y-68935498D01*
X200824482Y-68899188D01*
X200700000Y-68886928D01*
X200448250Y-68890000D01*
X200289500Y-69048750D01*
X200035500Y-69048750D01*
X199876750Y-68890000D01*
X199625000Y-68886928D01*
X199500518Y-68899188D01*
X199380820Y-68935498D01*
X199270506Y-68994463D01*
X199222606Y-69033774D01*
X199072567Y-68953577D01*
X198908316Y-68903752D01*
X198737500Y-68886928D01*
X198137500Y-68886928D01*
X197966684Y-68903752D01*
X197867071Y-68933969D01*
X197885442Y-68873408D01*
X197901906Y-68706250D01*
X197901906Y-68193750D01*
X197885442Y-68026592D01*
X197836684Y-67865858D01*
X197757505Y-67717725D01*
X197737441Y-67693277D01*
X197780665Y-67640608D01*
X197858112Y-67495716D01*
X197905803Y-67338500D01*
X197921906Y-67175000D01*
X197921906Y-66625000D01*
X197905803Y-66461500D01*
X197858112Y-66304284D01*
X197780665Y-66159392D01*
X197676440Y-66032394D01*
X197549442Y-65928169D01*
X197404550Y-65850722D01*
X197247334Y-65803031D01*
X197176971Y-65796101D01*
X197124094Y-65743224D01*
X197095228Y-65598102D01*
X197017207Y-65409744D01*
X196903939Y-65240226D01*
X196759776Y-65096063D01*
X196590258Y-64982795D01*
X196401900Y-64904774D01*
X196201941Y-64865000D01*
X195998063Y-64865000D01*
X195798104Y-64904774D01*
X195609746Y-64982795D01*
X195440228Y-65096063D01*
X195296065Y-65240226D01*
X195182797Y-65409744D01*
X195104776Y-65598102D01*
X195067216Y-65786928D01*
X195033834Y-65786928D01*
X194870334Y-65803031D01*
X194713118Y-65850722D01*
X194568226Y-65928169D01*
X194441228Y-66032394D01*
X194337003Y-66159392D01*
X194259556Y-66304284D01*
X194211865Y-66461500D01*
X194195762Y-66625000D01*
X194195762Y-67175000D01*
X194211865Y-67338500D01*
X194259556Y-67495716D01*
X194337003Y-67640608D01*
X194360227Y-67668906D01*
X194320163Y-67717725D01*
X194240984Y-67865858D01*
X194192226Y-68026592D01*
X194175762Y-68193750D01*
X194175762Y-68318995D01*
X193924463Y-68151082D01*
X193626912Y-68027832D01*
X193311033Y-67965000D01*
X192988967Y-67965000D01*
X192673088Y-68027832D01*
X192375537Y-68151082D01*
X192107748Y-68330013D01*
X191880013Y-68557748D01*
X191701082Y-68825537D01*
X191577832Y-69123088D01*
X191515000Y-69438967D01*
X191515000Y-69761033D01*
X191577832Y-70076912D01*
X191701082Y-70374463D01*
X191880013Y-70642252D01*
X192107748Y-70869987D01*
X192204935Y-70934925D01*
X192194192Y-70964587D01*
X193150000Y-71920395D01*
X193164143Y-71906253D01*
X193343748Y-72085858D01*
X193329605Y-72100000D01*
X193343748Y-72114143D01*
X193164143Y-72293748D01*
X193150000Y-72279605D01*
X193135858Y-72293748D01*
X192956253Y-72114143D01*
X192970395Y-72100000D01*
X192014587Y-71144192D01*
X191750186Y-71239956D01*
X191609296Y-71529571D01*
X191527616Y-71841108D01*
X191508282Y-72162595D01*
X191260000Y-72162595D01*
X191260000Y-63760000D01*
X214940001Y-63760000D01*
X214940000Y-80440000D01*
G37*
%TD.AperFunction*%
D19*
X195323334Y-71473000D02*
X195343334Y-71473000D01*
X195343334Y-71727000D01*
X195323334Y-71727000D01*
X195323334Y-71747000D01*
X195069334Y-71747000D01*
X195069334Y-71727000D01*
X195049334Y-71727000D01*
X195049334Y-71473000D01*
X195069334Y-71473000D01*
X195069334Y-71453000D01*
X195323334Y-71453000D01*
X195323334Y-71473000D01*
%TA.AperFunction,Conductor*%
D20*
G36*
X195323334Y-71473000D02*
G01*
X195343334Y-71473000D01*
X195343334Y-71727000D01*
X195323334Y-71727000D01*
X195323334Y-71747000D01*
X195069334Y-71747000D01*
X195069334Y-71727000D01*
X195049334Y-71727000D01*
X195049334Y-71473000D01*
X195069334Y-71473000D01*
X195069334Y-71453000D01*
X195323334Y-71453000D01*
X195323334Y-71473000D01*
G37*
%TD.AperFunction*%
%TD*%
M02*
