%TF.GenerationSoftware,KiCad,Pcbnew,5.1.12-1.fc35*%
%TF.CreationDate,2021-11-27T14:33:04+00:00*%
%TF.ProjectId,kiCAD_TriSchmittPanelMount_v003,6b694341-445f-4547-9269-5363686d6974,rev?*%
%TF.SameCoordinates,Original*%
%TF.FileFunction,Paste,Top*%
%TF.FilePolarity,Positive*%
%FSLAX46Y46*%
G04 Gerber Fmt 4.6, Leading zero omitted, Abs format (unit mm)*
G04 Created by KiCad (PCBNEW 5.1.12-1.fc35) date 2021-11-27 14:33:04*
%MOMM*%
%LPD*%
G01*
G04 APERTURE LIST*
%ADD10R,0.300000X1.600000*%
G04 APERTURE END LIST*
D10*
%TO.C,U1*%
X205325000Y-74400000D03*
X204675000Y-74400000D03*
X204025000Y-74400000D03*
X203375000Y-74400000D03*
X203375000Y-71000000D03*
X204025000Y-71000000D03*
X204675000Y-71000000D03*
X205325000Y-71000000D03*
%TD*%
%TO.C,R6*%
G36*
G01*
X204775000Y-67487500D02*
X204775000Y-67012500D01*
G75*
G02*
X205012500Y-66775000I237500J0D01*
G01*
X205512500Y-66775000D01*
G75*
G02*
X205750000Y-67012500I0J-237500D01*
G01*
X205750000Y-67487500D01*
G75*
G02*
X205512500Y-67725000I-237500J0D01*
G01*
X205012500Y-67725000D01*
G75*
G02*
X204775000Y-67487500I0J237500D01*
G01*
G37*
G36*
G01*
X202950000Y-67487500D02*
X202950000Y-67012500D01*
G75*
G02*
X203187500Y-66775000I237500J0D01*
G01*
X203687500Y-66775000D01*
G75*
G02*
X203925000Y-67012500I0J-237500D01*
G01*
X203925000Y-67487500D01*
G75*
G02*
X203687500Y-67725000I-237500J0D01*
G01*
X203187500Y-67725000D01*
G75*
G02*
X202950000Y-67487500I0J237500D01*
G01*
G37*
%TD*%
%TO.C,R5*%
G36*
G01*
X207975000Y-65975000D02*
X207975000Y-65425000D01*
G75*
G02*
X208175000Y-65225000I200000J0D01*
G01*
X208575000Y-65225000D01*
G75*
G02*
X208775000Y-65425000I0J-200000D01*
G01*
X208775000Y-65975000D01*
G75*
G02*
X208575000Y-66175000I-200000J0D01*
G01*
X208175000Y-66175000D01*
G75*
G02*
X207975000Y-65975000I0J200000D01*
G01*
G37*
G36*
G01*
X206325000Y-65975000D02*
X206325000Y-65425000D01*
G75*
G02*
X206525000Y-65225000I200000J0D01*
G01*
X206925000Y-65225000D01*
G75*
G02*
X207125000Y-65425000I0J-200000D01*
G01*
X207125000Y-65975000D01*
G75*
G02*
X206925000Y-66175000I-200000J0D01*
G01*
X206525000Y-66175000D01*
G75*
G02*
X206325000Y-65975000I0J200000D01*
G01*
G37*
%TD*%
%TO.C,R4*%
G36*
G01*
X195633834Y-69725000D02*
X195633834Y-70275000D01*
G75*
G02*
X195433834Y-70475000I-200000J0D01*
G01*
X195033834Y-70475000D01*
G75*
G02*
X194833834Y-70275000I0J200000D01*
G01*
X194833834Y-69725000D01*
G75*
G02*
X195033834Y-69525000I200000J0D01*
G01*
X195433834Y-69525000D01*
G75*
G02*
X195633834Y-69725000I0J-200000D01*
G01*
G37*
G36*
G01*
X197283834Y-69725000D02*
X197283834Y-70275000D01*
G75*
G02*
X197083834Y-70475000I-200000J0D01*
G01*
X196683834Y-70475000D01*
G75*
G02*
X196483834Y-70275000I0J200000D01*
G01*
X196483834Y-69725000D01*
G75*
G02*
X196683834Y-69525000I200000J0D01*
G01*
X197083834Y-69525000D01*
G75*
G02*
X197283834Y-69725000I0J-200000D01*
G01*
G37*
%TD*%
%TO.C,R3*%
G36*
G01*
X196483834Y-67175000D02*
X196483834Y-66625000D01*
G75*
G02*
X196683834Y-66425000I200000J0D01*
G01*
X197083834Y-66425000D01*
G75*
G02*
X197283834Y-66625000I0J-200000D01*
G01*
X197283834Y-67175000D01*
G75*
G02*
X197083834Y-67375000I-200000J0D01*
G01*
X196683834Y-67375000D01*
G75*
G02*
X196483834Y-67175000I0J200000D01*
G01*
G37*
G36*
G01*
X194833834Y-67175000D02*
X194833834Y-66625000D01*
G75*
G02*
X195033834Y-66425000I200000J0D01*
G01*
X195433834Y-66425000D01*
G75*
G02*
X195633834Y-66625000I0J-200000D01*
G01*
X195633834Y-67175000D01*
G75*
G02*
X195433834Y-67375000I-200000J0D01*
G01*
X195033834Y-67375000D01*
G75*
G02*
X194833834Y-67175000I0J200000D01*
G01*
G37*
%TD*%
%TO.C,R2*%
G36*
G01*
X197283834Y-74398334D02*
X197283834Y-74948334D01*
G75*
G02*
X197083834Y-75148334I-200000J0D01*
G01*
X196683834Y-75148334D01*
G75*
G02*
X196483834Y-74948334I0J200000D01*
G01*
X196483834Y-74398334D01*
G75*
G02*
X196683834Y-74198334I200000J0D01*
G01*
X197083834Y-74198334D01*
G75*
G02*
X197283834Y-74398334I0J-200000D01*
G01*
G37*
G36*
G01*
X195633834Y-74398334D02*
X195633834Y-74948334D01*
G75*
G02*
X195433834Y-75148334I-200000J0D01*
G01*
X195033834Y-75148334D01*
G75*
G02*
X194833834Y-74948334I0J200000D01*
G01*
X194833834Y-74398334D01*
G75*
G02*
X195033834Y-74198334I200000J0D01*
G01*
X195433834Y-74198334D01*
G75*
G02*
X195633834Y-74398334I0J-200000D01*
G01*
G37*
%TD*%
%TO.C,R1*%
G36*
G01*
X194833834Y-73411668D02*
X194833834Y-72861668D01*
G75*
G02*
X195033834Y-72661668I200000J0D01*
G01*
X195433834Y-72661668D01*
G75*
G02*
X195633834Y-72861668I0J-200000D01*
G01*
X195633834Y-73411668D01*
G75*
G02*
X195433834Y-73611668I-200000J0D01*
G01*
X195033834Y-73611668D01*
G75*
G02*
X194833834Y-73411668I0J200000D01*
G01*
G37*
G36*
G01*
X196483834Y-73411668D02*
X196483834Y-72861668D01*
G75*
G02*
X196683834Y-72661668I200000J0D01*
G01*
X197083834Y-72661668D01*
G75*
G02*
X197283834Y-72861668I0J-200000D01*
G01*
X197283834Y-73411668D01*
G75*
G02*
X197083834Y-73611668I-200000J0D01*
G01*
X196683834Y-73611668D01*
G75*
G02*
X196483834Y-73411668I0J200000D01*
G01*
G37*
%TD*%
%TO.C,D3*%
G36*
G01*
X204700000Y-65937500D02*
X204700000Y-65462500D01*
G75*
G02*
X204937500Y-65225000I237500J0D01*
G01*
X205512500Y-65225000D01*
G75*
G02*
X205750000Y-65462500I0J-237500D01*
G01*
X205750000Y-65937500D01*
G75*
G02*
X205512500Y-66175000I-237500J0D01*
G01*
X204937500Y-66175000D01*
G75*
G02*
X204700000Y-65937500I0J237500D01*
G01*
G37*
G36*
G01*
X202950000Y-65937500D02*
X202950000Y-65462500D01*
G75*
G02*
X203187500Y-65225000I237500J0D01*
G01*
X203762500Y-65225000D01*
G75*
G02*
X204000000Y-65462500I0J-237500D01*
G01*
X204000000Y-65937500D01*
G75*
G02*
X203762500Y-66175000I-237500J0D01*
G01*
X203187500Y-66175000D01*
G75*
G02*
X202950000Y-65937500I0J237500D01*
G01*
G37*
%TD*%
%TO.C,D2*%
G36*
G01*
X195688834Y-68193750D02*
X195688834Y-68706250D01*
G75*
G02*
X195470084Y-68925000I-218750J0D01*
G01*
X195032584Y-68925000D01*
G75*
G02*
X194813834Y-68706250I0J218750D01*
G01*
X194813834Y-68193750D01*
G75*
G02*
X195032584Y-67975000I218750J0D01*
G01*
X195470084Y-67975000D01*
G75*
G02*
X195688834Y-68193750I0J-218750D01*
G01*
G37*
G36*
G01*
X197263834Y-68193750D02*
X197263834Y-68706250D01*
G75*
G02*
X197045084Y-68925000I-218750J0D01*
G01*
X196607584Y-68925000D01*
G75*
G02*
X196388834Y-68706250I0J218750D01*
G01*
X196388834Y-68193750D01*
G75*
G02*
X196607584Y-67975000I218750J0D01*
G01*
X197045084Y-67975000D01*
G75*
G02*
X197263834Y-68193750I0J-218750D01*
G01*
G37*
%TD*%
%TO.C,D1*%
G36*
G01*
X197463834Y-75987500D02*
X197463834Y-76412500D01*
G75*
G02*
X197251334Y-76625000I-212500J0D01*
G01*
X196451334Y-76625000D01*
G75*
G02*
X196238834Y-76412500I0J212500D01*
G01*
X196238834Y-75987500D01*
G75*
G02*
X196451334Y-75775000I212500J0D01*
G01*
X197251334Y-75775000D01*
G75*
G02*
X197463834Y-75987500I0J-212500D01*
G01*
G37*
G36*
G01*
X195838834Y-75987500D02*
X195838834Y-76412500D01*
G75*
G02*
X195626334Y-76625000I-212500J0D01*
G01*
X194826334Y-76625000D01*
G75*
G02*
X194613834Y-76412500I0J212500D01*
G01*
X194613834Y-75987500D01*
G75*
G02*
X194826334Y-75775000I212500J0D01*
G01*
X195626334Y-75775000D01*
G75*
G02*
X195838834Y-75987500I0J-212500D01*
G01*
G37*
%TD*%
%TO.C,C3*%
G36*
G01*
X204675000Y-69037500D02*
X204675000Y-68562500D01*
G75*
G02*
X204912500Y-68325000I237500J0D01*
G01*
X205512500Y-68325000D01*
G75*
G02*
X205750000Y-68562500I0J-237500D01*
G01*
X205750000Y-69037500D01*
G75*
G02*
X205512500Y-69275000I-237500J0D01*
G01*
X204912500Y-69275000D01*
G75*
G02*
X204675000Y-69037500I0J237500D01*
G01*
G37*
G36*
G01*
X202950000Y-69037500D02*
X202950000Y-68562500D01*
G75*
G02*
X203187500Y-68325000I237500J0D01*
G01*
X203787500Y-68325000D01*
G75*
G02*
X204025000Y-68562500I0J-237500D01*
G01*
X204025000Y-69037500D01*
G75*
G02*
X203787500Y-69275000I-237500J0D01*
G01*
X203187500Y-69275000D01*
G75*
G02*
X202950000Y-69037500I0J237500D01*
G01*
G37*
%TD*%
%TO.C,C2*%
G36*
G01*
X198975000Y-69762500D02*
X198975000Y-70237500D01*
G75*
G02*
X198737500Y-70475000I-237500J0D01*
G01*
X198137500Y-70475000D01*
G75*
G02*
X197900000Y-70237500I0J237500D01*
G01*
X197900000Y-69762500D01*
G75*
G02*
X198137500Y-69525000I237500J0D01*
G01*
X198737500Y-69525000D01*
G75*
G02*
X198975000Y-69762500I0J-237500D01*
G01*
G37*
G36*
G01*
X200700000Y-69762500D02*
X200700000Y-70237500D01*
G75*
G02*
X200462500Y-70475000I-237500J0D01*
G01*
X199862500Y-70475000D01*
G75*
G02*
X199625000Y-70237500I0J237500D01*
G01*
X199625000Y-69762500D01*
G75*
G02*
X199862500Y-69525000I237500J0D01*
G01*
X200462500Y-69525000D01*
G75*
G02*
X200700000Y-69762500I0J-237500D01*
G01*
G37*
%TD*%
%TO.C,C1*%
G36*
G01*
X194658834Y-71837500D02*
X194658834Y-71362500D01*
G75*
G02*
X194896334Y-71125000I237500J0D01*
G01*
X195496334Y-71125000D01*
G75*
G02*
X195733834Y-71362500I0J-237500D01*
G01*
X195733834Y-71837500D01*
G75*
G02*
X195496334Y-72075000I-237500J0D01*
G01*
X194896334Y-72075000D01*
G75*
G02*
X194658834Y-71837500I0J237500D01*
G01*
G37*
G36*
G01*
X196383834Y-71837500D02*
X196383834Y-71362500D01*
G75*
G02*
X196621334Y-71125000I237500J0D01*
G01*
X197221334Y-71125000D01*
G75*
G02*
X197458834Y-71362500I0J-237500D01*
G01*
X197458834Y-71837500D01*
G75*
G02*
X197221334Y-72075000I-237500J0D01*
G01*
X196621334Y-72075000D01*
G75*
G02*
X196383834Y-71837500I0J237500D01*
G01*
G37*
%TD*%
M02*
