%TF.GenerationSoftware,KiCad,Pcbnew,5.1.12-1.fc35*%
%TF.CreationDate,2021-11-27T14:33:04+00:00*%
%TF.ProjectId,kiCAD_TriSchmittPanelMount_v003,6b694341-445f-4547-9269-5363686d6974,rev?*%
%TF.SameCoordinates,Original*%
%TF.FileFunction,Legend,Top*%
%TF.FilePolarity,Positive*%
%FSLAX46Y46*%
G04 Gerber Fmt 4.6, Leading zero omitted, Abs format (unit mm)*
G04 Created by KiCad (PCBNEW 5.1.12-1.fc35) date 2021-11-27 14:33:04*
%MOMM*%
%LPD*%
G01*
G04 APERTURE LIST*
%ADD10C,0.100000*%
%ADD11C,0.120000*%
%ADD12C,0.150000*%
G04 APERTURE END LIST*
D10*
X191261904Y-74766666D02*
X191738095Y-74766666D01*
X191166666Y-75052380D02*
X191500000Y-74052380D01*
X191833333Y-75052380D01*
X191809523Y-72457142D02*
X191761904Y-72504761D01*
X191619047Y-72552380D01*
X191523809Y-72552380D01*
X191380952Y-72504761D01*
X191285714Y-72409523D01*
X191238095Y-72314285D01*
X191190476Y-72123809D01*
X191190476Y-71980952D01*
X191238095Y-71790476D01*
X191285714Y-71695238D01*
X191380952Y-71600000D01*
X191523809Y-71552380D01*
X191619047Y-71552380D01*
X191761904Y-71600000D01*
X191809523Y-71647619D01*
X191571428Y-69528571D02*
X191714285Y-69576190D01*
X191761904Y-69623809D01*
X191809523Y-69719047D01*
X191809523Y-69861904D01*
X191761904Y-69957142D01*
X191714285Y-70004761D01*
X191619047Y-70052380D01*
X191238095Y-70052380D01*
X191238095Y-69052380D01*
X191571428Y-69052380D01*
X191666666Y-69100000D01*
X191714285Y-69147619D01*
X191761904Y-69242857D01*
X191761904Y-69338095D01*
X191714285Y-69433333D01*
X191666666Y-69480952D01*
X191571428Y-69528571D01*
X191238095Y-69528571D01*
X192128571Y-79250000D02*
X192042857Y-79207142D01*
X191914285Y-79207142D01*
X191785714Y-79250000D01*
X191700000Y-79335714D01*
X191657142Y-79421428D01*
X191614285Y-79592857D01*
X191614285Y-79721428D01*
X191657142Y-79892857D01*
X191700000Y-79978571D01*
X191785714Y-80064285D01*
X191914285Y-80107142D01*
X192000000Y-80107142D01*
X192128571Y-80064285D01*
X192171428Y-80021428D01*
X192171428Y-79721428D01*
X192000000Y-79721428D01*
X192557142Y-80107142D02*
X192557142Y-79507142D01*
X192557142Y-79678571D02*
X192600000Y-79592857D01*
X192642857Y-79550000D01*
X192728571Y-79507142D01*
X192814285Y-79507142D01*
X193500000Y-80107142D02*
X193500000Y-79635714D01*
X193457142Y-79550000D01*
X193371428Y-79507142D01*
X193200000Y-79507142D01*
X193114285Y-79550000D01*
X193500000Y-80064285D02*
X193414285Y-80107142D01*
X193200000Y-80107142D01*
X193114285Y-80064285D01*
X193071428Y-79978571D01*
X193071428Y-79892857D01*
X193114285Y-79807142D01*
X193200000Y-79764285D01*
X193414285Y-79764285D01*
X193500000Y-79721428D01*
X193928571Y-80107142D02*
X193928571Y-79207142D01*
X194314285Y-80107142D02*
X194314285Y-79635714D01*
X194271428Y-79550000D01*
X194185714Y-79507142D01*
X194057142Y-79507142D01*
X193971428Y-79550000D01*
X193928571Y-79592857D01*
X195128571Y-80107142D02*
X195128571Y-79635714D01*
X195085714Y-79550000D01*
X195000000Y-79507142D01*
X194828571Y-79507142D01*
X194742857Y-79550000D01*
X195128571Y-80064285D02*
X195042857Y-80107142D01*
X194828571Y-80107142D01*
X194742857Y-80064285D01*
X194700000Y-79978571D01*
X194700000Y-79892857D01*
X194742857Y-79807142D01*
X194828571Y-79764285D01*
X195042857Y-79764285D01*
X195128571Y-79721428D01*
X195557142Y-80107142D02*
X195557142Y-79507142D01*
X195557142Y-79592857D02*
X195600000Y-79550000D01*
X195685714Y-79507142D01*
X195814285Y-79507142D01*
X195900000Y-79550000D01*
X195942857Y-79635714D01*
X195942857Y-80107142D01*
X195942857Y-79635714D02*
X195985714Y-79550000D01*
X196071428Y-79507142D01*
X196200000Y-79507142D01*
X196285714Y-79550000D01*
X196328571Y-79635714D01*
X196328571Y-80107142D01*
X196757142Y-79764285D02*
X197442857Y-79764285D01*
X198385714Y-80107142D02*
X198085714Y-79678571D01*
X197871428Y-80107142D02*
X197871428Y-79207142D01*
X198214285Y-79207142D01*
X198300000Y-79250000D01*
X198342857Y-79292857D01*
X198385714Y-79378571D01*
X198385714Y-79507142D01*
X198342857Y-79592857D01*
X198300000Y-79635714D01*
X198214285Y-79678571D01*
X197871428Y-79678571D01*
X203535714Y-76785714D02*
X203835714Y-76785714D01*
X203964285Y-77257142D02*
X203535714Y-77257142D01*
X203535714Y-76357142D01*
X203964285Y-76357142D01*
X204350000Y-76657142D02*
X204350000Y-77257142D01*
X204350000Y-76742857D02*
X204392857Y-76700000D01*
X204478571Y-76657142D01*
X204607142Y-76657142D01*
X204692857Y-76700000D01*
X204735714Y-76785714D01*
X204735714Y-77257142D01*
X205550000Y-77214285D02*
X205464285Y-77257142D01*
X205292857Y-77257142D01*
X205207142Y-77214285D01*
X205164285Y-77171428D01*
X205121428Y-77085714D01*
X205121428Y-76828571D01*
X205164285Y-76742857D01*
X205207142Y-76700000D01*
X205292857Y-76657142D01*
X205464285Y-76657142D01*
X205550000Y-76700000D01*
X206064285Y-77257142D02*
X205978571Y-77214285D01*
X205935714Y-77171428D01*
X205892857Y-77085714D01*
X205892857Y-76828571D01*
X205935714Y-76742857D01*
X205978571Y-76700000D01*
X206064285Y-76657142D01*
X206192857Y-76657142D01*
X206278571Y-76700000D01*
X206321428Y-76742857D01*
X206364285Y-76828571D01*
X206364285Y-77085714D01*
X206321428Y-77171428D01*
X206278571Y-77214285D01*
X206192857Y-77257142D01*
X206064285Y-77257142D01*
X207135714Y-77257142D02*
X207135714Y-76357142D01*
X207135714Y-77214285D02*
X207050000Y-77257142D01*
X206878571Y-77257142D01*
X206792857Y-77214285D01*
X206750000Y-77171428D01*
X206707142Y-77085714D01*
X206707142Y-76828571D01*
X206750000Y-76742857D01*
X206792857Y-76700000D01*
X206878571Y-76657142D01*
X207050000Y-76657142D01*
X207135714Y-76700000D01*
X207907142Y-77214285D02*
X207821428Y-77257142D01*
X207650000Y-77257142D01*
X207564285Y-77214285D01*
X207521428Y-77128571D01*
X207521428Y-76785714D01*
X207564285Y-76700000D01*
X207650000Y-76657142D01*
X207821428Y-76657142D01*
X207907142Y-76700000D01*
X207950000Y-76785714D01*
X207950000Y-76871428D01*
X207521428Y-76957142D01*
X208335714Y-77257142D02*
X208335714Y-76657142D01*
X208335714Y-76828571D02*
X208378571Y-76742857D01*
X208421428Y-76700000D01*
X208507142Y-76657142D01*
X208592857Y-76657142D01*
X203621428Y-78664285D02*
X203750000Y-78707142D01*
X203964285Y-78707142D01*
X204050000Y-78664285D01*
X204092857Y-78621428D01*
X204135714Y-78535714D01*
X204135714Y-78450000D01*
X204092857Y-78364285D01*
X204050000Y-78321428D01*
X203964285Y-78278571D01*
X203792857Y-78235714D01*
X203707142Y-78192857D01*
X203664285Y-78150000D01*
X203621428Y-78064285D01*
X203621428Y-77978571D01*
X203664285Y-77892857D01*
X203707142Y-77850000D01*
X203792857Y-77807142D01*
X204007142Y-77807142D01*
X204135714Y-77850000D01*
X204907142Y-78664285D02*
X204821428Y-78707142D01*
X204650000Y-78707142D01*
X204564285Y-78664285D01*
X204521428Y-78621428D01*
X204478571Y-78535714D01*
X204478571Y-78278571D01*
X204521428Y-78192857D01*
X204564285Y-78150000D01*
X204650000Y-78107142D01*
X204821428Y-78107142D01*
X204907142Y-78150000D01*
X205292857Y-78707142D02*
X205292857Y-77807142D01*
X205678571Y-78707142D02*
X205678571Y-78235714D01*
X205635714Y-78150000D01*
X205550000Y-78107142D01*
X205421428Y-78107142D01*
X205335714Y-78150000D01*
X205292857Y-78192857D01*
X206107142Y-78707142D02*
X206107142Y-78107142D01*
X206107142Y-78192857D02*
X206150000Y-78150000D01*
X206235714Y-78107142D01*
X206364285Y-78107142D01*
X206450000Y-78150000D01*
X206492857Y-78235714D01*
X206492857Y-78707142D01*
X206492857Y-78235714D02*
X206535714Y-78150000D01*
X206621428Y-78107142D01*
X206750000Y-78107142D01*
X206835714Y-78150000D01*
X206878571Y-78235714D01*
X206878571Y-78707142D01*
X207307142Y-78707142D02*
X207307142Y-78107142D01*
X207307142Y-77807142D02*
X207264285Y-77850000D01*
X207307142Y-77892857D01*
X207350000Y-77850000D01*
X207307142Y-77807142D01*
X207307142Y-77892857D01*
X207607142Y-78107142D02*
X207950000Y-78107142D01*
X207735714Y-77807142D02*
X207735714Y-78578571D01*
X207778571Y-78664285D01*
X207864285Y-78707142D01*
X207950000Y-78707142D01*
X208121428Y-78107142D02*
X208464285Y-78107142D01*
X208250000Y-77807142D02*
X208250000Y-78578571D01*
X208292857Y-78664285D01*
X208378571Y-78707142D01*
X208464285Y-78707142D01*
X200450000Y-79257142D02*
X200964285Y-79257142D01*
X200707142Y-80157142D02*
X200707142Y-79257142D01*
X201264285Y-80157142D02*
X201264285Y-79557142D01*
X201264285Y-79728571D02*
X201307142Y-79642857D01*
X201350000Y-79600000D01*
X201435714Y-79557142D01*
X201521428Y-79557142D01*
X201821428Y-80157142D02*
X201821428Y-79557142D01*
X201821428Y-79257142D02*
X201778571Y-79300000D01*
X201821428Y-79342857D01*
X201864285Y-79300000D01*
X201821428Y-79257142D01*
X201821428Y-79342857D01*
X202635714Y-79557142D02*
X202635714Y-80285714D01*
X202592857Y-80371428D01*
X202550000Y-80414285D01*
X202464285Y-80457142D01*
X202335714Y-80457142D01*
X202250000Y-80414285D01*
X202635714Y-80114285D02*
X202550000Y-80157142D01*
X202378571Y-80157142D01*
X202292857Y-80114285D01*
X202250000Y-80071428D01*
X202207142Y-79985714D01*
X202207142Y-79728571D01*
X202250000Y-79642857D01*
X202292857Y-79600000D01*
X202378571Y-79557142D01*
X202550000Y-79557142D01*
X202635714Y-79600000D01*
X203450000Y-79557142D02*
X203450000Y-80285714D01*
X203407142Y-80371428D01*
X203364285Y-80414285D01*
X203278571Y-80457142D01*
X203150000Y-80457142D01*
X203064285Y-80414285D01*
X203450000Y-80114285D02*
X203364285Y-80157142D01*
X203192857Y-80157142D01*
X203107142Y-80114285D01*
X203064285Y-80071428D01*
X203021428Y-79985714D01*
X203021428Y-79728571D01*
X203064285Y-79642857D01*
X203107142Y-79600000D01*
X203192857Y-79557142D01*
X203364285Y-79557142D01*
X203450000Y-79600000D01*
X204221428Y-80114285D02*
X204135714Y-80157142D01*
X203964285Y-80157142D01*
X203878571Y-80114285D01*
X203835714Y-80028571D01*
X203835714Y-79685714D01*
X203878571Y-79600000D01*
X203964285Y-79557142D01*
X204135714Y-79557142D01*
X204221428Y-79600000D01*
X204264285Y-79685714D01*
X204264285Y-79771428D01*
X203835714Y-79857142D01*
X204650000Y-80157142D02*
X204650000Y-79557142D01*
X204650000Y-79728571D02*
X204692857Y-79642857D01*
X204735714Y-79600000D01*
X204821428Y-79557142D01*
X204907142Y-79557142D01*
X205807142Y-79557142D02*
X206021428Y-80157142D01*
X206235714Y-79557142D01*
X206492857Y-79257142D02*
X207050000Y-79257142D01*
X206750000Y-79600000D01*
X206878571Y-79600000D01*
X206964285Y-79642857D01*
X207007142Y-79685714D01*
X207050000Y-79771428D01*
X207050000Y-79985714D01*
X207007142Y-80071428D01*
X206964285Y-80114285D01*
X206878571Y-80157142D01*
X206621428Y-80157142D01*
X206535714Y-80114285D01*
X206492857Y-80071428D01*
X207435714Y-80071428D02*
X207478571Y-80114285D01*
X207435714Y-80157142D01*
X207392857Y-80114285D01*
X207435714Y-80071428D01*
X207435714Y-80157142D01*
X208035714Y-79257142D02*
X208121428Y-79257142D01*
X208207142Y-79300000D01*
X208250000Y-79342857D01*
X208292857Y-79428571D01*
X208335714Y-79600000D01*
X208335714Y-79814285D01*
X208292857Y-79985714D01*
X208250000Y-80071428D01*
X208207142Y-80114285D01*
X208121428Y-80157142D01*
X208035714Y-80157142D01*
X207950000Y-80114285D01*
X207907142Y-80071428D01*
X207864285Y-79985714D01*
X207821428Y-79814285D01*
X207821428Y-79600000D01*
X207864285Y-79428571D01*
X207907142Y-79342857D01*
X207950000Y-79300000D01*
X208035714Y-79257142D01*
X208978571Y-80500000D02*
X208935714Y-80457142D01*
X208850000Y-80328571D01*
X208807142Y-80242857D01*
X208764285Y-80114285D01*
X208721428Y-79900000D01*
X208721428Y-79728571D01*
X208764285Y-79514285D01*
X208807142Y-79385714D01*
X208850000Y-79300000D01*
X208935714Y-79171428D01*
X208978571Y-79128571D01*
X209321428Y-80157142D02*
X209321428Y-79257142D01*
X209664285Y-79257142D01*
X209750000Y-79300000D01*
X209792857Y-79342857D01*
X209835714Y-79428571D01*
X209835714Y-79557142D01*
X209792857Y-79642857D01*
X209750000Y-79685714D01*
X209664285Y-79728571D01*
X209321428Y-79728571D01*
X210221428Y-80157142D02*
X210221428Y-79257142D01*
X210521428Y-79900000D01*
X210821428Y-79257142D01*
X210821428Y-80157142D01*
X211164285Y-80500000D02*
X211207142Y-80457142D01*
X211292857Y-80328571D01*
X211335714Y-80242857D01*
X211378571Y-80114285D01*
X211421428Y-79900000D01*
X211421428Y-79728571D01*
X211378571Y-79514285D01*
X211335714Y-79385714D01*
X211292857Y-79300000D01*
X211207142Y-79171428D01*
X211164285Y-79128571D01*
X213066666Y-76652380D02*
X213400000Y-77652380D01*
X213733333Y-76652380D01*
X213247619Y-74152380D02*
X213342857Y-74152380D01*
X213438095Y-74200000D01*
X213485714Y-74247619D01*
X213533333Y-74342857D01*
X213580952Y-74533333D01*
X213580952Y-74771428D01*
X213533333Y-74961904D01*
X213485714Y-75057142D01*
X213438095Y-75104761D01*
X213342857Y-75152380D01*
X213247619Y-75152380D01*
X213152381Y-75104761D01*
X213104762Y-75057142D01*
X213057143Y-74961904D01*
X213009524Y-74771428D01*
X213009524Y-74533333D01*
X213057143Y-74342857D01*
X213104762Y-74247619D01*
X213152381Y-74200000D01*
X213247619Y-74152380D01*
X213914286Y-74485714D02*
X214152381Y-75152380D01*
X214390476Y-74485714D01*
X212961905Y-72504761D02*
X213104762Y-72552380D01*
X213342857Y-72552380D01*
X213438095Y-72504761D01*
X213485714Y-72457142D01*
X213533333Y-72361904D01*
X213533333Y-72266666D01*
X213485714Y-72171428D01*
X213438095Y-72123809D01*
X213342857Y-72076190D01*
X213152381Y-72028571D01*
X213057143Y-71980952D01*
X213009524Y-71933333D01*
X212961905Y-71838095D01*
X212961905Y-71742857D01*
X213009524Y-71647619D01*
X213057143Y-71600000D01*
X213152381Y-71552380D01*
X213390476Y-71552380D01*
X213533333Y-71600000D01*
X213866667Y-71885714D02*
X214057143Y-72552380D01*
X214247619Y-72076190D01*
X214438095Y-72552380D01*
X214628571Y-71885714D01*
X213342857Y-69528571D02*
X213485714Y-69576190D01*
X213533333Y-69623809D01*
X213580952Y-69719047D01*
X213580952Y-69861904D01*
X213533333Y-69957142D01*
X213485714Y-70004761D01*
X213390476Y-70052380D01*
X213009524Y-70052380D01*
X213009524Y-69052380D01*
X213342857Y-69052380D01*
X213438095Y-69100000D01*
X213485714Y-69147619D01*
X213533333Y-69242857D01*
X213533333Y-69338095D01*
X213485714Y-69433333D01*
X213438095Y-69480952D01*
X213342857Y-69528571D01*
X213009524Y-69528571D01*
X212961904Y-67166666D02*
X213438095Y-67166666D01*
X212866666Y-67452380D02*
X213200000Y-66452380D01*
X213533333Y-67452380D01*
D11*
%TO.C,U1*%
X205850000Y-74200000D02*
X205850000Y-70200000D01*
X202850000Y-74200000D02*
X202850000Y-71200000D01*
%TO.C,R6*%
X204095276Y-66727500D02*
X204604724Y-66727500D01*
X204095276Y-67772500D02*
X204604724Y-67772500D01*
%TO.C,R5*%
X207312742Y-65177500D02*
X207787258Y-65177500D01*
X207312742Y-66222500D02*
X207787258Y-66222500D01*
%TO.C,R4*%
X196296092Y-70522500D02*
X195821576Y-70522500D01*
X196296092Y-69477500D02*
X195821576Y-69477500D01*
%TO.C,R3*%
X195821576Y-66377500D02*
X196296092Y-66377500D01*
X195821576Y-67422500D02*
X196296092Y-67422500D01*
%TO.C,R2*%
X196296092Y-74150834D02*
X195821576Y-74150834D01*
X196296092Y-75195834D02*
X195821576Y-75195834D01*
%TO.C,R1*%
X195821576Y-73659168D02*
X196296092Y-73659168D01*
X195821576Y-72614168D02*
X196296092Y-72614168D01*
%TO.C,D3*%
X205150000Y-64965000D02*
X202690000Y-64965000D01*
X202690000Y-64965000D02*
X202690000Y-66435000D01*
X202690000Y-66435000D02*
X205150000Y-66435000D01*
%TO.C,D2*%
X195238834Y-69185000D02*
X197523834Y-69185000D01*
X197523834Y-69185000D02*
X197523834Y-67715000D01*
X197523834Y-67715000D02*
X195238834Y-67715000D01*
%TO.C,D1*%
X197723834Y-75515000D02*
X195238834Y-75515000D01*
X197723834Y-76885000D02*
X197723834Y-75515000D01*
X195238834Y-76885000D02*
X197723834Y-76885000D01*
%TO.C,C3*%
X204203733Y-68290000D02*
X204496267Y-68290000D01*
X204203733Y-69310000D02*
X204496267Y-69310000D01*
%TO.C,C2*%
X199446267Y-70510000D02*
X199153733Y-70510000D01*
X199446267Y-69490000D02*
X199153733Y-69490000D01*
%TO.C,C1*%
X195912567Y-72110000D02*
X196205101Y-72110000D01*
X195912567Y-71090000D02*
X196205101Y-71090000D01*
%TO.C,J1*%
X210170000Y-65695000D02*
X211500000Y-65695000D01*
X210170000Y-67025000D02*
X210170000Y-65695000D01*
X210170000Y-68295000D02*
X212830000Y-68295000D01*
X212830000Y-68295000D02*
X212830000Y-78515000D01*
X210170000Y-68295000D02*
X210170000Y-78515000D01*
X210170000Y-78515000D02*
X212830000Y-78515000D01*
%TO.C,U1*%
D12*
X206138095Y-71852380D02*
X206138095Y-72661904D01*
X206185714Y-72757142D01*
X206233333Y-72804761D01*
X206328571Y-72852380D01*
X206519047Y-72852380D01*
X206614285Y-72804761D01*
X206661904Y-72757142D01*
X206709523Y-72661904D01*
X206709523Y-71852380D01*
X207709523Y-72852380D02*
X207138095Y-72852380D01*
X207423809Y-72852380D02*
X207423809Y-71852380D01*
X207328571Y-71995238D01*
X207233333Y-72090476D01*
X207138095Y-72138095D01*
%TO.C,R6*%
X206833333Y-67752380D02*
X206500000Y-67276190D01*
X206261904Y-67752380D02*
X206261904Y-66752380D01*
X206642857Y-66752380D01*
X206738095Y-66800000D01*
X206785714Y-66847619D01*
X206833333Y-66942857D01*
X206833333Y-67085714D01*
X206785714Y-67180952D01*
X206738095Y-67228571D01*
X206642857Y-67276190D01*
X206261904Y-67276190D01*
X207690476Y-66752380D02*
X207500000Y-66752380D01*
X207404761Y-66800000D01*
X207357142Y-66847619D01*
X207261904Y-66990476D01*
X207214285Y-67180952D01*
X207214285Y-67561904D01*
X207261904Y-67657142D01*
X207309523Y-67704761D01*
X207404761Y-67752380D01*
X207595238Y-67752380D01*
X207690476Y-67704761D01*
X207738095Y-67657142D01*
X207785714Y-67561904D01*
X207785714Y-67323809D01*
X207738095Y-67228571D01*
X207690476Y-67180952D01*
X207595238Y-67133333D01*
X207404761Y-67133333D01*
X207309523Y-67180952D01*
X207261904Y-67228571D01*
X207214285Y-67323809D01*
%TO.C,R5*%
X207383333Y-64722380D02*
X207050000Y-64246190D01*
X206811904Y-64722380D02*
X206811904Y-63722380D01*
X207192857Y-63722380D01*
X207288095Y-63770000D01*
X207335714Y-63817619D01*
X207383333Y-63912857D01*
X207383333Y-64055714D01*
X207335714Y-64150952D01*
X207288095Y-64198571D01*
X207192857Y-64246190D01*
X206811904Y-64246190D01*
X208288095Y-63722380D02*
X207811904Y-63722380D01*
X207764285Y-64198571D01*
X207811904Y-64150952D01*
X207907142Y-64103333D01*
X208145238Y-64103333D01*
X208240476Y-64150952D01*
X208288095Y-64198571D01*
X208335714Y-64293809D01*
X208335714Y-64531904D01*
X208288095Y-64627142D01*
X208240476Y-64674761D01*
X208145238Y-64722380D01*
X207907142Y-64722380D01*
X207811904Y-64674761D01*
X207764285Y-64627142D01*
%TO.C,R4*%
X198433333Y-69152380D02*
X198100000Y-68676190D01*
X197861904Y-69152380D02*
X197861904Y-68152380D01*
X198242857Y-68152380D01*
X198338095Y-68200000D01*
X198385714Y-68247619D01*
X198433333Y-68342857D01*
X198433333Y-68485714D01*
X198385714Y-68580952D01*
X198338095Y-68628571D01*
X198242857Y-68676190D01*
X197861904Y-68676190D01*
X199290476Y-68485714D02*
X199290476Y-69152380D01*
X199052380Y-68104761D02*
X198814285Y-68819047D01*
X199433333Y-68819047D01*
%TO.C,R3*%
X195133333Y-65952380D02*
X194800000Y-65476190D01*
X194561904Y-65952380D02*
X194561904Y-64952380D01*
X194942857Y-64952380D01*
X195038095Y-65000000D01*
X195085714Y-65047619D01*
X195133333Y-65142857D01*
X195133333Y-65285714D01*
X195085714Y-65380952D01*
X195038095Y-65428571D01*
X194942857Y-65476190D01*
X194561904Y-65476190D01*
X195466666Y-64952380D02*
X196085714Y-64952380D01*
X195752380Y-65333333D01*
X195895238Y-65333333D01*
X195990476Y-65380952D01*
X196038095Y-65428571D01*
X196085714Y-65523809D01*
X196085714Y-65761904D01*
X196038095Y-65857142D01*
X195990476Y-65904761D01*
X195895238Y-65952380D01*
X195609523Y-65952380D01*
X195514285Y-65904761D01*
X195466666Y-65857142D01*
%TO.C,R2*%
X198333333Y-75052380D02*
X198000000Y-74576190D01*
X197761904Y-75052380D02*
X197761904Y-74052380D01*
X198142857Y-74052380D01*
X198238095Y-74100000D01*
X198285714Y-74147619D01*
X198333333Y-74242857D01*
X198333333Y-74385714D01*
X198285714Y-74480952D01*
X198238095Y-74528571D01*
X198142857Y-74576190D01*
X197761904Y-74576190D01*
X198714285Y-74147619D02*
X198761904Y-74100000D01*
X198857142Y-74052380D01*
X199095238Y-74052380D01*
X199190476Y-74100000D01*
X199238095Y-74147619D01*
X199285714Y-74242857D01*
X199285714Y-74338095D01*
X199238095Y-74480952D01*
X198666666Y-75052380D01*
X199285714Y-75052380D01*
%TO.C,R1*%
X199133333Y-73552380D02*
X198800000Y-73076190D01*
X198561904Y-73552380D02*
X198561904Y-72552380D01*
X198942857Y-72552380D01*
X199038095Y-72600000D01*
X199085714Y-72647619D01*
X199133333Y-72742857D01*
X199133333Y-72885714D01*
X199085714Y-72980952D01*
X199038095Y-73028571D01*
X198942857Y-73076190D01*
X198561904Y-73076190D01*
X200085714Y-73552380D02*
X199514285Y-73552380D01*
X199800000Y-73552380D02*
X199800000Y-72552380D01*
X199704761Y-72695238D01*
X199609523Y-72790476D01*
X199514285Y-72838095D01*
%TO.C,D3*%
X203611904Y-64722380D02*
X203611904Y-63722380D01*
X203850000Y-63722380D01*
X203992857Y-63770000D01*
X204088095Y-63865238D01*
X204135714Y-63960476D01*
X204183333Y-64150952D01*
X204183333Y-64293809D01*
X204135714Y-64484285D01*
X204088095Y-64579523D01*
X203992857Y-64674761D01*
X203850000Y-64722380D01*
X203611904Y-64722380D01*
X204516666Y-63722380D02*
X205135714Y-63722380D01*
X204802380Y-64103333D01*
X204945238Y-64103333D01*
X205040476Y-64150952D01*
X205088095Y-64198571D01*
X205135714Y-64293809D01*
X205135714Y-64531904D01*
X205088095Y-64627142D01*
X205040476Y-64674761D01*
X204945238Y-64722380D01*
X204659523Y-64722380D01*
X204564285Y-64674761D01*
X204516666Y-64627142D01*
%TO.C,D2*%
X192861904Y-68452380D02*
X192861904Y-67452380D01*
X193100000Y-67452380D01*
X193242857Y-67500000D01*
X193338095Y-67595238D01*
X193385714Y-67690476D01*
X193433333Y-67880952D01*
X193433333Y-68023809D01*
X193385714Y-68214285D01*
X193338095Y-68309523D01*
X193242857Y-68404761D01*
X193100000Y-68452380D01*
X192861904Y-68452380D01*
X193814285Y-67547619D02*
X193861904Y-67500000D01*
X193957142Y-67452380D01*
X194195238Y-67452380D01*
X194290476Y-67500000D01*
X194338095Y-67547619D01*
X194385714Y-67642857D01*
X194385714Y-67738095D01*
X194338095Y-67880952D01*
X193766666Y-68452380D01*
X194385714Y-68452380D01*
%TO.C,D1*%
X192761904Y-76952380D02*
X192761904Y-75952380D01*
X193000000Y-75952380D01*
X193142857Y-76000000D01*
X193238095Y-76095238D01*
X193285714Y-76190476D01*
X193333333Y-76380952D01*
X193333333Y-76523809D01*
X193285714Y-76714285D01*
X193238095Y-76809523D01*
X193142857Y-76904761D01*
X193000000Y-76952380D01*
X192761904Y-76952380D01*
X194285714Y-76952380D02*
X193714285Y-76952380D01*
X194000000Y-76952380D02*
X194000000Y-75952380D01*
X193904761Y-76095238D01*
X193809523Y-76190476D01*
X193714285Y-76238095D01*
%TO.C,C3*%
X201633333Y-69057142D02*
X201585714Y-69104761D01*
X201442857Y-69152380D01*
X201347619Y-69152380D01*
X201204761Y-69104761D01*
X201109523Y-69009523D01*
X201061904Y-68914285D01*
X201014285Y-68723809D01*
X201014285Y-68580952D01*
X201061904Y-68390476D01*
X201109523Y-68295238D01*
X201204761Y-68200000D01*
X201347619Y-68152380D01*
X201442857Y-68152380D01*
X201585714Y-68200000D01*
X201633333Y-68247619D01*
X201966666Y-68152380D02*
X202585714Y-68152380D01*
X202252380Y-68533333D01*
X202395238Y-68533333D01*
X202490476Y-68580952D01*
X202538095Y-68628571D01*
X202585714Y-68723809D01*
X202585714Y-68961904D01*
X202538095Y-69057142D01*
X202490476Y-69104761D01*
X202395238Y-69152380D01*
X202109523Y-69152380D01*
X202014285Y-69104761D01*
X201966666Y-69057142D01*
%TO.C,C2*%
X202157142Y-70266666D02*
X202204761Y-70314285D01*
X202252380Y-70457142D01*
X202252380Y-70552380D01*
X202204761Y-70695238D01*
X202109523Y-70790476D01*
X202014285Y-70838095D01*
X201823809Y-70885714D01*
X201680952Y-70885714D01*
X201490476Y-70838095D01*
X201395238Y-70790476D01*
X201300000Y-70695238D01*
X201252380Y-70552380D01*
X201252380Y-70457142D01*
X201300000Y-70314285D01*
X201347619Y-70266666D01*
X201347619Y-69885714D02*
X201300000Y-69838095D01*
X201252380Y-69742857D01*
X201252380Y-69504761D01*
X201300000Y-69409523D01*
X201347619Y-69361904D01*
X201442857Y-69314285D01*
X201538095Y-69314285D01*
X201680952Y-69361904D01*
X202252380Y-69933333D01*
X202252380Y-69314285D01*
%TO.C,C1*%
X198533333Y-71957142D02*
X198485714Y-72004761D01*
X198342857Y-72052380D01*
X198247619Y-72052380D01*
X198104761Y-72004761D01*
X198009523Y-71909523D01*
X197961904Y-71814285D01*
X197914285Y-71623809D01*
X197914285Y-71480952D01*
X197961904Y-71290476D01*
X198009523Y-71195238D01*
X198104761Y-71100000D01*
X198247619Y-71052380D01*
X198342857Y-71052380D01*
X198485714Y-71100000D01*
X198533333Y-71147619D01*
X199485714Y-72052380D02*
X198914285Y-72052380D01*
X199200000Y-72052380D02*
X199200000Y-71052380D01*
X199104761Y-71195238D01*
X199009523Y-71290476D01*
X198914285Y-71338095D01*
%TD*%
M02*
