M48
; DRILL file {KiCad 5.1.12-1.fc35} date Sat 27 Nov 2021 14:33:02 GMT
; FORMAT={-:-/ absolute / inch / decimal}
; #@! TF.CreationDate,2021-11-27T14:33:02+00:00
; #@! TF.GenerationSoftware,Kicad,Pcbnew,5.1.12-1.fc35
; #@! TF.FileFunction,Plated,1,2,PTH
FMAT,2
INCH
T1C0.0157
T2C0.0394
T3C0.0787
%
G90
G05
T1
X7.7205Y-2.5945
X7.7953Y-2.878
X7.9409Y-2.8425
X7.9409Y-2.9055
X8.0616Y-2.9856
X8.2047Y-2.6339
T2
X7.6043Y-2.7402
X7.6043Y-2.8386
X7.6043Y-2.937
X8.1752Y-2.7402
X8.1752Y-2.937
X8.3268Y-2.6388
X8.3268Y-2.7388
X8.3268Y-2.8388
X8.3268Y-2.9388
X8.3268Y-3.0388
T3
G00X7.8898Y-2.6181
M15
G01X7.9094Y-2.6181
M16
G05
G00X7.8898Y-3.0591
M15
G01X7.9094Y-3.0591
M16
G05
T0
M30
